<svg width="100" height="37" viewBox="0 0 100 37" fill="none" xmlns="http://www.w3.org/2000/svg">
<g clip-path="url(#clip0)">
<path fill-rule="evenodd" clip-rule="evenodd" d="M26.5322 9.56018L23.0708 7.04118V2.05918H18.5426V3.74614L13.3946 0L0.0223909 9.56018H0V27.3722H0.00355876C0.0992005 30.0825 2.34534 32.2702 5.07797 32.2702H15.3393C16.3739 33.7237 19.0938 36.9052 23.0842 36.9052C23.1064 36.9052 20.9613 35.0614 20.8497 32.2702H21.4764C24.209 32.2702 26.4551 30.0825 26.5508 27.3722H26.5543V9.56018H26.5322Z" fill="white"/>
<path fill-rule="evenodd" clip-rule="evenodd" d="M33.2733 20.9341V28.1649H30.4435V9.53474C30.4875 9.52584 30.532 9.51993 30.5768 9.51707C32.8686 9.51595 35.1609 9.48552 37.4521 9.52315C40.3035 9.57001 42.6928 11.8081 42.9858 14.6417C43.2464 17.1612 41.8139 19.5348 39.4449 20.5091C39.3718 20.5392 39.2997 20.5715 39.209 20.6105C40.4789 22.8115 41.7423 25.001 43.0137 27.2046C42.2089 27.6696 41.4204 28.1253 40.612 28.5924C40.571 28.527 40.532 28.4688 40.4971 28.4084C39.1019 25.9922 37.7079 23.5753 36.3153 21.1576C36.2259 21.0021 36.1322 20.9348 35.9446 20.9369C35.1386 20.9464 34.3324 20.9369 33.5263 20.9342C33.4543 20.934 33.382 20.9341 33.2733 20.9341ZM33.2959 18.0869C33.3608 18.0926 33.4122 18.1009 33.4636 18.1011C34.6826 18.1064 35.9016 18.1107 37.1206 18.1139C37.3003 18.1139 37.4798 18.1026 37.6581 18.0801C39.3527 17.8677 40.5047 16.2104 40.1091 14.5586C39.8032 13.2821 38.624 12.3525 37.2717 12.3425C35.9995 12.3331 34.7271 12.3419 33.4548 12.3437C33.4039 12.3437 33.353 12.3532 33.2961 12.3588L33.2959 18.0869Z" fill="white"/>
<path fill-rule="evenodd" clip-rule="evenodd" d="M67.1015 28.1763V27.9155C67.1015 25.35 67.1015 22.7845 67.1015 20.2189C67.1013 18.5382 66.0204 17.352 64.3434 17.2409C63.8656 17.2059 63.3852 17.2374 62.916 17.3347C61.5893 17.6248 60.7292 18.7414 60.7267 20.1176C60.722 22.7165 60.7215 25.3154 60.7252 27.9141V28.1629H57.882V14.8471H60.7154V15.2617C60.8251 15.203 60.897 15.1647 60.9689 15.1258C63.6554 13.6805 67.0389 14.4135 68.7972 16.8254C69.4844 17.7679 69.8563 18.824 69.8604 19.9927C69.8697 22.6581 69.8652 25.3236 69.8656 27.989C69.8656 28.0803 69.8844 28.1785 69.7334 28.1779C68.8676 28.1744 68.002 28.1763 67.1015 28.1763Z" fill="white"/>
<path fill-rule="evenodd" clip-rule="evenodd" d="M77.2384 11.8096V14.8225H80.4177V17.6651H77.2449V28.163H74.3838V17.6812H71.233V14.8247H74.3801V11.8096H77.2384Z" fill="white"/>
<path fill-rule="evenodd" clip-rule="evenodd" d="M85.6207 28.1671H82.7998V9.53394H85.6207V28.1671Z" fill="white"/>
<path fill-rule="evenodd" clip-rule="evenodd" d="M56.0405 20.0186C56.0344 19.1282 55.8078 18.2533 55.3807 17.472C53.784 14.5304 49.9181 13.4835 46.9791 15.2261C45.2535 16.2493 44.2617 17.7697 44.1402 19.7949C44.0923 20.5917 44.1238 21.3936 44.1308 22.193C44.141 23.1831 44.3823 24.1571 44.8356 25.0373C46.8867 29.0932 52.3942 29.7969 55.3983 26.387C55.466 26.3102 55.5267 26.2271 55.6015 26.1334C54.836 25.6833 54.0928 25.2531 53.3582 24.8088C53.3493 24.8035 53.3406 24.7985 53.3321 24.7937L53.1558 24.6927L53.0055 24.8146C52.9972 24.8209 52.9887 24.8277 52.98 24.8349C52.1637 25.5134 51.2606 25.8748 50.1612 25.7273C48.645 25.524 47.4651 24.5506 47.0639 23.0761C47.0551 23.0267 47.0499 22.9768 47.0484 22.9266H56.0308C56.0368 22.8559 56.043 22.8165 56.043 22.7771C56.0432 21.8575 56.0502 20.938 56.0405 20.0186ZM53.2573 20.0623H46.9043C46.9083 19.9812 46.9063 19.9103 46.9161 19.841C47.13 18.3129 48.0568 17.4051 49.5971 17.2403C50.2588 17.1695 50.9179 17.2112 51.5422 17.4703C52.6279 17.921 53.1353 18.787 53.2662 19.9145C53.2673 19.9639 53.2643 20.0134 53.2573 20.0623Z" fill="white"/>
<path fill-rule="evenodd" clip-rule="evenodd" d="M97.3772 14.7681H97.1333V15.0409C97.1333 16.7265 97.1332 18.4121 97.1329 20.0977C97.1324 21.0571 97.1479 22.017 97.1224 22.9757C97.0884 24.2539 96.2412 25.3131 94.9959 25.6003C94.5281 25.7007 94.0488 25.7378 93.5711 25.7104C91.8712 25.6328 90.7562 24.4354 90.7559 22.7303C90.7553 20.1652 90.7553 17.6001 90.7559 15.0351V14.7728H90.3801C89.6614 14.7728 88.9427 14.7774 88.2241 14.7681H87.9881V14.9891C87.9881 14.9937 87.9881 14.9981 87.9881 15.0029C87.9935 17.5946 87.9943 20.1863 87.9904 22.778C87.9885 23.8362 88.2417 24.821 88.7925 25.7264C90.4271 28.4136 94.0294 29.3599 96.8509 27.8439C96.9356 27.7984 97.0201 27.7527 97.1521 27.6816C97.1288 28.126 97.1341 28.5206 97.0834 28.9079C96.8589 30.6238 96.0081 31.9208 94.4575 32.7246C93.7598 33.0863 93.0206 33.2346 92.2329 33.0907C91.0598 32.8765 90.1568 32.233 89.4087 31.3381C89.3033 31.212 89.2066 31.0785 89.0982 30.9386L86.7817 32.5691C86.8034 32.612 86.8157 32.6423 86.833 32.6695C88.465 35.2378 91.4456 36.5214 94.3773 35.8346C97.2271 35.1668 99.4289 32.7595 99.8726 29.8559C99.9246 29.5148 99.9576 29.1708 99.9995 28.8283V14.7681H97.3772Z" fill="white"/>
</g>
<defs>
<clipPath id="clip0">
<rect width="100" height="36.9052" fill="white"/>
</clipPath>
</defs>
</svg>
