<svg width="128" height="39" viewBox="0 0 128 39" fill="none" xmlns="http://www.w3.org/2000/svg">
<g clip-path="url(#clip0)">
<path d="M1.87356 1.83859C1.87356 1.52418 1.00295 0.717665 0.731323 0.717665H-0.013916V0H4.32518L8.80358 11.0247H8.89413L13.6024 0H17.4818V0.717665H16.7853C16.5137 0.717665 15.6431 1.52418 15.6431 1.83859V12.8223C15.6431 13.1367 16.5137 13.9432 16.7853 13.9432H17.4818V14.6677H11.7427V13.9432H12.4741C12.7457 13.9432 13.6163 13.1367 13.6163 12.8223V2.153L8.17675 14.8796L2.77202 1.92744V12.7744C2.77202 13.0889 3.64263 13.8954 3.91426 13.8954H4.64557V14.613H-0.013916V13.8954H0.682569C0.954198 13.8954 1.8248 13.0889 1.8248 12.7744L1.87356 1.83859Z" fill="white"/>
<path d="M23.7588 8.37963C24.0304 6.90329 23.7588 5.60466 22.1081 5.60466C20.1928 5.60466 19.2316 7.12885 19.2316 9.32285C19.2316 11.5169 20.6246 13.1777 22.7976 13.1777C23.4243 13.2413 24.0556 13.1115 24.6036 12.8064C25.1517 12.5014 25.5891 12.0363 25.8552 11.4758H26.4542C25.8134 13.5263 24.5319 14.8386 22.1081 14.8386C19.4197 14.8386 17.6785 12.6173 17.6785 9.88331C17.6785 6.83494 19.7331 4.81865 22.2962 4.81865C22.9343 4.78793 23.5716 4.89435 24.1635 5.13046C24.7554 5.36658 25.2875 5.72669 25.7229 6.18563L24.3299 8.33862L23.7588 8.37963Z" fill="white"/>
<path d="M43.2578 2.9115C43.4223 2.91438 43.5857 2.88437 43.7379 2.8233C43.8902 2.76222 44.0282 2.67137 44.1436 2.55626C44.2589 2.44116 44.3492 2.30421 44.4088 2.15377C44.4685 2.00334 44.4963 1.84255 44.4906 1.68121C44.4997 1.52001 44.474 1.35874 44.4153 1.20793C44.3565 1.05713 44.266 0.920173 44.1497 0.806011C44.0334 0.691848 43.8938 0.603044 43.7401 0.545393C43.5865 0.487742 43.4221 0.462541 43.2578 0.471435C43.0849 0.458793 42.9111 0.481311 42.7474 0.53758C42.5838 0.593849 42.4337 0.68266 42.3065 0.798456C42.1794 0.914252 42.078 1.05454 42.0087 1.21055C41.9394 1.36656 41.9036 1.53493 41.9036 1.70514C41.9036 1.87534 41.9394 2.04371 42.0087 2.19972C42.078 2.35573 42.1794 2.49602 42.3065 2.61182C42.4337 2.72761 42.5838 2.81642 42.7474 2.87269C42.9111 2.92896 43.0849 2.95148 43.2578 2.93884V2.9115Z" fill="white"/>
<path d="M56.9677 13.8954C56.696 13.8954 55.916 13.2119 55.916 12.9111V7.62092C55.9324 7.26706 55.8743 6.91368 55.7453 6.58284C55.6163 6.252 55.4191 5.95082 55.1662 5.69811C54.9132 5.4454 54.6099 5.24658 54.2752 5.11407C53.9404 4.98156 53.5814 4.91821 53.2206 4.92797C51.4863 4.92797 50.5739 5.91903 49.4317 7.08097L49.0626 5.09884H46.005V5.78233H46.597C46.8686 5.78233 47.6487 6.5 47.6487 6.7734V12.8223C47.6487 13.1367 46.8686 13.8065 46.597 13.8065H45.413C45.1344 13.8065 44.3613 13.123 44.3613 12.8223V5.09884H40.8789V5.78233H41.4709C41.7495 5.78233 42.5226 6.5 42.5226 6.7734V12.8223C42.5226 13.1367 41.7495 13.8065 41.4709 13.8065H40.3844C39.7157 13.5297 39.1097 13.1254 38.6014 12.6172L33.4195 5.87119L37.0273 2.05731C37.583 1.49929 38.2305 1.03716 38.9426 0.690325H39.6391V0H34.2483V0.717665H34.9796C35.2513 0.717665 36.1219 1.70189 35.892 1.96845L30.5639 7.83281V1.83859C30.5639 1.52418 31.4276 0.717665 31.7062 0.717665H32.4026V0H26.6357V0.717665H27.3322C27.6039 0.717665 28.4745 1.52418 28.4745 1.83859V12.8223C28.4745 13.1367 27.6039 13.9432 27.3322 13.9432H26.6357V14.6677H32.4375V13.9432H31.741C31.4624 13.9432 30.5987 13.1367 30.5987 12.8223V8.9674L32.1031 7.34753L37.2293 14.6677H51.0754V13.9432H50.5252C50.2535 13.9432 49.4735 13.2597 49.4735 12.9522V8.06519C49.4735 7.44322 51.2565 6.09674 52.6286 6.09674C52.8434 6.08556 53.0581 6.12037 53.2579 6.19875C53.4576 6.27713 53.6376 6.39721 53.7854 6.55066C53.9331 6.70411 54.0451 6.88726 54.1136 7.08741C54.182 7.28756 54.2052 7.49993 54.1817 7.70978V12.9111C54.1817 13.2256 53.4017 13.8954 53.13 13.8954H52.5798V14.613H57.5179V13.8954H56.9677Z" fill="white"/>
<path d="M58.7471 11.2981C58.7471 12.1935 60.0704 14.0731 62.1251 14.0731C63.3161 14.0731 63.9986 13.6698 63.9986 12.7744C63.9986 11.7014 63.0375 11.3391 62.1738 10.9837C61.4773 10.7103 60.941 10.4916 60.161 10.1293C58.977 9.58938 58.0715 8.8307 58.0715 7.53207C58.0715 5.82334 59.1232 4.83911 60.9968 4.83911C62.0485 4.83911 62.6405 5.33122 63.3718 5.33122C63.6434 5.33122 63.8245 5.29022 63.915 5.06466H64.4653V7.97633H63.8733C63.7401 7.30244 63.3787 6.69254 62.8476 6.24581C62.3165 5.79908 61.647 5.54179 60.948 5.51577C59.8058 5.51577 59.3043 6.00788 59.3043 6.76656C59.3043 7.52523 59.8963 7.88748 60.8575 8.29074C61.5888 8.60515 62.139 8.8307 62.9469 9.14511C63.9986 9.54837 65.1826 10.3549 65.1826 11.8791C65.1826 13.6698 63.9011 14.7497 62.0763 14.7497C60.8435 14.7497 60.1122 14.1619 59.2904 14.1619C59.1511 14.147 59.0103 14.1682 58.882 14.2233C58.7536 14.2785 58.6423 14.3657 58.5591 14.4763H58.0994V11.1614H58.6984L58.7471 11.2981Z" fill="white"/>
<path d="M65.8245 9.88339C65.8245 7.06057 67.7885 4.85973 70.2611 4.90757C70.7141 4.89095 71.1659 4.96455 71.5892 5.12394C72.0125 5.28334 72.3985 5.52521 72.7239 5.83499C73.0493 6.14476 73.3074 6.51601 73.4827 6.92635C73.6579 7.33669 73.7466 7.7776 73.7435 8.22251L73.7853 8.906L67.3428 9.40494C67.3428 11.3324 68.7358 13.212 70.86 13.212C71.4806 13.2707 72.1044 13.1384 72.6448 12.8335C73.1852 12.5285 73.6155 12.066 73.8758 11.5101H74.5096C73.8689 13.5606 72.6779 14.8729 70.3307 14.8729C67.6075 14.8387 65.8245 12.549 65.8245 9.88339ZM72.1764 8.3592C72.3575 6.99222 72.1277 5.66625 70.2123 5.66625C68.297 5.66625 67.4264 7.27929 67.3358 8.76246L72.1764 8.3592Z" fill="white"/>
<path d="M75.5116 6.90329C75.2084 6.44002 74.7822 6.06666 74.2788 5.82338H73.8679V5.09888H78.9801V5.78237H78.3881C78.1165 5.78237 77.5175 6.46586 77.5175 6.81444L79.7602 11.9338L81.9541 6.86912C81.9109 6.64524 81.8138 6.43474 81.6708 6.2552C81.5278 6.07566 81.3432 5.93228 81.1322 5.83705H80.5333V5.09888H84.4197V5.78237H83.96C83.7301 5.78237 83.0476 6.50003 82.8177 6.81444L79.5303 14.121L77.1066 19.3702L76.2429 18.9669L78.799 13.7655L75.5116 6.90329Z" fill="white"/>
<path d="M28.7771 22.1861C28.8093 22.7786 29.0274 23.3469 29.4014 23.813C29.7755 24.2792 30.2872 24.6205 30.8666 24.7902C32.7819 26.8065 35.1152 28.9595 37.135 30.7502C37.6989 29.8156 37.9701 28.7389 37.915 27.654C37.915 26.2871 37.0026 25.501 35.54 25.4532V24.7697H40.8403V25.4532H40.2413C39.6309 25.8143 39.1641 26.3688 38.918 27.0252C38.9053 28.4843 38.4627 29.9085 37.6434 31.1262C38.602 31.9695 39.6064 32.7612 40.6522 33.4979H41.5716V34.1814H39.9209C39.2325 34.2008 38.5474 34.0817 37.9077 33.8313C37.2681 33.5809 36.6875 33.2046 36.2017 32.7255C35.5533 33.3284 34.7867 33.7957 33.9486 34.0988C33.1105 34.4019 32.2183 34.5347 31.3263 34.4889C30.121 34.5295 28.9487 34.0987 28.0671 33.2912C27.1855 32.4837 26.6668 31.3657 26.625 30.183C26.6232 29.3097 26.8385 28.4492 27.2524 27.6762C27.6663 26.9032 28.2662 26.241 29 25.7471C28.2397 24.9032 27.8274 23.8114 27.8439 22.6851C27.8439 20.5731 29.2368 19.4111 31.4099 19.4111C32.8028 19.4111 33.4993 19.8554 34.1471 19.8554C34.4674 19.8554 34.6973 19.8554 34.8435 19.5888H35.4843V23.0063H34.8087C34.8087 22.0221 33.3461 20.0468 31.3263 20.0468C29.7383 20.081 28.7771 20.8191 28.7771 22.1861ZM28.1364 29.1851C28.1364 31.2902 30.4209 33.286 32.5242 33.286C33.687 33.3173 34.8278 32.9713 35.7699 32.3018C33.4987 30.3677 31.3474 28.3022 29.3274 26.1162C28.9177 26.515 28.5995 26.9951 28.3941 27.5244C28.1887 28.0536 28.1009 28.6198 28.1364 29.1851Z" fill="white"/>
<path d="M56.826 24.7423C56.826 23.2182 55.0918 20.1698 52.3058 20.1698C49.7497 20.1698 48.1966 21.5368 47.918 24.879C47.8437 26.118 47.86 27.3606 47.9667 28.5972C48.0158 29.873 48.5759 31.0782 49.5253 31.951C50.4747 32.8239 51.7367 33.2938 53.0371 33.2586C55.5932 33.2586 56.8748 32.1856 57.8359 30.2581H58.609C58.2084 31.5058 57.4011 32.5897 56.3112 33.3431C55.2214 34.0964 53.9095 34.4774 52.5775 34.4274C48.2871 34.4274 45.543 31.01 45.543 26.8065C45.543 22.603 48.0573 19.2881 52.2153 19.2881C53.8102 19.2881 54.8201 19.9169 55.9624 19.9169C56.1367 19.93 56.3116 19.8999 56.471 19.8294C56.6304 19.759 56.7692 19.6504 56.8748 19.5136H57.425V24.715H56.826V24.7423Z" fill="white"/>
<path d="M59.6104 29.4516C59.6104 26.3554 61.853 24.428 64.4091 24.428C66.9652 24.428 69.2079 26.3554 69.2079 29.4516C69.2079 32.5479 66.9652 34.489 64.4091 34.489C63.7531 34.4798 63.1057 34.3407 62.5057 34.0801C61.9057 33.8195 61.3655 33.4427 60.9175 32.9724C60.4694 32.5021 60.1227 31.9478 59.8981 31.3428C59.6735 30.7378 59.5756 30.0946 59.6104 29.4516ZM67.2717 31.0237C67.411 29.9504 67.411 28.8641 67.2717 27.7908C67.0906 26.2666 66.22 25.2345 64.444 25.2345C62.6679 25.2345 61.8391 26.2666 61.6093 27.7497C61.47 28.8208 61.47 29.9048 61.6093 30.9758C61.8391 32.4522 62.661 33.5321 64.444 33.5321C66.227 33.5321 67.1045 32.5 67.2856 31.0237H67.2717Z" fill="white"/>
<path d="M84.9573 32.4385C84.9573 32.7529 85.6886 33.4296 85.9603 33.4296H86.4199V34.1131H81.5445V33.4296H82.0878C82.3664 33.4296 83.0977 32.7461 83.0977 32.4385V27.2098C83.1306 27.0037 83.115 26.793 83.0521 26.5937C82.9891 26.3944 82.8806 26.212 82.7347 26.0602C82.5888 25.9085 82.4095 25.7915 82.2104 25.7183C82.0114 25.6451 81.7979 25.6175 81.5863 25.6378C80.3118 25.6378 78.7586 26.8544 78.7586 27.4764V32.4385C78.7586 32.7529 79.4551 33.4296 79.7615 33.4296H80.3118V34.1131H75.3737V33.4296H75.903C76.1746 33.4296 76.906 32.7461 76.906 32.4385V27.2098C76.9317 27.0014 76.9097 26.79 76.8415 26.5911C76.7733 26.3921 76.6606 26.2107 76.5117 26.06C76.3628 25.9093 76.1815 25.7932 75.981 25.7201C75.7804 25.6471 75.5658 25.6189 75.3528 25.6378C74.0713 25.6378 72.5181 26.8954 72.5181 27.5652V32.5C72.5181 32.8144 73.2494 33.4843 73.528 33.4843H74.0713V34.1677H69.1401V33.4843H69.6904C69.962 33.4843 70.6933 32.8008 70.6933 32.5V26.4033C70.6933 26.0889 69.962 25.4191 69.6904 25.4191H69.1401V24.7356H72.1072L72.5181 26.5742C73.6185 25.4054 74.3498 24.5237 76.0423 24.5237C76.6561 24.4735 77.2659 24.6592 77.7428 25.0418C78.2197 25.4244 78.5265 25.9738 78.5984 26.5742C79.7824 25.4054 80.5625 24.5989 82.1574 24.5989C82.5171 24.5866 82.8753 24.6485 83.209 24.7807C83.5427 24.9129 83.8444 25.1123 84.0945 25.3662C84.3447 25.6201 84.5377 25.9226 84.6612 26.2544C84.7846 26.5861 84.8356 26.9395 84.811 27.2918V32.4385H84.9573Z" fill="white"/>
<path d="M89.2635 24.7014L89.5839 26.6289C89.8741 25.9556 90.3657 25.3847 90.9938 24.9917C91.6219 24.5987 92.3568 24.4022 93.1012 24.428C95.4762 24.428 96.8901 26.3555 96.8901 29.274C96.8901 32.1925 95.2463 34.3797 92.9201 34.3797C92.2412 34.4395 91.5601 34.2907 90.9712 33.954C90.3822 33.6173 89.9145 33.1092 89.6327 32.5001V37.0248C89.6327 37.3392 90.4058 38.0159 90.6356 38.0159H91.2764V38.6993H86.1572V38.0159H86.798C87.0696 38.0159 87.8009 37.3324 87.8009 37.0248V26.4033C87.8009 26.0889 87.0696 25.4191 86.798 25.4191H86.1572V24.7356L89.2635 24.7014ZM89.5839 28.1189V30.6615C89.5839 31.0205 89.656 31.376 89.796 31.7077C89.936 32.0394 90.1412 32.3408 90.3999 32.5947C90.6586 32.8486 90.9657 33.0499 91.3037 33.1873C91.6417 33.3247 92.004 33.3955 92.3699 33.3955C94.0136 33.3955 94.7936 32.3634 95.0165 30.887C95.1558 29.9511 95.1558 29.0002 95.0165 28.0642C94.8354 26.54 93.9718 25.5968 92.5997 25.5968C90.956 25.549 90.0436 26.6699 89.5839 28.1531V28.1189Z" fill="white"/>
<path d="M117.901 33.4843C117.63 33.4843 116.856 32.8008 116.856 32.5001V27.2099C116.872 26.8563 116.813 26.5033 116.684 26.1729C116.554 25.8426 116.357 25.5418 116.104 25.2893C115.852 25.0368 115.549 24.8379 115.214 24.7051C114.88 24.5722 114.522 24.5082 114.161 24.5169C112.42 24.5169 111.507 25.508 110.365 26.6699L110.031 24.7425H106.966V25.426H107.565C107.837 25.426 108.61 26.1436 108.61 26.417V32.4386C108.61 32.753 107.837 33.4296 107.565 33.4296H106.374C106.103 33.4296 105.323 32.7461 105.323 32.4386V27.2987C105.323 25.4191 103.769 24.4759 101.715 24.4759C100.998 24.4311 100.279 24.5399 99.6095 24.7948C98.9396 25.0498 98.3342 25.4447 97.8354 25.9522L99.11 27.8797H99.8065C99.0752 26.2667 99.6184 25.1936 101.262 25.1936C102.906 25.1936 103.547 25.9522 103.547 27.2987V28.4675L101.039 28.9596C99.6463 29.2262 97.8842 29.9028 97.8842 31.7824C97.8683 32.1128 97.9199 32.4429 98.0359 32.7534C98.1519 33.0639 98.33 33.3485 98.5597 33.5905C98.7894 33.8325 99.0661 34.0269 99.3735 34.1625C99.6809 34.298 100.013 34.3719 100.35 34.3797C101.743 34.3797 102.815 33.2588 103.595 32.2745L103.825 34.202H112.044V33.5185H111.5C111.222 33.5185 110.449 32.835 110.449 32.5343V27.6131C110.449 26.9843 112.232 25.6378 113.597 25.6378C113.812 25.6277 114.027 25.6634 114.227 25.7426C114.426 25.8218 114.606 25.9425 114.754 26.0965C114.902 26.2505 115.013 26.434 115.082 26.6345C115.15 26.8349 115.173 27.0476 115.15 27.2577V32.4386C115.15 32.753 114.377 33.4296 114.105 33.4296H113.513V34.1131H118.444V33.4296H117.894L117.901 33.4843ZM103.512 31.4338C103.101 32.1173 102.119 33.0879 101.137 33.0879C100.931 33.0926 100.726 33.0562 100.535 32.9808C100.344 32.9055 100.171 32.7927 100.025 32.6495C99.8801 32.5063 99.766 32.3356 99.69 32.1477C99.6141 31.9599 99.5779 31.7589 99.5836 31.5569C99.5836 30.6137 99.9945 29.9917 101.186 29.6773L103.512 29.0895V31.427V31.4338Z" fill="white"/>
<path d="M119.083 26.4922C118.78 26.0307 118.353 25.6596 117.85 25.4191H117.439V24.7356H122.565V25.4191H121.973C121.702 25.4191 121.11 26.1026 121.11 26.4512L123.345 31.5158L125.539 26.4512C125.501 26.2254 125.406 26.0126 125.263 25.8322C125.119 25.6519 124.932 25.5099 124.717 25.4191H124.118V24.7356H128.005V25.4191H127.545C127.322 25.4191 126.633 26.1368 126.403 26.4512L123.116 33.7577L120.699 39.0001L119.821 38.59L122.377 33.3886L119.083 26.4922Z" fill="white"/>
</g>
<defs>
<clipPath id="clip0">
<rect width="128" height="39" fill="white"/>
</clipPath>
</defs>
</svg>
