<svg width="100" height="53" viewBox="0 0 100 53" fill="none" xmlns="http://www.w3.org/2000/svg">
<g clip-path="url(#clip0)">
<path d="M5.50338 36.3494C6.96745 36.3494 9.37457 36.7677 9.37457 38.5026C9.37457 39.3812 8.78925 40.0301 8.03599 40.0301C7.20026 40.0301 6.96764 39.4861 5.69152 39.4861C4.03912 39.4861 3.26351 40.7432 3.26351 42.2507C3.26351 43.7564 4.05914 45.0106 5.50244 45.0106C6.90533 45.0106 7.55308 44.4464 8.03474 44.4464C8.78706 44.4464 9.37457 45.1995 9.37457 45.8908C9.37457 47.5229 6.80073 48.1505 5.50244 48.1505C2.19644 48.1505 0 45.5355 0 42.2507C0 38.965 2.19648 36.3494 5.50338 36.3494Z" fill="white"/>
<path d="M10.1266 38.2531C10.1266 37.3108 10.7965 36.5573 11.7579 36.5573C12.1027 36.5521 12.4415 36.6484 12.7319 36.8344C13.0223 37.0203 13.2516 37.2876 13.3912 37.603C13.9342 36.9545 14.7289 36.3494 15.6511 36.3494C15.8722 36.3505 16.0908 36.3953 16.2946 36.481C16.4983 36.5668 16.6831 36.6919 16.8385 36.8492C16.9938 37.0065 17.1166 37.1928 17.1999 37.3976C17.2831 37.6024 17.3252 37.8216 17.3236 38.0426C17.3236 39.1723 16.4668 39.4437 15.2718 39.7996C13.8496 40.2202 13.3901 40.5974 13.3901 42.2691V46.2456C13.3901 47.187 12.7202 47.9392 11.7579 47.9392C10.7965 47.9392 10.1266 47.187 10.1266 46.2456V38.2531Z" fill="white"/>
<path d="M28.0601 46.2458C28.0601 47.1872 27.3902 47.9393 26.4279 47.9393C25.6343 47.9393 25.1293 47.3964 24.9011 46.8934C24.1681 47.7937 23.3312 48.1489 22.0971 48.1489C19.252 48.1489 17.0544 45.5335 17.0544 42.2491C17.0544 38.9633 19.2509 36.3474 22.0971 36.3474C23.3312 36.3474 24.1681 36.7021 24.9011 37.6023C25.1293 37.0999 25.6343 36.5566 26.4279 36.5566C27.3902 36.5566 28.0601 37.3097 28.0601 38.2521V46.2458ZM20.3178 42.2508C20.3178 43.7565 21.1125 45.0107 22.5555 45.0107C23.9986 45.0107 24.7944 43.7564 24.7944 42.2508C24.7944 40.7433 23.9988 39.4862 22.5555 39.4862C21.1122 39.4862 20.3178 40.7434 20.3178 42.2508Z" fill="white"/>
<path d="M33.3341 39.6948H30.4665C29.4206 39.6948 28.7507 39.2333 28.7507 38.1873C28.7507 37.1414 29.4206 36.6816 30.4665 36.6816H36.7444C37.3507 36.6816 37.6656 36.7653 37.9784 37.0782C38.1865 37.2863 38.271 37.5599 38.271 37.8535C38.271 38.147 38.1241 38.4177 37.8537 38.7945L33.3761 44.8012H36.8267C37.8738 44.8012 38.5436 45.2604 38.5436 46.3077C38.5436 47.3534 37.874 47.8152 36.8267 47.8152H30.2142C29.6066 47.8152 29.4208 47.7509 29.1259 47.5841C28.7085 47.3122 28.6451 46.8729 28.6451 46.6627C28.6451 46.4123 28.6664 46.1185 29.1483 45.45L33.3341 39.6948Z" fill="white"/>
<path d="M41.9107 46.7473L39.1278 40.1147C38.7518 39.2354 38.437 38.4623 38.437 38.0848C38.437 37.1201 39.2104 36.5574 40.028 36.5574C40.8225 36.5574 41.3877 36.9767 41.7015 37.7926L43.6266 42.7729L45.4479 38.3374C45.8663 37.3308 46.327 36.5574 47.2271 36.5574C48.2306 36.5574 48.9005 37.2071 48.9005 38.2097C48.9005 38.6906 48.6704 39.2567 48.5035 39.6307L43.6687 50.912C43.2926 51.7704 43.022 52.4601 41.8906 52.4601C40.7189 52.4601 40.2794 51.5396 40.2794 50.9948C40.2794 50.4303 40.4474 50.0521 40.8246 49.1966L41.9107 46.7473Z" fill="white"/>
<path d="M52.7297 43.317C52.7297 44.0067 53.2528 45.1374 55.3457 45.1374C56.9556 45.1374 57.9404 44.1126 58.6938 44.1126C59.4266 44.1126 60.0542 44.6765 60.0542 45.5133C60.0542 47.1045 57.3961 48.1505 54.9291 48.1505C51.4133 48.1505 49.2155 45.5355 49.2155 42.2507C49.2155 39.1142 51.5791 36.3494 54.9291 36.3494C58.1505 36.3494 60.2222 39.0474 60.2222 41.8938C60.2222 43.0454 59.6774 43.3179 58.6313 43.3179H52.7297L52.7297 43.317ZM56.9581 41.0783C56.9581 40.3438 56.121 39.113 54.8449 39.113C53.5672 39.113 52.7316 40.3448 52.7316 41.0783H56.9581Z" fill="white"/>
<path d="M71.8554 46.726C71.8554 50.891 69.1348 52.46 65.9335 52.46C64.238 52.46 61.0587 51.8103 61.0587 50.0333C61.0587 49.3008 61.7688 48.6111 62.4176 48.6111C63.3578 48.6111 63.9676 49.5746 65.87 49.5746C67.9005 49.5746 68.5897 48.5055 68.5897 46.6861H68.5493C67.8375 47.6896 66.6647 47.9413 65.5766 47.9413C62.4177 47.9413 60.8477 45.1995 60.8477 42.2507C60.8477 38.965 63.0452 36.3494 65.8913 36.3494C67.1265 36.3494 67.9621 36.7044 68.6955 37.603C68.9265 37.1003 69.4286 36.5573 70.223 36.5573C71.1853 36.5573 71.8554 37.3108 71.8554 38.2531V46.726ZM66.3518 39.4861C64.909 39.4861 64.1134 40.7432 64.1134 42.2507C64.1134 43.84 64.909 45.0524 66.3518 45.0524C67.7953 45.0524 68.5897 43.84 68.5897 42.2507C68.5918 40.7432 67.7953 39.4861 66.3518 39.4861Z" fill="white"/>
<path d="M83.8669 46.726C83.8669 50.891 81.1468 52.46 77.9443 52.46C76.2498 52.46 73.0675 51.8103 73.0675 50.0333C73.0675 49.3008 73.7794 48.6111 74.4291 48.6111C75.3705 48.6111 75.9772 49.5746 77.881 49.5746C79.9115 49.5746 80.6025 48.5055 80.6025 46.6861H80.5601C79.8501 47.6896 78.6773 47.9413 77.5892 47.9413C74.4289 47.9413 72.859 45.1995 72.859 42.2507C72.859 38.965 75.0565 36.3494 77.903 36.3494C79.1379 36.3494 79.975 36.7044 80.7078 37.603C80.9386 37.1003 81.4391 36.5573 82.2346 36.5573C83.1973 36.5573 83.8667 37.3108 83.8667 38.2531L83.8669 46.726ZM78.365 39.4861C76.9187 39.4861 76.1254 40.7432 76.1254 42.2507C76.1254 43.84 76.9188 45.0524 78.365 45.0524C79.8081 45.0524 80.6025 43.84 80.6025 42.2507C80.6025 40.7432 79.8081 39.4861 78.365 39.4861Z" fill="white"/>
<path d="M100 13.626C100 6.09941 93.1688 0 89.8441 0C86.5181 0 79.6875 6.09941 79.6875 13.626C79.6875 17.2612 80.7506 20.5607 82.4808 23.0033C83.0682 24.2355 83.9833 25.5349 84.9297 26.8767C86.0193 28.4232 87.1295 30.0113 87.7592 31.5316C87.4717 31.6445 87.2105 31.8154 86.992 32.0337C86.7734 32.2521 86.6022 32.5131 86.4891 32.8005C87.0756 32.9338 87.6695 33.0328 88.2676 33.0972C89.9768 33.2876 91.497 33.204 92.3685 32.9239C91.8183 33.3719 90.1649 33.6183 88.2316 33.4884C87.603 33.4478 86.9779 33.3652 86.3603 33.2411C86.3376 33.3652 86.3263 33.4912 86.3265 33.6174V36.4169C86.3265 37.6549 87.3314 37.9869 88.5685 37.9869H91.6874C92.9233 37.9869 93.929 37.655 93.929 36.4169V33.6174C93.9286 33.1111 93.7564 32.62 93.4408 32.2243C93.1251 31.8285 92.6845 31.5515 92.1911 31.4385C92.5807 30.5321 93.0354 29.6447 93.4791 28.7742L93.9187 27.909L94.2356 27.2748C94.4826 26.7815 94.8895 25.9625 95.3131 25.1342H95.2729C98.1131 22.7202 100 18.47 100 13.626ZM93.6777 26.9982L93.3621 27.629L92.9235 28.4908C92.4441 29.4281 91.9536 30.3886 91.5393 31.3752H90.1576V27.2486H89.5309V31.3752H88.5686C88.503 31.3752 88.4428 31.3903 88.3785 31.3964C87.7274 29.7755 86.5715 28.1253 85.4381 26.5171C85.1433 26.0969 84.8498 25.6808 84.5663 25.2707C86.1047 26.526 87.9116 27.2508 89.8429 27.2508C91.4063 27.2508 92.8875 26.773 94.2124 25.9258C94.0462 26.2555 93.8701 26.6126 93.6777 26.9982ZM93.5445 25.9362C93.5445 25.9362 96.7185 22.4796 97.6717 17.5718C96.4817 19.0193 94.4174 19.9793 92.0657 19.9793C88.3828 19.9793 85.3949 17.6288 85.3949 14.7289C85.3949 11.8275 88.3828 9.4746 92.0657 9.4746C94.354 9.4746 96.374 10.3843 97.5742 11.7663C95.6427 3.75365 86.9287 1.74636 86.9287 1.74636C86.9287 1.74636 87.472 1.04895 88.6532 0.710924C89.6545 0.423407 90.1447 0.496308 90.7827 0.685615C91.5059 0.898907 99.197 5.18223 99.197 13.3687C99.1995 21.554 93.5445 25.9362 93.5445 25.9362Z" fill="white"/>
<path d="M94.4746 13.3107C93.8786 13.3107 93.3506 13.0001 92.5915 13.0001C91.2351 13.0001 90.5928 13.8092 90.5928 14.6272C90.5928 15.415 91.3007 16.2331 92.5915 16.2331C93.1876 16.2331 94.0771 15.9021 94.3594 15.9021C94.9223 15.9021 95.3833 16.2225 95.3833 16.6007C95.3833 17.4187 93.3334 17.6963 92.4757 17.6963C89.9125 17.6963 88.2117 16.2901 88.2117 14.6293C88.2117 13.0126 89.9633 11.541 92.4757 11.541C93.4158 11.541 95.3833 11.7714 95.3833 12.548C95.3833 12.8807 95.0398 13.3107 94.4746 13.3107Z" fill="white"/>
</g>
<defs>
<clipPath id="clip0">
<rect width="100" height="52.4602" fill="white"/>
</clipPath>
</defs>
</svg>
