<svg width="100" height="24" viewBox="0 0 100 24" fill="none" xmlns="http://www.w3.org/2000/svg">
<g clip-path="url(#clip0)">
<path d="M9.38118 11.4965C12.2316 10.7608 13.0501 8.85987 13.0501 6.66286C13.0501 3.39678 10.6037 1.51807 6.73708 1.51807H-0.000305176V17.5565H4.10823V12.4946H5.20563L7.01699 15.5587C7.30211 16.1567 7.75077 16.6617 8.31103 17.0153C8.8713 17.3689 9.52024 17.5565 10.1827 17.5565H13.6966V13.7151H10.813L9.38118 11.4965ZM5.93172 9.10866H4.10823V4.75872H5.95382C7.99698 4.75872 8.91987 5.50558 8.91987 6.88955C8.91972 8.23003 7.88693 9.10866 5.93172 9.10866Z" fill="white"/>
<path d="M58.1711 17.4907H62.1695V5.1875H58.1711V17.4907Z" fill="white"/>
<path d="M85.6585 8.67719C87.2393 8.73997 87.8553 9.60001 87.8553 11.5554V17.4909H91.8322V9.75721C91.8322 6.83519 90.2144 5.22403 87.5039 4.94576C84.9457 4.68301 83.3078 6.35352 83.3078 6.35352V5.18751H79.3533V17.4909H83.3299L83.3253 11.5482C83.3253 11.5482 83.1053 8.57587 85.6585 8.67719Z" fill="white"/>
<path d="M97.4168 4.94543V1.33789H93.7475L93.714 13.7774C93.7116 14.7493 94.0915 15.6831 94.7718 16.3772C95.4521 17.0713 96.378 17.4699 97.3498 17.4871V17.4905H100V13.7151H97.417V8.51958H100V4.94543H97.417" fill="white"/>
<path d="M58.1711 3.46661H62.1695V0.00219727H58.1711V3.46661Z" fill="white"/>
<path d="M42.6763 5.25317H38.6367L35.8391 12.4792L32.89 5.25317H28.5549L33.4538 17.2012C33.5748 17.4962 33.6212 17.8164 33.5891 18.1335C33.557 18.4507 33.4473 18.7551 33.2697 19.0198C33.0921 19.2846 32.8521 19.5015 32.5708 19.6516C32.2895 19.8016 31.9757 19.8801 31.6569 19.8801H28.6698V23.5044H32.0811C33.0894 23.5044 34.0751 23.2064 34.9145 22.6479C35.7539 22.0893 36.4094 21.2951 36.7988 20.3651L42.6763 5.25317Z" fill="white"/>
<path d="M77.8282 13.667H76.5288C76.5276 13.6669 76.5265 13.6664 76.5257 13.6656C76.5249 13.6648 76.5245 13.6637 76.5245 13.6625C76.5245 13.6625 76.5227 5.20502 76.52 5.20502H72.5432V6.36977C72.5432 6.36977 71.7081 5.17334 69.3135 5.17334C66.2792 5.17334 63.8198 7.91228 63.8198 11.2908C63.8198 14.6693 66.0417 17.4083 69.7724 17.4083C71.1222 17.4083 72.294 16.8114 73.0979 15.9962C73.0984 15.9958 73.0989 15.9955 73.0995 15.9953C73.1001 15.9951 73.1007 15.995 73.1013 15.9951C73.102 15.9952 73.1025 15.9954 73.1031 15.9957C73.1036 15.996 73.1041 15.9965 73.1044 15.997C73.4271 16.4633 73.8581 16.8444 74.3604 17.1077C74.8627 17.3709 75.4214 17.5084 75.9885 17.5084H77.8281C77.8287 17.5084 77.8293 17.5083 77.8298 17.5081C77.8304 17.5079 77.8309 17.5076 77.8313 17.5071C77.8317 17.5067 77.832 17.5062 77.8323 17.5057C77.8325 17.5051 77.8326 17.5045 77.8326 17.5039V13.6714C77.8326 13.6708 77.8325 13.6702 77.8323 13.6696C77.832 13.6691 77.8317 13.6686 77.8313 13.6682C77.8308 13.6678 77.8303 13.6675 77.8298 13.6673C77.8292 13.667 77.8287 13.6669 77.8281 13.667H77.8282ZM70.332 13.9436C68.9982 13.9436 67.9168 12.7561 67.9168 11.2908C67.9168 9.82553 68.9982 8.63798 70.332 8.63798C71.6658 8.63798 72.7472 9.82576 72.7472 11.2908C72.7472 12.7559 71.6658 13.9436 70.332 13.9436Z" fill="white"/>
<path d="M56.6171 13.6668H55.3172C55.3161 13.6667 55.315 13.6662 55.3142 13.6654C55.3135 13.6646 55.313 13.6635 55.3131 13.6623V0.00442166C55.3131 0.00182959 51.3323 0 51.3323 0V6.36962C51.3323 6.36962 50.4968 5.17319 48.1022 5.17319C45.0679 5.17319 42.6085 7.91213 42.6085 11.2907C42.6085 14.6692 44.83 17.4081 48.5611 17.4081C49.9109 17.4081 51.0826 16.8112 51.8869 15.996C51.8873 15.9956 51.8879 15.9953 51.8884 15.9951C51.889 15.9949 51.8896 15.9948 51.8902 15.9949C51.8908 15.995 51.8913 15.9952 51.8918 15.9955C51.8923 15.9958 51.8927 15.9963 51.893 15.9968C52.2158 16.4631 52.6468 16.8442 53.1491 17.1075C53.6514 17.3707 54.21 17.5082 54.7771 17.5083H56.6171C56.6182 17.5082 56.6193 17.5077 56.6201 17.5069C56.6209 17.506 56.6213 17.5049 56.6213 17.5038V13.6712C56.6213 13.67 56.6209 13.6689 56.6201 13.6681C56.6193 13.6673 56.6182 13.6668 56.6171 13.6668ZM49.1207 13.9434C47.7869 13.9434 46.7055 12.7559 46.7055 11.2906C46.7055 9.82534 47.7869 8.63779 49.1207 8.63779C50.4545 8.63779 51.5359 9.82557 51.5359 11.2906C51.5359 12.7557 50.4549 13.9434 49.1207 13.9434Z" fill="white"/>
<path d="M28.4814 13.667H27.1819C27.1807 13.6669 27.1796 13.6665 27.1788 13.6656C27.1779 13.6648 27.1775 13.6637 27.1775 13.6625C27.1775 13.6625 27.1756 5.20502 27.1732 5.20502H23.1966V6.36977C23.1966 6.36977 22.3613 5.17334 19.9667 5.17334C16.9324 5.17334 14.4731 7.91228 14.4731 11.2908C14.4731 14.6693 16.6948 17.4083 20.4254 17.4083C21.7752 17.4083 22.9471 16.8114 23.7513 15.9962C23.7517 15.9958 23.7522 15.9955 23.7528 15.9953C23.7534 15.9951 23.754 15.995 23.7546 15.9951C23.7552 15.9952 23.7557 15.9954 23.7562 15.9957C23.7568 15.996 23.7572 15.9965 23.7575 15.997C24.0802 16.4633 24.5112 16.8445 25.0135 17.1077C25.5158 17.371 26.0745 17.5085 26.6416 17.5085H28.4814C28.4819 17.5085 28.4825 17.5084 28.4831 17.5082C28.4836 17.508 28.4841 17.5076 28.4845 17.5072C28.4849 17.5068 28.4853 17.5063 28.4855 17.5057C28.4857 17.5052 28.4858 17.5046 28.4858 17.504V13.6714C28.4858 13.6702 28.4853 13.6691 28.4845 13.6682C28.4837 13.6674 28.4825 13.667 28.4814 13.667ZM20.9852 13.9436C19.6513 13.9436 18.5699 12.7561 18.5699 11.2908C18.5699 9.82553 19.6513 8.63798 20.9852 8.63798C22.3191 8.63798 23.4003 9.82575 23.4003 11.2908C23.4003 12.7559 22.3191 13.9436 20.9852 13.9436Z" fill="white"/>
</g>
<defs>
<clipPath id="clip0">
<rect width="100" height="23.5044" fill="white"/>
</clipPath>
</defs>
</svg>
