<svg width="100" height="19" viewBox="0 0 100 19" fill="none" xmlns="http://www.w3.org/2000/svg">
<path d="M8.47087 13.4186V9.90234H5.54297V17.693C6.47382 18.0836 7.46353 18.3153 8.47095 18.3784L8.47087 13.4186Z" fill="white"/>
<path d="M0 9.90234C0.0938916 11.3656 0.540532 12.7843 1.30173 14.0372C2.06292 15.2901 3.11602 16.3398 4.37097 17.0967V9.90234H0Z" fill="white"/>
<path d="M8.47034 6.09438V0.255859C6.27059 0.398223 4.19783 1.33684 2.63911 2.89643C1.0804 4.45602 0.142302 6.52995 0 8.73096H8.47034V6.09438Z" fill="white"/>
<path d="M9.64062 18.3784C10.9844 18.2923 12.292 17.9077 13.4686 17.2525C14.6451 16.5973 15.661 15.6881 16.4424 14.5908H9.64062V18.3784Z" fill="white"/>
<path d="M16.9984 4.92188C16.2617 3.58906 15.2016 2.46312 13.9158 1.64772C12.63 0.83232 11.1598 0.353677 9.64062 0.255859V4.92188H16.9984Z" fill="white"/>
<path d="M9.64062 8.73089V13.4185H17.1525C17.7227 12.2918 18.0518 11.0585 18.1188 9.79739C18.1858 8.53626 17.9891 7.27502 17.5414 6.09424H9.64062V8.73089Z" fill="white"/>
<path d="M25.432 3.31152V6.83339H25.4047C25.1911 6.49295 24.8828 6.22228 24.5177 6.05457C24.1475 5.87927 23.7429 5.78898 23.3333 5.79031C22.8862 5.7784 22.4426 5.8729 22.0391 6.06602C21.6356 6.25915 21.2837 6.54538 21.0123 6.90118C20.7481 7.24797 20.5505 7.64079 20.4295 8.05971C20.2985 8.50151 20.2324 8.96004 20.2334 9.42087C20.2319 9.89745 20.2979 10.3718 20.4295 10.8298C20.5506 11.2611 20.748 11.6672 21.0123 12.0287C21.2701 12.3773 21.6062 12.6604 21.9934 12.8552C22.4227 13.0656 22.8961 13.1702 23.374 13.16C23.8001 13.1669 24.2226 13.0813 24.6124 12.909C24.9862 12.7351 25.2962 12.4486 25.4991 12.0896H25.5264V12.9838H27.3538V3.31152H25.432ZM25.4186 10.3014C25.3704 10.5567 25.2788 10.8019 25.1477 11.0262C25.0242 11.2357 24.8494 11.4104 24.6399 11.5339C24.3981 11.668 24.1244 11.7338 23.8481 11.724C23.5797 11.7317 23.3146 11.6637 23.0829 11.5278C22.8713 11.3972 22.691 11.2214 22.5551 11.013C22.4116 10.7914 22.3086 10.546 22.251 10.2882C22.1879 10.0218 22.1561 9.74886 22.1561 9.47502C22.1552 9.19503 22.1846 8.91577 22.2437 8.64209C22.2966 8.39021 22.3931 8.14952 22.5287 7.93084C22.6588 7.72362 22.8378 7.55155 23.05 7.42978C23.2944 7.29631 23.57 7.23075 23.8483 7.2399C24.1226 7.2297 24.3944 7.2954 24.6338 7.42978C24.8383 7.55392 25.0118 7.72297 25.1413 7.92413C25.2768 8.1396 25.3709 8.37849 25.4187 8.62853C25.4732 8.90289 25.5005 9.18198 25.5001 9.46172C25.5004 9.7436 25.4731 10.0248 25.4186 10.3014Z" fill="white"/>
<path d="M31.1915 15.0696C30.7235 15.3387 30.1875 15.4658 29.6487 15.4356C29.4493 15.4356 29.2534 15.4286 29.0591 15.4152C28.8658 15.4014 28.6692 15.3854 28.4705 15.3679V13.7826C28.6511 13.8009 28.8361 13.8191 29.0256 13.8372C29.2146 13.855 29.4046 13.8595 29.5942 13.8507C29.704 13.8455 29.8114 13.8161 29.9085 13.7646C30.0057 13.713 30.0902 13.6406 30.1562 13.5526C30.2758 13.3871 30.3397 13.1878 30.3387 12.9836C30.3395 12.8353 30.312 12.6881 30.2576 12.5502L27.8075 5.97998H29.8512L31.4358 10.7756H31.4627L32.9915 5.97998H34.9818L32.0577 13.8508C31.9084 14.3402 31.6044 14.7679 31.1915 15.0696Z" fill="white"/>
<path d="M37.2566 5.98044V6.95596H37.2973C37.4117 6.76171 37.553 6.58457 37.7168 6.42976C37.8729 6.28268 38.051 6.16091 38.2446 6.06886C38.4329 5.97822 38.6305 5.90837 38.8339 5.86053C39.0312 5.81403 39.2332 5.79076 39.4359 5.79118C39.671 5.78914 39.9059 5.80662 40.1381 5.84345C40.3316 5.87371 40.5208 5.92662 40.702 6.00108C40.8587 6.0664 41.0069 6.15055 41.1434 6.25168C41.2704 6.34599 41.3837 6.45764 41.4799 6.58336C41.5769 6.71097 41.6583 6.84975 41.7223 6.99672C41.7911 7.15584 41.8438 7.32151 41.8794 7.49121C41.9192 7.67715 41.9479 7.86529 41.9654 8.05465C41.9847 8.25223 41.9945 8.45933 41.9948 8.67593V12.9833H40.0724V9.028C40.0757 8.77413 40.0529 8.52059 40.0044 8.27137C39.9692 8.0817 39.9004 7.89986 39.8012 7.73447C39.7112 7.59237 39.5804 7.48082 39.4259 7.41448C39.2401 7.33886 39.0406 7.30266 38.8401 7.30817C38.6093 7.30248 38.3795 7.34218 38.164 7.42504C37.9812 7.49714 37.8218 7.61828 37.7033 7.77513C37.5732 7.96056 37.4833 8.17123 37.4396 8.39355C37.3761 8.6958 37.3466 9.00418 37.3516 9.31298V12.9834H35.429V5.98044H37.2567H37.2566Z" fill="white"/>
<path d="M49.1517 12.3335C49.1151 12.0324 49.097 11.7293 49.0977 11.426V7.78231C49.1156 7.41967 49.0159 7.06094 48.8133 6.75966C48.6231 6.50158 48.3722 6.29449 48.0827 6.15678C47.7706 6.00803 47.4368 5.90975 47.0939 5.86558C46.7396 5.81653 46.3824 5.79161 46.0248 5.79102C45.6362 5.7913 45.2485 5.8298 44.8674 5.90595C44.503 5.97583 44.1529 6.10641 43.8317 6.29224C43.5275 6.47025 43.2683 6.71594 43.0742 7.01028C42.8629 7.34805 42.7457 7.73625 42.735 8.13459H44.6574C44.6595 7.97998 44.6944 7.82759 44.7598 7.68748C44.8251 7.54737 44.9194 7.42273 45.0365 7.32182C45.3002 7.14544 45.6142 7.05989 45.9308 7.07814C46.0915 7.07741 46.252 7.08865 46.411 7.11175C46.5494 7.13073 46.6826 7.17682 46.8032 7.2474C46.9173 7.31626 47.0108 7.41449 47.074 7.53185C47.149 7.68547 47.1839 7.85558 47.1755 8.02633C47.1854 8.11052 47.1746 8.19588 47.144 8.27495C47.1134 8.35401 47.064 8.42438 46.9999 8.47989C46.8479 8.59613 46.6719 8.67707 46.4847 8.71687C46.2402 8.77597 45.9916 8.81671 45.741 8.83873C45.4606 8.86618 45.1762 8.90237 44.8878 8.94732C44.5982 8.99281 44.3112 9.05382 44.0281 9.13007C43.7576 9.20099 43.5012 9.3178 43.2702 9.47541C43.0436 9.63544 42.858 9.84678 42.7286 10.0922C42.5781 10.397 42.506 10.7345 42.5188 11.0743C42.5107 11.3954 42.5731 11.7144 42.7016 12.0087C42.8171 12.2627 42.9913 12.4856 43.2099 12.6588C43.4343 12.8345 43.6917 12.9635 43.9667 13.0382C44.2715 13.1213 44.5861 13.1623 44.902 13.1601C45.3331 13.1602 45.7617 13.0962 46.1739 12.9702C46.5861 12.8458 46.9593 12.6172 47.2576 12.3067C47.2659 12.4227 47.2816 12.5382 47.3045 12.6522C47.3266 12.7646 47.3559 12.8754 47.3921 12.984H49.342C49.234 12.7828 49.1692 12.5612 49.1517 12.3335ZM47.1757 10.2742C47.1728 10.4193 47.1614 10.5642 47.1416 10.708C47.1168 10.8967 47.0547 11.0786 46.9587 11.2429C46.8474 11.4315 46.6889 11.5879 46.4989 11.6966C46.2279 11.8381 45.9236 11.9037 45.6184 11.8863C45.4687 11.8869 45.3192 11.8734 45.172 11.846C45.0379 11.8226 44.9093 11.7743 44.7929 11.7037C44.6843 11.6357 44.5957 11.5399 44.5364 11.4262C44.469 11.2919 44.4364 11.1428 44.4415 10.9926C44.4354 10.838 44.468 10.6843 44.5364 10.5456C44.5968 10.431 44.6821 10.3315 44.7861 10.2544C44.8974 10.1741 45.0211 10.1124 45.1522 10.0717C45.2919 10.0264 45.4343 9.99005 45.5786 9.96286C45.7318 9.93598 45.8855 9.91369 46.0384 9.89558C46.1921 9.87733 46.3388 9.85466 46.4786 9.82758C46.6116 9.8024 46.7427 9.76849 46.8712 9.72606C46.9832 9.6909 47.0868 9.6333 47.1758 9.55677L47.1757 10.2742Z" fill="white"/>
<path d="M51.6022 5.9806V6.92899H51.6291C51.7506 6.75387 51.8909 6.59257 52.0475 6.44799C52.1976 6.30896 52.3638 6.18835 52.5426 6.08874C52.723 5.98888 52.916 5.91384 53.1165 5.86564C53.3299 5.81467 53.5487 5.78964 53.7681 5.79107C53.9814 5.79024 54.1942 5.81181 54.403 5.85545C54.6018 5.89731 54.795 5.96207 54.9788 6.04842C55.1616 6.13384 55.3256 6.2547 55.4614 6.404C55.6082 6.56715 55.7266 6.7538 55.8117 6.95615C55.9187 6.79925 56.0418 6.65394 56.1789 6.52256C56.3269 6.38186 56.4874 6.25496 56.6584 6.14344C56.838 6.02532 57.035 5.93615 57.2423 5.8792C57.4644 5.81897 57.6937 5.78937 57.9238 5.79122C58.1027 5.79068 58.2815 5.80199 58.4589 5.82506C58.6259 5.84677 58.791 5.88076 58.9529 5.92675C59.1054 5.96967 59.2528 6.02873 59.3928 6.10293C59.5264 6.1741 59.6514 6.26032 59.7654 6.3599C59.8798 6.46134 59.9808 6.57686 60.0662 6.70369C60.1577 6.84002 60.2339 6.98599 60.2936 7.13897C60.3596 7.31 60.407 7.48763 60.435 7.6688C60.4678 7.87659 60.4837 8.08669 60.4826 8.29705V12.9834H58.5603V9.01471C58.5603 8.89741 58.558 8.78339 58.5534 8.67265C58.5488 8.56231 58.5419 8.45468 58.5326 8.3509C58.5249 8.25261 58.5081 8.15523 58.4826 8.05998C58.4592 7.97315 58.4264 7.88912 58.3847 7.80938C58.3203 7.68851 58.2295 7.58372 58.119 7.50277C58.0085 7.42183 57.8813 7.36681 57.7466 7.3418C57.6267 7.31823 57.5047 7.30697 57.3825 7.30819C57.259 7.30681 57.1357 7.3199 57.0152 7.34719C56.9131 7.37015 56.8155 7.40955 56.726 7.46384C56.6445 7.51431 56.5695 7.57464 56.5028 7.64346C56.437 7.71163 56.3801 7.78781 56.3333 7.8702C56.2854 7.95543 56.2457 8.04504 56.2147 8.13781C56.1825 8.23603 56.1589 8.33685 56.144 8.43914C56.1278 8.5454 56.1158 8.65211 56.1079 8.75928C56.1002 8.86672 56.0969 8.97431 56.0969 9.08271V12.9834H54.1745V9.05507C54.1745 8.95166 54.173 8.8481 54.1709 8.74546C54.1687 8.64281 54.1659 8.54039 54.1612 8.43895C54.1568 8.34055 54.1449 8.24263 54.1255 8.14605C54.1067 8.05427 54.0801 7.96426 54.046 7.87702C54.0133 7.7929 53.9674 7.71454 53.91 7.64489C53.8522 7.5747 53.784 7.51366 53.7079 7.46384C53.6179 7.40785 53.5187 7.36835 53.4148 7.34719C53.2818 7.31948 53.1462 7.3064 53.0103 7.30819C52.9576 7.30895 52.9051 7.31395 52.8532 7.32314C52.7937 7.33374 52.7264 7.3488 52.6519 7.36908C52.5755 7.38997 52.5016 7.41949 52.4318 7.45706C52.3563 7.49746 52.2849 7.54508 52.2186 7.59926C52.145 7.65945 52.0795 7.72895 52.0238 7.80601C51.9599 7.8938 51.9051 7.98787 51.8602 8.08678C51.8066 8.20375 51.769 8.32743 51.7484 8.45446C51.7221 8.60823 51.7094 8.76402 51.7103 8.92002V12.9834H49.7882V5.9806H51.6022Z" fill="white"/>
<path d="M63.0236 3.31152H61.1014V4.89697H63.0236V3.31152Z" fill="white"/>
<path d="M63.0237 5.97949H61.1016V12.9834H63.0237V5.97949Z" fill="white"/>
<path d="M67.199 7.24024C66.9262 7.23068 66.6569 7.30398 66.4265 7.45048C66.2192 7.59067 66.0459 7.77562 65.9194 7.9917C65.7869 8.21842 65.6931 8.46572 65.6421 8.72337C65.5892 8.98433 65.562 9.24985 65.561 9.51611C65.562 9.77559 65.5892 10.0343 65.6421 10.2883C65.6918 10.5379 65.7808 10.7779 65.9059 10.9995C66.0266 11.2104 66.1962 11.3892 66.4003 11.5209C66.6274 11.6618 66.8911 11.7326 67.1582 11.7245C67.3524 11.7369 67.5472 11.7091 67.7301 11.6426C67.913 11.5761 68.0802 11.4725 68.2212 11.3382C68.4826 11.051 68.6461 10.6882 68.6883 10.3021H70.5431C70.4721 11.1249 70.0835 11.8877 69.4597 12.4286C68.8075 12.9352 67.9971 13.1943 67.1721 13.1601C66.6789 13.1657 66.1892 13.076 65.7299 12.8961C65.3098 12.7313 64.9291 12.4797 64.6128 12.1578C64.3004 11.8326 64.0564 11.4479 63.8955 11.0266C63.72 10.5661 63.6327 10.0767 63.6382 9.58397C63.6338 9.07097 63.7139 8.56076 63.8752 8.07378C64.0218 7.62798 64.2592 7.21745 64.5724 6.86817C64.8851 6.52539 65.2687 6.25493 65.6965 6.07561C66.177 5.87849 66.6927 5.78169 67.212 5.79116C67.6172 5.78957 68.0206 5.84437 68.4106 5.95397C68.7805 6.05562 69.1291 6.22305 69.4398 6.44826C69.7581 6.67738 70.0195 6.97672 70.2037 7.32312C70.3879 7.66951 70.4899 8.05367 70.5019 8.44585H68.6204C68.4944 7.64235 68.0206 7.24048 67.199 7.24024Z" fill="white"/>
<path d="M76.2097 15.0698C75.7417 15.3386 75.2057 15.4657 74.6669 15.4356C74.4683 15.4356 74.2717 15.4287 74.0781 15.4152C73.8833 15.4014 73.6871 15.3857 73.4895 15.3682V13.7826C73.6693 13.8009 73.8539 13.8191 74.0435 13.8372C74.2326 13.8551 74.4227 13.8596 74.6124 13.8507C74.7222 13.8455 74.8295 13.8162 74.9266 13.7647C75.0237 13.7131 75.1082 13.6408 75.174 13.5527C75.2937 13.3872 75.3577 13.1879 75.3569 12.9836C75.3579 12.8352 75.3302 12.688 75.2755 12.5501L72.825 5.97949H74.8698L76.4536 10.7752H76.4805L78.011 5.97949H80.0012L77.0767 13.8507C76.9267 14.34 76.6226 14.7677 76.2097 15.0698Z" fill="white"/>
<path d="M82.3947 3.31152H80.4724V4.89697H82.3947V3.31152Z" fill="white"/>
<path d="M82.3947 5.97949H80.4724V12.9829H82.3947V5.97949Z" fill="white"/>
<path d="M89.666 8.3915C89.5478 7.91333 89.3384 7.4625 89.0494 7.06379C88.7633 6.67402 88.3903 6.35637 87.96 6.13606C87.4768 5.89632 86.9426 5.77773 86.4034 5.79048C85.9039 5.78405 85.4084 5.88089 84.948 6.07494C84.5207 6.25515 84.1351 6.52125 83.8148 6.85676C83.4946 7.19227 83.2467 7.59002 83.0864 8.02536C82.9122 8.49323 82.8251 8.98909 82.8294 9.48839C82.8237 9.99606 82.9084 10.5007 83.0795 10.9787C83.2353 11.4111 83.4771 11.8074 83.7903 12.1437C84.105 12.4741 84.4889 12.7307 84.9143 12.8953C85.3892 13.0773 85.8944 13.1672 86.4028 13.16C87.1182 13.1815 87.8242 12.9929 88.4338 12.6176C89.047 12.1816 89.4879 11.5441 89.6795 10.8161H87.9868C87.8904 11.0742 87.709 11.2916 87.4724 11.4325C87.1295 11.6432 86.7304 11.7439 86.3286 11.7208C85.9269 11.6978 85.5418 11.5523 85.2252 11.3037C84.9001 10.9294 84.7306 10.4447 84.7515 9.94915H89.8007C89.8387 9.42607 89.7932 8.90027 89.666 8.3915ZM84.752 8.73011C84.7644 8.57388 84.7938 8.41946 84.8396 8.2696C84.8926 8.09173 84.9801 7.92605 85.097 7.78199C85.2298 7.6198 85.396 7.48806 85.5841 7.39569C85.8233 7.28403 86.0855 7.23061 86.3493 7.2398C86.541 7.2246 86.7338 7.25059 86.9146 7.31602C87.0955 7.38145 87.2603 7.48481 87.398 7.61918C87.6576 7.93801 87.824 8.32246 87.8789 8.73003L84.752 8.73011Z" fill="white"/>
<path d="M92.2646 3.31152H90.3425V12.9834H92.2646V3.31152Z" fill="white"/>
<path d="M98.0777 3.31152V6.83351H98.0505C97.8369 6.49314 97.5287 6.22244 97.1638 6.05455C96.7934 5.87951 96.3887 5.78924 95.9791 5.79029C95.5319 5.77843 95.0883 5.87295 94.6848 6.06606C94.2812 6.25918 93.9292 6.54539 93.6577 6.90115C93.3941 7.24818 93.1968 7.64094 93.0757 8.05968C92.9446 8.50147 92.8784 8.95998 92.879 9.42083C92.8778 9.89742 92.944 10.3718 93.0757 10.8298C93.1964 11.261 93.3935 11.667 93.6577 12.0284C93.9156 12.3771 94.2518 12.6602 94.6392 12.855C95.0685 13.0653 95.5419 13.1699 96.0198 13.16C96.4462 13.1668 96.869 13.0811 97.2591 12.9088C97.6326 12.7345 97.9426 12.4481 98.1458 12.0893H98.1726V12.9836H100V3.31152H98.0777ZM98.0647 10.3013C98.0162 10.5566 97.9244 10.8016 97.7931 11.0257C97.6699 11.2353 97.4954 11.4102 97.2861 11.5338C97.0443 11.6681 96.7704 11.7338 96.494 11.7239C96.2256 11.7316 95.9604 11.6636 95.7288 11.5277C95.5172 11.3969 95.337 11.2211 95.2012 11.0126C95.0572 10.7912 94.9539 10.5459 94.8962 10.2882C94.8339 10.0216 94.8021 9.74877 94.8017 9.47498C94.8008 9.19499 94.8302 8.91573 94.8893 8.64206C94.9423 8.39035 95.0385 8.14972 95.1735 7.93081C95.304 7.72368 95.4831 7.55161 95.6952 7.42956C95.9398 7.29621 96.2156 7.23066 96.494 7.23969C96.7682 7.2296 97.0398 7.29529 97.2792 7.42956C97.484 7.55338 97.6577 7.72249 97.7871 7.92392C97.9225 8.13946 98.0166 8.37831 98.0648 8.62831C98.1194 8.90266 98.1465 9.18176 98.1459 9.46149C98.1465 9.74343 98.1193 10.0247 98.0647 10.3013Z" fill="white"/>
</svg>
