<svg width="100" height="14" viewBox="0 0 100 14" fill="none" xmlns="http://www.w3.org/2000/svg">
<g clip-path="url(#clip0)">
<path fill-rule="evenodd" clip-rule="evenodd" d="M46.8915 0.427456C46.2132 0.309277 45.5257 0.252294 44.8372 0.257197C43.4676 0.255603 42.098 0.255434 40.7283 0.256689H40.5021C40.4909 0.276962 40.4822 0.298578 40.4763 0.321026C40.4745 4.31884 40.4733 8.31669 40.4727 12.3146C40.4727 12.3736 40.4758 12.4327 40.4779 12.4917C40.4782 12.4991 40.4803 12.5062 40.484 12.5126C40.4951 12.5253 40.5071 12.5371 40.5199 12.548H40.7385C42.0341 12.548 43.3298 12.5504 44.6255 12.547C45.2547 12.5454 45.883 12.5228 46.5068 12.429C47.0502 12.3475 47.5827 12.2228 48.0853 11.9991C49.5783 11.3344 50.652 10.2425 51.301 8.74963C51.8611 7.46153 51.9109 6.1239 51.5635 4.77226C51.0748 2.87082 49.562 0.91429 46.8915 0.427456ZM49.2345 8.88319C49.004 9.2639 48.715 9.60595 48.3781 9.89678C47.8812 10.3315 47.2961 10.5839 46.6619 10.7363C46.0034 10.8946 45.3324 10.9472 44.6582 10.9546C43.8956 10.9628 43.1331 10.9567 42.3704 10.9564C42.3345 10.9564 42.2986 10.9528 42.2341 10.9495V1.84583C42.2936 1.84057 42.3294 1.83452 42.365 1.8347C43.431 1.84075 44.4973 1.83391 45.5629 1.85847C46.3209 1.87731 47.0632 2.07952 47.726 2.44778C48.844 3.05862 49.5459 3.99493 49.8217 5.22968C50.1093 6.51746 49.9166 7.74434 49.2345 8.88319Z" fill="white"/>
<path fill-rule="evenodd" clip-rule="evenodd" d="M69.2329 6.56273C69.2314 6.55563 69.2282 6.54898 69.2237 6.54332C69.2198 6.53694 69.2153 6.53107 69.2111 6.52499C69.0199 6.49789 65.32 6.49963 65.1148 6.5298C65.1133 6.69434 65.1112 6.86264 65.1105 7.03084C65.1097 7.2011 65.1083 7.37136 65.1108 7.54162C65.1133 7.70909 65.0992 7.87775 65.1221 8.06156H65.3564C65.9858 8.06156 66.6151 8.06186 67.2444 8.06246C67.3152 8.06246 67.3915 8.04189 67.4537 8.08732C67.4804 8.37194 67.4738 10.4337 67.4439 10.6113C67.2396 10.6756 67.0292 10.7435 66.8176 10.8082C66.3078 10.9639 65.7908 11.0944 65.2577 11.1298C64.5371 11.1777 63.8225 11.1262 63.1284 10.9106C61.8977 10.5285 60.9549 9.79013 60.3683 8.63062C59.896 7.69713 59.7693 6.70343 59.9112 5.67394C60.082 4.43416 60.6683 3.4275 61.6586 2.66571C62.4798 2.03401 63.4169 1.70704 64.4533 1.67147C65.2141 1.64531 65.9567 1.76181 66.6875 1.96551C67.3993 2.16631 68.0857 2.44812 68.7332 2.8054C68.8076 2.84608 68.8755 2.90853 68.9752 2.90813V1.14142C68.9136 1.11215 68.8556 1.08045 68.7947 1.05654C68.444 0.918885 68.0944 0.778801 67.7413 0.6481C66.8388 0.312826 65.8882 0.125211 64.926 0.0924748C64.2303 0.0663601 63.5343 0.136541 62.8577 0.301025C61.8419 0.549857 60.9272 1.00278 60.1474 1.70356C58.8269 2.89002 58.1411 4.38808 58.02 6.14842C57.9724 6.874 58.0593 7.60213 58.2765 8.29608C58.7919 9.97361 59.8204 11.2235 61.4018 12.0008C62.27 12.4275 63.1989 12.6285 64.1592 12.6846C64.7433 12.7205 65.3294 12.7046 65.9107 12.6372C66.5568 12.5619 67.1946 12.4269 67.8159 12.2341C68.3014 12.0833 68.7765 11.9006 69.2379 11.6871C69.2379 10.0337 69.2379 8.39784 69.2377 6.76208C69.2377 6.69582 69.235 6.62924 69.2329 6.56273Z" fill="white"/>
<path fill-rule="evenodd" clip-rule="evenodd" d="M76.965 0.20989C76.9614 0.203507 76.9564 0.198066 76.9503 0.194023C76.945 0.190665 76.9395 0.187826 76.9337 0.185547H75.7056C73.9547 4.28998 72.2055 8.39078 70.4582 12.488C70.4571 12.495 70.4582 12.5021 70.4613 12.5085C70.4641 12.5153 70.4673 12.522 70.4709 12.5284C70.7604 12.5581 72.0853 12.5489 72.2513 12.5135C72.7627 11.3197 73.2771 10.1193 73.7888 8.92522H79.0061C79.2798 9.52931 79.5498 10.1286 79.8229 10.7265C80.0984 11.3297 80.3621 11.9385 80.6479 12.5354H82.4502C80.6865 8.56662 78.9372 4.62972 77.1874 0.692956C77.1151 0.530956 77.0393 0.370731 76.965 0.20989ZM78.1953 7.13601C78.2189 7.18908 78.2389 7.24356 78.2614 7.29902C78.0885 7.32931 74.733 7.33434 74.5099 7.30627C74.5459 7.1417 76.1069 3.33321 76.2922 2.95922C76.3764 2.98374 76.3817 3.06587 76.409 3.1268C76.7051 3.78755 76.9999 4.4489 77.2934 5.11086C77.5942 5.78593 77.8948 6.46098 78.1953 7.13601Z" fill="white"/>
<path fill-rule="evenodd" clip-rule="evenodd" d="M80.965 0.275156C80.9386 0.444944 80.9324 1.49957 80.9591 1.80869H82.3661C82.825 1.80869 83.2839 1.80869 83.743 1.80869C84.2073 1.80905 84.6717 1.80702 85.1528 1.81014C85.1595 2.07882 85.1554 2.32863 85.156 2.57811C85.1568 2.83723 85.156 3.09614 85.156 3.35537V10.9947C85.156 11.2537 85.1532 11.5127 85.1568 11.7719C85.1603 12.0208 85.1405 12.2707 85.1706 12.5235C85.202 12.5321 85.2342 12.538 85.2667 12.5413C85.7848 12.5422 86.3029 12.542 86.8211 12.5406C86.8586 12.535 86.8951 12.5248 86.9301 12.5102V4.4865C86.9301 4.04238 86.9301 3.59823 86.9301 3.15406C86.9307 2.71211 86.9273 2.27016 86.9326 1.8089C87.1867 1.8089 87.4219 1.80869 87.6571 1.80869C87.8939 1.80869 88.1307 1.80869 88.3676 1.80869H89.7889C90.0257 1.80869 90.2626 1.81082 90.4994 1.80807C90.734 1.80532 90.9693 1.82075 91.2008 1.79883C91.2362 1.54888 91.2298 0.419695 91.1943 0.265447C90.8968 0.239437 81.1294 0.248711 80.965 0.275156Z" fill="white"/>
<path fill-rule="evenodd" clip-rule="evenodd" d="M55.7318 0.283158C55.7268 0.277711 55.7213 0.27275 55.7153 0.268342C55.3457 0.238963 54.1592 0.249541 53.9955 0.283738C53.9886 0.296258 53.9838 0.309831 53.9813 0.323911C53.9798 4.31986 53.9788 8.31587 53.9783 12.3119C53.9783 12.3709 53.9811 12.4299 53.983 12.4891C53.983 12.4965 53.9847 12.5038 53.9881 12.5104C53.9929 12.5167 53.9986 12.5222 54.005 12.5269C54.189 12.5559 55.5329 12.5559 55.7232 12.5269C55.7316 12.5154 55.7378 12.5026 55.7417 12.4889C55.7453 12.4374 55.7466 12.3858 55.7466 12.334C55.7448 8.32339 55.7428 4.31269 55.7406 0.301959C55.7396 0.294949 55.7365 0.288396 55.7318 0.283158Z" fill="white"/>
<path fill-rule="evenodd" clip-rule="evenodd" d="M4.04712 4.46067C4.19666 4.65705 4.9371 5.38963 5.09592 5.49219C5.14424 5.43455 5.1922 5.36775 5.24955 5.3103C6.34749 4.21047 7.44609 3.11126 8.54534 2.01266C8.99616 1.56166 9.53715 1.37147 10.1637 1.49826C10.8694 1.6411 11.3453 2.06943 11.5382 2.76405C11.7205 3.42035 11.5554 4.00745 11.0808 4.50109C10.9423 4.64505 10.7982 4.78365 10.6577 4.92573C10.6234 4.9604 10.5929 4.9988 10.5687 5.02633C10.9092 5.36685 11.2382 5.69614 11.5898 6.04788C11.7551 5.88258 11.9213 5.71636 12.0884 5.54924C12.7568 4.88122 13.0791 4.07484 13.0552 3.13011C13.0378 2.45867 12.8441 1.84733 12.4279 1.31804C11.6048 0.271379 10.5305 -0.150502 9.21565 0.0696396C8.54494 0.181938 7.98305 0.510756 7.50534 0.989548C6.38675 2.11056 5.26798 3.23139 4.14902 4.35206C4.11341 4.38782 4.08012 4.42546 4.04712 4.46067Z" fill="white"/>
<path fill-rule="evenodd" clip-rule="evenodd" d="M0.897795 5.47923C1.50776 6.0617 2.09769 6.66514 2.69516 7.26069C3.2402 7.80407 3.78461 8.34808 4.32838 8.89272C4.37304 8.93724 4.42372 8.97578 4.45785 9.00523C4.80148 8.66178 5.13045 8.333 5.47484 7.98871C5.41565 7.92865 5.35921 7.87051 5.30197 7.81334C4.22405 6.73528 3.14609 5.65727 2.06809 4.57932C2.021 4.53223 1.97115 4.48745 1.92768 4.43728C1.44951 3.8852 1.31305 3.25427 1.58253 2.57834C2.06117 1.3779 3.58608 1.07915 4.47868 1.96613C4.62564 2.11219 4.77091 2.25999 4.9186 2.40529C4.95441 2.43744 4.99189 2.46767 5.0309 2.49585C5.26774 2.30067 5.94573 1.61079 6.0405 1.46593C5.83789 1.26614 5.64017 1.05582 5.42652 0.863281C4.6146 0.131817 3.66596 -0.14567 2.59398 0.0724434C1.47631 0.299722 0.697577 0.96301 0.247114 2.00543C0.0284526 2.51069 -0.0477414 3.06616 0.0267912 3.61163C0.118876 4.32726 0.35992 4.96563 0.897795 5.47923Z" fill="white"/>
<path fill-rule="evenodd" clip-rule="evenodd" d="M12.1727 7.60352C11.9843 7.42601 11.8106 7.23333 11.6274 7.05043C10.6686 6.09407 9.70925 5.13831 8.7493 4.18315C8.70308 4.13703 8.65254 4.09526 8.59183 4.04053C8.4696 4.16061 8.3543 4.27302 8.2399 4.38634C8.12952 4.49574 8.01701 4.60322 7.91097 4.71668C7.80255 4.8326 7.66794 4.92653 7.57622 5.08563C7.64291 5.14442 7.70706 5.19518 7.76459 5.25259C8.88516 6.37177 10.0056 7.49096 11.126 8.61018C11.2984 8.78361 11.4282 8.99458 11.5054 9.22656C11.5868 9.47305 11.6172 9.7335 11.5948 9.99211C11.536 10.9242 10.6138 11.8235 9.42255 11.5548C9.09653 11.4783 8.79867 11.3114 8.5631 11.0734C8.39382 10.9084 8.22824 10.7396 8.04736 10.559L7.03284 11.572C7.30243 11.8484 7.54575 12.107 7.79973 12.3548C7.96717 12.5125 8.16048 12.6404 8.37122 12.7327C9.01291 13.0271 9.68257 13.1303 10.3815 13.0094C11.2553 12.8583 11.9527 12.4167 12.4637 11.6972C13.062 10.8547 13.192 9.92158 12.9401 8.92882C12.8183 8.42196 12.5516 7.96148 12.1727 7.60352Z" fill="white"/>
<path fill-rule="evenodd" clip-rule="evenodd" d="M8.91777 8.71811C8.95301 8.68286 8.9841 8.64352 9.00739 8.61715C8.66278 8.27301 8.32881 7.93934 7.98703 7.5981C7.94214 7.64204 7.88404 7.69808 7.82695 7.75517C6.74857 8.83335 5.67026 9.91166 4.59202 10.9901C4.54493 11.0372 4.49954 11.0862 4.45002 11.1307C3.98865 11.5448 3.44838 11.7063 2.84628 11.5665C2.19343 11.4149 1.73862 11.0098 1.53927 10.3633C1.33496 9.70075 1.48768 9.10651 1.95981 8.59835C2.09573 8.45211 2.24237 8.31579 2.38314 8.17386C2.41864 8.13796 2.44939 8.09721 2.46975 8.07344C2.12797 7.73159 1.79404 7.39763 1.45501 7.05859C1.43965 7.06446 1.4254 7.0729 1.41288 7.08355C1.21954 7.27747 1.01653 7.46305 0.836603 7.66888C0.0873892 8.52604 -0.157821 9.51524 0.100756 10.623C0.391356 11.8685 1.57042 13.0165 3.0774 13.0596C4.01469 13.0862 4.82709 12.7986 5.49313 12.1402C6.64064 11.0055 7.77707 9.85971 8.91777 8.71811Z" fill="white"/>
<path fill-rule="evenodd" clip-rule="evenodd" d="M28.4232 0.289028C28.4199 0.283051 28.4132 0.279029 28.3985 0.265336H26.7919C26.4505 0.687797 26.1103 1.10878 25.7715 1.5283C24.8294 2.69534 23.8869 3.86213 22.9442 5.02869L22.7203 5.28864C22.7203 5.28864 19.9909 1.91816 18.6453 0.259033C18.1025 0.259033 17.577 0.259033 17.0515 0.259758C17.0385 0.259758 17.0255 0.270625 17.0124 0.276385C16.9823 0.457331 16.9807 12.3361 17.0108 12.5242C17.1964 12.5583 18.5623 12.5568 18.7483 12.5186V4.61894C18.7483 4.35982 18.7451 4.10067 18.7493 3.84158C18.7535 3.58076 18.7315 3.31849 18.7674 3.00967C20.0574 4.61083 21.3117 6.18077 22.5672 7.7377H22.8885C22.9397 7.67611 22.9833 7.62605 23.0246 7.57414C23.6193 6.82722 24.2138 6.08013 24.8082 5.33287C25.3841 4.60885 25.9603 3.88505 26.5368 3.16149C26.569 3.12131 26.5861 3.04893 26.6634 3.06632C26.6667 3.07413 26.6696 3.08213 26.672 3.09027C26.6733 3.09754 26.6741 3.1049 26.6742 3.11229C26.6747 3.11954 26.6747 3.12714 26.6747 3.1345C26.6747 6.20692 26.6748 9.27931 26.675 12.3517C26.675 12.3665 26.675 12.3813 26.675 12.396C26.675 12.4107 26.675 12.4257 26.6753 12.4405C26.6753 12.4479 26.6757 12.4553 26.6762 12.4627C26.6763 12.47 26.6771 12.4773 26.6784 12.4845C26.6801 12.4917 26.6825 12.4987 26.6856 12.5054C26.6885 12.5118 26.6923 12.5179 26.6958 12.5241C26.8824 12.5583 28.2479 12.5567 28.4155 12.5221C28.4226 12.5092 28.4277 12.4953 28.4306 12.4808C28.433 12.4292 28.4332 12.3773 28.4332 12.3255C28.4316 8.32036 28.4298 4.3153 28.428 0.310292C28.4281 0.302925 28.4265 0.295635 28.4232 0.289028Z" fill="white"/>
<path fill-rule="evenodd" clip-rule="evenodd" d="M33.5293 10.9558C33.31 10.9522 33.0897 10.9724 32.8722 10.9428C32.8463 10.705 32.8509 7.33784 32.8787 7.1453C33.2073 7.14167 33.5386 7.14439 33.8699 7.14338C34.2032 7.14247 34.5364 7.14338 34.8695 7.14338H35.8691C36.2024 7.14338 36.5357 7.1453 36.8687 7.14247C37.1991 7.14062 37.5295 7.1545 37.8683 7.13327V5.57558C37.7813 5.57275 37.7016 5.56906 37.6212 5.56906L33.1119 5.57232H32.8566V5.33493C32.8566 5.33276 32.8566 5.33062 32.8566 5.32845C32.8566 5.28647 32.8566 5.2445 32.8566 5.20253V5.15004C32.8574 4.0618 32.8586 2.97357 32.8602 1.88533C32.8602 1.87888 32.8658 1.8724 32.8695 1.86591C32.8767 1.85486 32.8847 1.84435 32.8935 1.83447H33.124C34.6863 1.83447 36.2486 1.83385 37.8109 1.83262C37.8154 1.83262 37.8194 1.83186 37.8237 1.83168H38.0479V0.257324H37.7027C35.5417 0.258242 33.3805 0.25945 31.2188 0.260947H31.0831V0.443994C31.0841 4.376 31.0856 8.30766 31.0877 12.239L31.0831 12.5478H31.2102H31.3276C33.5415 12.5478 35.7554 12.5475 37.9693 12.5468C37.9719 12.5468 37.9746 12.5468 37.9772 12.5468H38.0364L38.0362 12.5487H38.2109V10.9566H34.1957C33.9736 10.9566 33.7515 10.9594 33.5293 10.9558Z" fill="white"/>
<path fill-rule="evenodd" clip-rule="evenodd" d="M99.9754 10.9582C99.7812 10.9487 99.5831 10.9546 99.3854 10.9536C99.1928 10.9526 99.0005 10.9534 98.808 10.9534H95.8325C95.6401 10.9534 95.4476 10.9539 95.2552 10.9534C95.0573 10.9528 94.8593 10.9509 94.6508 10.9498C94.6443 10.8749 94.635 10.8175 94.6349 10.7601C94.6341 9.6054 94.6341 8.45069 94.6349 7.29595C94.6381 7.24371 94.6444 7.1917 94.6535 7.14018H97.6401C97.9733 7.14018 98.3064 7.14018 98.6394 7.14018C98.9709 7.13981 99.3023 7.14213 99.6503 7.13826C99.6517 6.95155 99.6536 6.78325 99.6542 6.61498C99.6542 6.58759 99.6546 6.56028 99.6548 6.53297L99.6613 5.5677H99.3555C97.8677 5.5677 96.3798 5.56744 94.8921 5.56691C94.8132 5.56691 94.7306 5.5831 94.6584 5.54727C94.6265 5.3602 94.6089 2.55947 94.635 1.94571C94.6392 1.90768 94.6457 1.86995 94.6547 1.83275C94.7061 1.82819 94.7488 1.82131 94.7917 1.82098C94.9619 1.81968 95.1322 1.82044 95.3024 1.82044C96.7311 1.82044 98.1596 1.81999 99.5882 1.8191C99.6661 1.8191 99.7512 1.84627 99.8214 1.78751C99.8549 1.35324 99.8411 0.418659 99.7954 0.253906H99.6241C97.3888 0.255355 95.1535 0.256986 92.9181 0.258797C92.912 0.258797 92.9057 0.266042 92.8998 0.270099C92.8938 0.274156 92.8881 0.278974 92.8748 0.289154C92.8748 4.3394 92.875 8.39342 92.8756 12.4512C92.8799 12.4767 92.8874 12.5016 92.8979 12.5252C92.9766 12.5278 93.0562 12.5329 93.1359 12.5329C94.2758 12.5334 95.4157 12.5335 96.5556 12.5332C97.6214 12.5332 98.6873 12.5329 99.7531 12.5322C99.8309 12.532 99.9136 12.5514 99.9838 12.5114C100.009 12.2526 100.004 11.1524 99.9754 10.9582Z" fill="white"/>
</g>
<defs>
<clipPath id="clip0">
<rect width="100" height="13.0616" fill="white"/>
</clipPath>
</defs>
</svg>
