<svg width="100" height="26" viewBox="0 0 100 26" fill="none" xmlns="http://www.w3.org/2000/svg">
<g clip-path="url(#clip0)">
<path d="M44.8493 11.8426C47.077 11.8426 48.4711 13.5368 48.4711 16.0048C48.4711 18.4729 46.9371 20.1668 44.8493 20.1668C43.8355 20.1668 43.1084 19.7267 42.795 19.4063C42.7349 19.3463 42.6549 19.373 42.6549 19.453V23.0615C42.6553 23.0721 42.6536 23.0828 42.6497 23.0927C42.6458 23.1026 42.6399 23.1116 42.6324 23.1192C42.6249 23.1267 42.6159 23.1326 42.6059 23.1365C42.596 23.1404 42.5854 23.1422 42.5748 23.1418H40.834C40.8233 23.1422 40.8127 23.1404 40.8028 23.1365C40.7929 23.1326 40.7839 23.1267 40.7764 23.1191C40.7689 23.1116 40.763 23.1026 40.7591 23.0927C40.7552 23.0827 40.7535 23.0721 40.7539 23.0615V12.0826C40.7535 12.072 40.7553 12.0614 40.7592 12.0515C40.763 12.0416 40.7689 12.0326 40.7765 12.0251C40.784 12.0176 40.793 12.0117 40.8029 12.0079C40.8128 12.004 40.8234 12.0022 40.834 12.0026H42.0078C42.1012 12.0026 42.2013 12.016 42.2346 12.0826L42.6148 12.623C42.6682 12.6961 42.7615 12.6764 42.8283 12.5895C43.2018 12.2096 44.0422 11.8425 44.8493 11.8425V11.8426ZM44.5291 13.5834C43.2618 13.5834 42.6481 14.5774 42.6481 16.0048C42.6481 17.5854 43.2618 18.4259 44.5291 18.4259C45.8766 18.4259 46.5702 17.432 46.5702 16.0048C46.5702 14.5776 45.8766 13.5834 44.5289 13.5834H44.5291ZM96.9691 21.154C96.2686 23.0616 96.1352 23.1483 94.4077 23.1483H92.0799C92.0693 23.1487 92.0587 23.147 92.0488 23.1431C92.0389 23.1393 92.0299 23.1334 92.0224 23.1259C92.0149 23.1184 92.009 23.1094 92.0051 23.0996C92.0012 23.0897 91.9995 23.0791 91.9999 23.0685V21.5807C91.9999 21.534 92.0132 21.5009 92.0799 21.5009H94.0075C95.0212 21.5009 95.0145 21.1474 94.6213 19.9332L91.9796 12.0895C91.9664 12.0426 91.9931 12.0093 92.0596 12.0093H93.9074C93.9297 12.0101 93.9512 12.0185 93.9681 12.0331C93.9851 12.0477 93.9966 12.0676 94.0008 12.0895L95.9153 18.2125C95.9286 18.2923 96.0551 18.2923 96.0751 18.2125L97.9894 12.0895C97.9936 12.0676 98.0051 12.0477 98.0221 12.0331C98.039 12.0186 98.0604 12.0102 98.0828 12.0093L99.917 12.0095C99.9771 12.0095 100.011 12.0426 99.9971 12.0895L96.9691 21.154ZM34.6575 20.1802C31.3158 20.1802 29.6416 17.8055 29.6416 14.4506C29.6416 11.0958 31.3225 8.72095 34.6575 8.72095C37.9992 8.72095 39.6735 11.0956 39.6735 14.4506C39.6735 17.8057 37.9992 20.1802 34.6575 20.1802ZM37.6989 14.4506C37.6989 11.9628 36.6252 10.462 34.6575 10.462C32.6965 10.462 31.6159 11.963 31.6159 14.4506C31.6159 16.9383 32.6897 18.4393 34.6575 18.4393C36.6253 18.4393 37.6989 16.9383 37.6989 14.4506ZM48.7312 13.6768C48.7205 13.6772 48.71 13.6754 48.7001 13.6716C48.6902 13.6677 48.6812 13.6618 48.6737 13.6543C48.6661 13.6468 48.6603 13.6378 48.6564 13.6279C48.6525 13.618 48.6507 13.6074 48.6512 13.5968V12.096C48.6507 12.0853 48.6525 12.0748 48.6564 12.0649C48.6603 12.055 48.6661 12.046 48.6737 12.0385C48.6812 12.0309 48.6902 12.0251 48.7001 12.0212C48.71 12.0173 48.7205 12.0155 48.7312 12.016H50.0317C50.0423 12.0164 50.0529 12.0146 50.0628 12.0108C50.0727 12.0069 50.0817 12.001 50.0893 11.9935C50.0968 11.986 50.1027 11.977 50.1066 11.9671C50.1105 11.9572 50.1122 11.9466 50.1118 11.936V9.80132C50.1114 9.79069 50.1132 9.78009 50.1171 9.77019C50.121 9.76029 50.1269 9.7513 50.1344 9.74378C50.1419 9.73626 50.1509 9.73039 50.1608 9.72651C50.1707 9.72264 50.1813 9.72086 50.192 9.72128H51.9326C51.9433 9.72087 51.9538 9.72266 51.9637 9.72654C51.9736 9.73041 51.9826 9.7363 51.9902 9.74381C51.9977 9.75133 52.0035 9.76032 52.0074 9.77021C52.0113 9.78011 52.0131 9.7907 52.0127 9.80132V11.936C52.0123 11.9466 52.0141 11.9572 52.0179 11.9671C52.0218 11.977 52.0277 11.986 52.0353 11.9935C52.0428 12.001 52.0518 12.0069 52.0617 12.0108C52.0717 12.0146 52.0823 12.0164 52.0929 12.016H53.7068C53.7175 12.0155 53.7281 12.0173 53.738 12.0212C53.7479 12.0251 53.7569 12.0309 53.7644 12.0385C53.7719 12.046 53.7778 12.055 53.7816 12.0649C53.7855 12.0748 53.7873 12.0853 53.7869 12.096V13.5968C53.7873 13.6074 53.7855 13.618 53.7817 13.6279C53.7778 13.6378 53.7719 13.6468 53.7644 13.6543C53.7569 13.6618 53.7479 13.6677 53.738 13.6716C53.7281 13.6755 53.7175 13.6772 53.7068 13.6768H52.0864C52.0758 13.6764 52.0652 13.6782 52.0553 13.682C52.0454 13.6859 52.0364 13.6918 52.0289 13.6993C52.0214 13.7068 52.0155 13.7158 52.0116 13.7257C52.0077 13.7356 52.006 13.7462 52.0064 13.7568V17.7791C52.0064 18.0925 52.2598 18.2859 52.5733 18.2859H53.6937C53.7043 18.2854 53.7149 18.2872 53.7248 18.291C53.7347 18.2949 53.7437 18.3007 53.7512 18.3082C53.7587 18.3157 53.7646 18.3247 53.7685 18.3346C53.7724 18.3445 53.7741 18.3551 53.7737 18.3657V19.9468C53.7742 19.9574 53.7724 19.968 53.7685 19.9779C53.7646 19.9878 53.7588 19.9968 53.7512 20.0043C53.7437 20.0118 53.7347 20.0177 53.7248 20.0216C53.7149 20.0255 53.7043 20.0272 53.6937 20.0268H52.4599C50.799 20.0268 50.0985 19.3796 50.0985 17.7924V13.7568C50.0989 13.7462 50.0971 13.7356 50.0933 13.7257C50.0894 13.7158 50.0835 13.7068 50.076 13.6993C50.0685 13.6918 50.0595 13.6859 50.0496 13.6821C50.0397 13.6782 50.0291 13.6764 50.0185 13.6768H48.7312ZM55.0278 10.7821C55.0189 10.7826 55.01 10.7813 55.0017 10.7782C54.9933 10.775 54.9858 10.7701 54.9795 10.7638C54.9732 10.7576 54.9683 10.75 54.9651 10.7417C54.9619 10.7334 54.9606 10.7245 54.9611 10.7156V8.94782C54.9605 8.93894 54.9619 8.93004 54.9651 8.92172C54.9682 8.9134 54.9731 8.90585 54.9794 8.89956C54.9857 8.89328 54.9933 8.88841 55.0016 8.88527C55.01 8.88213 55.0189 8.8808 55.0278 8.88137H56.7687C56.7775 8.8808 56.7864 8.88213 56.7948 8.88527C56.8031 8.88841 56.8107 8.89328 56.817 8.89956C56.8233 8.90585 56.8282 8.9134 56.8313 8.92172C56.8345 8.93004 56.8359 8.93894 56.8353 8.94782V10.7156C56.8358 10.7245 56.8345 10.7334 56.8313 10.7417C56.8281 10.75 56.8232 10.7576 56.8169 10.7638C56.8106 10.7701 56.8031 10.775 56.7948 10.7782C56.7864 10.7813 56.7775 10.7826 56.7687 10.7821H55.0278ZM55.0278 20.0203C55.0171 20.0207 55.0065 20.0189 54.9966 20.015C54.9867 20.0111 54.9777 20.0052 54.9702 19.9976C54.9627 19.9901 54.9568 19.9811 54.953 19.9712C54.9491 19.9613 54.9473 19.9507 54.9478 19.94V12.0898C54.9474 12.0792 54.9491 12.0686 54.953 12.0587C54.9569 12.0488 54.9628 12.0398 54.9703 12.0323C54.9778 12.0247 54.9868 12.0188 54.9966 12.0149C55.0065 12.011 55.0171 12.0092 55.0278 12.0096H56.7687C56.7793 12.0092 56.7899 12.011 56.7998 12.0149C56.8097 12.0187 56.8187 12.0246 56.8262 12.0322C56.8338 12.0397 56.8396 12.0487 56.8435 12.0587C56.8474 12.0686 56.8491 12.0792 56.8487 12.0898V19.94C56.8492 19.9507 56.8474 19.9613 56.8435 19.9712C56.8397 19.9812 56.8338 19.9902 56.8263 19.9977C56.8188 20.0053 56.8098 20.0112 56.7998 20.015C56.7899 20.0189 56.7793 20.0207 56.7687 20.0203H55.0278ZM67.6211 20.0203C67.6104 20.0207 67.5998 20.0189 67.5899 20.0151C67.5799 20.0112 67.5709 20.0053 67.5634 19.9977C67.5558 19.9902 67.5499 19.9812 67.5461 19.9713C67.5422 19.9613 67.5404 19.9507 67.5408 19.94V15.558C67.5408 14.6107 67.194 13.5968 66.0999 13.5968C65.026 13.5968 64.6727 14.4506 64.6727 15.558V19.9399C64.6731 19.9505 64.6713 19.9612 64.6674 19.9711C64.6636 19.981 64.6577 19.99 64.6501 19.9976C64.6426 20.0051 64.6336 20.011 64.6236 20.0149C64.6137 20.0187 64.6031 20.0205 64.5924 20.0201H62.8518C62.8411 20.0205 62.8305 20.0187 62.8206 20.0149C62.8107 20.011 62.8016 20.0051 62.7941 19.9975C62.7866 19.99 62.7807 19.981 62.7768 19.9711C62.7729 19.9612 62.7711 19.9505 62.7715 19.9399V15.558C62.7715 14.6107 62.4247 13.5968 61.331 13.5968C60.257 13.5968 59.9035 14.4506 59.9035 15.558V19.9399C59.904 19.9505 59.9022 19.9611 59.8983 19.9711C59.8945 19.981 59.8886 19.99 59.8811 19.9975C59.8735 20.0051 59.8645 20.011 59.8546 20.0148C59.8447 20.0187 59.8341 20.0205 59.8235 20.0201H58.0893C58.0786 20.0205 58.068 20.0187 58.0581 20.0149C58.0482 20.011 58.0391 20.0051 58.0316 19.9975C58.0241 19.99 58.0182 19.981 58.0143 19.9711C58.0104 19.9612 58.0086 19.9505 58.009 19.9399V12.0897C58.0086 12.0791 58.0104 12.0684 58.0143 12.0585C58.0182 12.0486 58.0241 12.0396 58.0316 12.0321C58.0392 12.0245 58.0482 12.0186 58.0581 12.0147C58.068 12.0108 58.0786 12.009 58.0893 12.0094H59.5898C59.623 12.0055 59.6566 12.0125 59.6855 12.0294C59.7145 12.0462 59.7371 12.072 59.7501 12.1028L59.9102 12.5763C59.9435 12.6364 60.0036 12.6566 60.0502 12.6101C60.3837 12.2764 61.2376 11.8496 61.9645 11.8496C62.8984 11.8496 63.6119 12.2297 64.0255 12.7835C64.0323 12.7942 64.0417 12.803 64.0528 12.8091C64.0639 12.8153 64.0763 12.8185 64.089 12.8185C64.1017 12.8185 64.1141 12.8153 64.1252 12.8091C64.1363 12.803 64.1457 12.7942 64.1525 12.7835C64.5924 12.3097 65.2463 11.8496 66.26 11.8496C68.2543 11.8496 69.4417 12.9903 69.4417 15.458V19.9399C69.4421 19.9505 69.4404 19.9611 69.4365 19.9711C69.4327 19.981 69.4268 19.99 69.4193 19.9976C69.4117 20.0051 69.4027 20.011 69.3928 20.0149C69.3829 20.0188 69.3723 20.0205 69.3616 20.0201L67.6211 20.0203ZM70.6888 10.7821C70.68 10.7826 70.6711 10.7813 70.6628 10.7781C70.6545 10.7749 70.647 10.7701 70.6407 10.7638C70.6344 10.7575 70.6295 10.75 70.6264 10.7417C70.6232 10.7334 70.6218 10.7245 70.6224 10.7156V8.94782C70.6218 8.93895 70.6232 8.93007 70.6263 8.92176C70.6295 8.91345 70.6343 8.90591 70.6406 8.89963C70.6469 8.89334 70.6545 8.88847 70.6628 8.88532C70.6711 8.88217 70.68 8.88082 70.6888 8.88137H72.43C72.4389 8.88084 72.4477 8.8822 72.456 8.88536C72.4643 8.88851 72.4719 8.89339 72.4781 8.89966C72.4844 8.90594 72.4893 8.91348 72.4925 8.92178C72.4956 8.93008 72.497 8.93896 72.4965 8.94782V10.7156C72.497 10.7245 72.4956 10.7333 72.4924 10.7416C72.4893 10.7499 72.4844 10.7575 72.4781 10.7637C72.4718 10.77 72.4643 10.7749 72.456 10.7781C72.4477 10.7812 72.4389 10.7826 72.43 10.7821H70.6888ZM70.6824 20.0203C70.6717 20.0207 70.6611 20.0189 70.6512 20.015C70.6413 20.0111 70.6323 20.0052 70.6248 19.9977C70.6173 19.9902 70.6115 19.9811 70.6076 19.9712C70.6038 19.9613 70.6021 19.9507 70.6026 19.94V12.0898C70.6021 12.0792 70.6038 12.0686 70.6077 12.0587C70.6115 12.0488 70.6174 12.0398 70.6249 12.0322C70.6324 12.0247 70.6414 12.0188 70.6513 12.0149C70.6612 12.011 70.6718 12.0092 70.6824 12.0096H72.4235C72.4341 12.0092 72.4447 12.0111 72.4546 12.015C72.4645 12.0189 72.4734 12.0248 72.4809 12.0323C72.4884 12.0399 72.4943 12.0489 72.4981 12.0588C72.502 12.0687 72.5037 12.0792 72.5033 12.0898V19.94C72.5038 19.9506 72.502 19.9612 72.4981 19.9711C72.4943 19.981 72.4884 19.99 72.4809 19.9976C72.4735 20.0051 72.4645 20.011 72.4546 20.0149C72.4447 20.0188 72.4341 20.0206 72.4235 20.0203H70.6824ZM73.7707 20.0203C73.76 20.0207 73.7494 20.0189 73.7395 20.015C73.7296 20.0111 73.7206 20.0052 73.7131 19.9977C73.7056 19.9901 73.6997 19.9811 73.6958 19.9712C73.692 19.9613 73.6902 19.9507 73.6906 19.94V18.4193C73.6924 18.3667 73.7138 18.3168 73.7507 18.2793L77.5658 13.8769C77.5765 13.866 77.5836 13.852 77.5862 13.837C77.5887 13.8219 77.5866 13.8064 77.58 13.7926C77.5735 13.7787 77.5628 13.7673 77.5496 13.7597C77.5363 13.7521 77.521 13.7488 77.5057 13.7502H73.9306C73.92 13.7506 73.9094 13.7488 73.8995 13.7449C73.8897 13.741 73.8807 13.7351 73.8732 13.7276C73.8657 13.7201 73.8599 13.7111 73.856 13.7012C73.8522 13.6913 73.8504 13.6807 73.8508 13.6701V12.0895C73.8504 12.0789 73.8521 12.0683 73.856 12.0584C73.8598 12.0485 73.8657 12.0395 73.8732 12.032C73.8807 12.0245 73.8896 12.0186 73.8995 12.0147C73.9094 12.0107 73.92 12.0089 73.9306 12.0093H79.8804C79.8911 12.0089 79.9017 12.0107 79.9116 12.0146C79.9215 12.0185 79.9305 12.0244 79.938 12.0319C79.9455 12.0395 79.9514 12.0485 79.9552 12.0584C79.9591 12.0683 79.9609 12.0789 79.9605 12.0895V13.657C79.962 13.6721 79.9597 13.6873 79.9539 13.7013C79.9481 13.7152 79.9389 13.7275 79.9271 13.7371L76.1251 18.1525C76.1146 18.1635 76.1077 18.1774 76.1052 18.1924C76.1028 18.2074 76.105 18.2228 76.1115 18.2366C76.118 18.2503 76.1285 18.2617 76.1417 18.2694C76.1548 18.277 76.17 18.2804 76.1851 18.2793H80.0607C80.0713 18.2789 80.0818 18.2807 80.0917 18.2846C80.1016 18.2884 80.1105 18.2943 80.118 18.3018C80.1255 18.3094 80.1314 18.3183 80.1352 18.3282C80.1391 18.3381 80.1408 18.3487 80.1404 18.3593V19.9399C80.1409 19.9505 80.1391 19.9611 80.1353 19.971C80.1314 19.9809 80.1256 19.9899 80.1181 19.9974C80.1106 20.005 80.1016 20.0109 80.0917 20.0148C80.0819 20.0187 80.0713 20.0205 80.0607 20.0201L73.7707 20.0203ZM88.0512 16.7448H82.5418C82.5311 16.7444 82.5205 16.7462 82.5106 16.7501C82.5007 16.754 82.4917 16.7599 82.4841 16.7674C82.4766 16.775 82.4707 16.784 82.4668 16.7939C82.4629 16.8038 82.4611 16.8144 82.4615 16.8251C82.4615 17.6989 83.2223 18.4392 84.3427 18.4392C85.0361 18.4392 85.6099 18.2658 85.8769 17.7254C85.8866 17.7002 85.9042 17.6789 85.927 17.6645C85.9498 17.6501 85.9767 17.6435 86.0036 17.6456H87.8576C87.9045 17.6456 87.951 17.6787 87.9377 17.7254C87.5911 19.2596 86.15 20.1801 84.3428 20.1801C82.0348 20.1801 80.4809 18.4859 80.4809 16.0181C80.4809 13.5302 82.0348 11.8558 84.3428 11.8558C86.6508 11.8558 88.2045 13.55 88.2045 16.0181C88.1914 16.3315 88.1716 16.4782 88.1247 16.665C88.1111 16.7117 88.0981 16.7448 88.0514 16.7448H88.0512ZM86.1167 15.1642C86.1637 15.1642 86.1767 15.1509 86.1767 15.1039C86.1767 14.4704 85.6368 13.6034 84.3427 13.6034C83.062 13.6034 82.4615 14.4906 82.4615 15.1039C82.4615 15.1509 82.4751 15.1642 82.5218 15.1642H86.1167ZM89.2383 20.0199C89.2277 20.0203 89.2171 20.0185 89.2072 20.0147C89.1973 20.0108 89.1883 20.0049 89.1808 19.9973C89.1732 19.9898 89.1674 19.9808 89.1635 19.9709C89.1596 19.9609 89.1579 19.9503 89.1583 19.9397V8.96099C89.1579 8.95038 89.1597 8.9398 89.1636 8.92992C89.1674 8.92004 89.1733 8.91106 89.1808 8.90357C89.1884 8.89607 89.1974 8.89021 89.2073 8.88637C89.2171 8.88252 89.2277 8.88077 89.2383 8.88122H90.9792C90.9898 8.88076 91.0005 8.88251 91.0104 8.88636C91.0203 8.8902 91.0293 8.89605 91.0368 8.90355C91.0443 8.91104 91.0502 8.92001 91.0541 8.9299C91.058 8.93979 91.0599 8.95037 91.0595 8.96099V19.9468C91.0599 19.9574 91.0581 19.968 91.0542 19.9779C91.0503 19.9878 91.0444 19.9968 91.0368 20.0043C91.0293 20.0118 91.0203 20.0177 91.0104 20.0216C91.0005 20.0254 90.9899 20.0272 90.9792 20.0268H89.2383V20.0199Z" fill="white"/>
<path d="M9.40468 2.75137C8.23513 3.91681 7.39517 5.37127 6.97029 6.96676C7.73387 6.76092 8.52059 6.65336 9.31139 6.64667L6.65681 9.30121C6.64899 9.88931 6.69813 10.4768 6.80353 11.0554L11.0655 6.79328C11.6135 6.88829 12.1516 7.03347 12.673 7.22699C12.8298 6.98462 13.0108 6.75886 13.2134 6.5532C14.7808 4.98571 17.3287 4.98571 18.9029 6.5532C20.4703 8.12068 20.4703 10.6685 18.9029 12.2427C18.6985 12.4465 18.4727 12.6277 18.2293 12.783C18.4235 13.3041 18.5686 13.8422 18.6627 14.3903L14.4006 18.6525C14.9792 18.7581 15.5667 18.8073 16.1548 18.7995L18.8094 16.1449C18.8026 16.9358 18.6951 17.7225 18.4892 18.486C20.0841 18.0596 21.5382 17.2198 22.7046 16.0514C26.3798 12.3761 26.3798 6.42655 22.7046 2.75137C19.0296 -0.917125 13.073 -0.917125 9.40457 2.75137H9.40468Z" fill="white"/>
<path d="M12.4195 11.1355C12.1961 10.6598 12.0649 10.1461 12.0327 9.62158L9.61821 12.036L7.7771 13.877C7.99386 14.2822 8.24145 14.6702 8.51769 15.0375L11.1322 12.4229L12.4195 11.1355ZM15.8347 13.4164C15.309 13.3909 14.794 13.2593 14.3205 13.0296L13.0332 14.3172L10.4185 16.9318C10.7858 17.208 11.1738 17.4555 11.5792 17.672L13.4201 15.8311L15.8347 13.4164Z" fill="white"/>
<path d="M12.0394 9.62157C11.993 8.77956 12.2124 7.94427 12.6666 7.23375C12.1452 7.04033 11.6071 6.89522 11.0591 6.80027L6.7967 11.0621C6.89174 11.6101 7.03688 12.1482 7.2303 12.6697C7.3837 13.0867 7.56642 13.4924 7.77711 13.8836L12.0394 9.62157ZM15.8347 13.4164L11.5792 17.6789C11.9704 17.8897 12.3761 18.0726 12.7932 18.226C13.3144 18.4201 13.8525 18.5652 14.4006 18.6595L18.6627 14.3972C18.5646 13.8499 18.4196 13.3121 18.2293 12.7897C17.5172 13.246 16.679 13.4653 15.8347 13.4164ZM18.4894 18.486C18.6952 17.7224 18.8028 16.9357 18.8095 16.1449L16.1548 18.7995C16.9434 18.7978 17.7283 18.6924 18.4894 18.486ZM6.97033 6.96676C6.76445 7.73034 6.65687 8.51708 6.65021 9.3079L9.30479 6.65332C8.51665 6.66065 7.73248 6.76594 6.97033 6.96676ZM14.3206 13.0367C13.9078 12.8384 13.5313 12.5723 13.2067 12.2494C12.8823 11.926 12.616 11.5492 12.4195 11.1354L8.5177 15.0375C8.78893 15.3963 9.08304 15.7372 9.39818 16.0582C9.716 16.3765 10.0571 16.6708 10.4186 16.9385L14.3206 13.0367Z" fill="white"/>
<path d="M6.9703 6.9668C4.98724 7.4987 3.23262 8.66471 1.97411 10.2869C0.715601 11.9092 0.0223093 13.8985 0 15.9516L6.65007 9.30125C6.65723 8.51266 6.76484 7.72819 6.9703 6.9668ZM9.49816 25.4563C11.5523 25.4354 13.5431 24.7428 15.1667 23.4842C16.7902 22.2255 17.9571 20.4701 18.4893 18.486C17.7257 18.6918 16.939 18.7994 16.1481 18.8062L9.49816 25.4563ZM6.55656 13.2098C6.76087 13.0059 6.98677 12.8249 7.23028 12.6698C7.03685 12.1483 6.89171 11.6102 6.79668 11.0621L0.146721 17.7124C0.321146 18.697 0.652169 19.6472 1.12721 20.527L5.38252 16.2717C5.35306 15.7076 5.44234 15.1436 5.64458 14.6162C5.84681 14.0887 6.1575 13.6096 6.55656 13.2098ZM12.7864 18.226C12.4036 18.8255 11.8684 19.3124 11.2355 19.6371C10.6026 19.9617 9.89483 20.1123 9.1846 20.0736L4.92896 24.329C5.80894 24.8039 6.75923 25.1349 7.7438 25.3095L14.3938 18.6595C13.8461 18.5635 13.3081 18.4185 12.7864 18.226ZM6.55656 18.8996C6.23223 18.5762 5.96599 18.1995 5.76951 17.7858L1.86768 21.6877C2.13895 22.0465 2.433 22.3874 2.74802 22.7084C3.06607 23.0266 3.40722 23.3209 3.76869 23.5888L7.67044 19.6868C7.25903 19.4864 6.88285 19.2206 6.55656 18.8997V18.8996Z" fill="white"/>
</g>
<defs>
<clipPath id="clip0">
<rect width="100" height="25.4563" fill="white"/>
</clipPath>
</defs>
</svg>
