<svg width="100" height="48" viewBox="0 0 100 48" fill="none" xmlns="http://www.w3.org/2000/svg">
<g clip-path="url(#clip0)">
<path d="M78.3339 25.2178C78.6046 23.1618 78.1474 22.5276 76.1649 22.6207C74.5497 22.7571 72.9447 22.9953 71.3595 23.3338C70.0166 23.5752 69.033 23.2355 68.8462 22.1928C68.5412 20.4714 68.6593 18.9961 70.0412 18.5828C73.2341 17.5324 76.6512 17.3625 79.9327 18.091C82.9133 18.8037 84.3592 20.7763 84.3592 23.9928V35.3842C84.3592 36.2454 84.3592 37.1303 83.3366 37.465C82.7808 37.6677 82.1757 37.6923 81.6054 37.5354C81.035 37.3785 80.5276 37.0478 80.1538 36.5893L79.8391 36.1323C78.0951 37.5278 75.8963 38.2287 73.6663 38.1C68.8217 37.9227 66.0373 33.3037 68.1426 28.9118C69.1267 26.8215 71.0941 26.1623 73.1255 25.8372C74.8762 25.5766 76.6126 25.4146 78.3339 25.2178ZM78.4275 28.5722C77.2521 28.7495 76.2191 28.8473 75.2157 29.0643C74.7093 29.1301 74.2433 29.3751 73.9022 29.755C73.5611 30.1349 73.3674 30.6244 73.3562 31.1349C73.249 31.6488 73.3239 32.184 73.5681 32.6488C73.8122 33.1136 74.2104 33.479 74.6944 33.6823C75.678 34.0667 77.7684 33.6823 78.2502 33.0137C78.3429 32.8844 78.3942 32.7302 78.3976 32.5712C78.4275 31.2774 78.4275 29.9885 78.4275 28.5573V28.5722Z" fill="white"/>
<path d="M43.2051 18.3267V15.7842C43.1619 15.4074 43.2574 15.0277 43.4738 14.7162C43.6901 14.4048 44.0126 14.1828 44.3808 14.0918C45.384 13.7554 46.4036 13.4698 47.4356 13.236C47.6629 13.1605 47.9057 13.1437 48.1413 13.1872C48.3769 13.2306 48.5977 13.3329 48.7832 13.4846C48.9686 13.6362 49.1128 13.8323 49.2021 14.0546C49.2915 14.2768 49.3233 14.5181 49.2945 14.7559C49.329 15.8523 49.2945 16.9395 49.2945 18.1593H52.2114C53.6328 18.194 54.1196 18.6514 54.1788 20.127C54.2577 23.1173 54.0953 23.2846 51.1392 23.2846H49.4225C49.3767 23.5515 49.3456 23.8207 49.3291 24.0909V30.4019C49.3291 32.3693 49.9195 32.9695 51.8327 33.1071C53.5098 33.2301 53.9674 33.5989 53.9674 34.9664C54.0263 37.1454 53.5836 37.8829 51.8327 37.9861C50.4438 38.0907 49.0473 38.0197 47.6762 37.7747C44.8286 37.1993 43.2939 35.3496 43.2005 32.3395C43.1168 29.7133 43.166 27.0819 43.1565 24.4699V23.2896H41.4348C41.0456 23.321 40.6598 23.1968 40.362 22.9441C40.0642 22.6915 39.8787 22.3311 39.8462 21.942V21.809C39.6098 19.7977 39.9691 19.2613 41.8826 18.7202L43.2051 18.3267Z" fill="white"/>
<path d="M64.5958 30.5593C64.5958 33.9676 64.6597 37.3766 64.5958 40.7846C64.5792 44.7154 61.379 47.8889 57.4485 47.8717C57.0747 47.8703 56.7015 47.8394 56.3325 47.7791C54.9603 47.6072 54.4731 47.0661 54.4536 45.6447V44.38C54.5128 43.1898 54.8817 42.7768 56.0622 42.5602C57.8819 42.2212 58.477 41.5373 58.4818 39.6344V20.2501C58.4818 18.6071 58.9001 18.1693 60.5479 18.115H62.7858C64.1088 18.1746 64.6055 18.6561 64.6151 19.9888V30.4952L64.5958 30.5593Z" fill="white"/>
<path d="M92.0709 19.5073C93.6823 18.3508 95.6022 17.7016 97.5848 17.6428C99.552 17.6428 100.005 18.0562 99.9996 20.0037V20.8795C99.9996 22.1388 99.4783 22.5862 98.2485 22.7139C97.0911 22.8553 95.9418 23.0573 94.8055 23.319C94.0433 23.4818 93.7532 23.9438 93.7678 24.7947C93.8266 28.3505 93.7678 31.8775 93.7678 35.4141C93.7678 37.15 93.3888 37.5145 91.6331 37.5485H89.1001C88.9269 37.5627 88.7527 37.5427 88.5873 37.4895C88.4219 37.4363 88.2687 37.3511 88.1362 37.2387C88.0038 37.1263 87.8948 36.9889 87.8155 36.8343C87.7361 36.6798 87.688 36.5111 87.6739 36.338C87.6667 36.2498 87.6682 36.1612 87.6784 36.0734V19.714C87.6514 19.3641 87.7644 19.0177 87.9927 18.7511C88.221 18.4844 88.5459 18.3194 88.8958 18.2923H88.9577C90.1823 18.0853 91.4707 17.8944 92.0709 19.5073Z" fill="white"/>
<path d="M65.3188 2.76938C63.41 1.31297 61.1653 0.360574 58.7916 0C58.8231 0.143554 58.8641 0.284858 58.9144 0.422982C60.0408 2.83301 59.6282 4.38724 57.493 5.99087C56.9676 6.375 56.4741 6.80102 56.0173 7.26476C55.379 7.87891 54.9429 8.67298 54.7673 9.54119C54.5916 10.4094 54.6846 11.3105 55.0339 12.1245C55.727 13.9587 57.2227 14.7464 59.121 15.0757C58.657 13.721 58.5088 12.3136 59.2814 11.086C59.6835 11.6045 59.8317 11.795 60.5638 12.0086H60.5641C60.5641 12.0086 61.5844 12.2351 62.2795 11.6594C62.3031 11.6376 62.3298 11.6172 62.352 11.5949C62.3553 11.5919 62.3582 11.5883 62.3615 11.5853C62.4173 11.5286 62.4698 11.4688 62.5187 11.406C62.5265 11.3952 62.5347 11.3849 62.5425 11.3737C63.192 10.5056 62.9388 9.35235 62.697 8.25801C63.8881 8.68399 65.2007 10.3961 64.0187 14.3692C63.9723 14.4946 63.8827 14.7344 63.8827 14.7423C64.1452 14.6525 64.399 14.5388 64.6408 14.4027L64.6411 14.3984C68.993 12.0505 69.4005 6.10787 65.3188 2.76938Z" fill="white"/>
<path d="M38.9023 26.9235C38.8569 26.2184 38.8167 25.592 38.7442 24.9516C38.2865 21.0164 36.2698 18.6069 32.7142 17.8941C31.3739 17.6548 30.0107 17.5704 28.6512 17.6427C24.8834 17.771 22.3111 19.5757 21.3274 22.9404C20.3987 26.1435 20.3987 29.5445 21.3274 32.7476C21.6348 33.9914 22.2919 35.1212 23.2211 36.0034C24.1503 36.8855 25.3126 37.4831 26.5707 37.7255C28.5979 38.2153 30.7094 38.2424 32.7484 37.8045C34.2027 37.5624 35.5427 36.8653 36.5759 35.8136C37.609 34.7618 38.2821 33.4096 38.4983 31.9512C38.6929 31.0297 38.7903 30.0918 38.8761 29.2491C38.9588 28.4039 38.9023 26.9235 38.9023 26.9235ZM29.8317 33.1806C29.2319 33.2494 28.6284 33.0882 28.1428 32.7295C27.6572 32.3709 27.3256 31.8414 27.2149 31.248C26.6571 29.0363 26.6571 26.7207 27.2149 24.5091C27.3203 23.9247 27.6385 23.4001 28.1082 23.0367C28.5779 22.6733 29.1656 22.4969 29.7578 22.5417C30.3649 22.4941 30.9682 22.6735 31.4507 23.0451C31.9332 23.4168 32.2607 23.9542 32.3697 24.5534C32.4833 24.9257 32.5624 25.3076 32.6059 25.6943C32.6523 26.1924 32.6854 26.6952 32.7231 27.3067C32.7236 27.3199 32.7612 28.2036 32.6992 28.963C32.5954 29.7444 32.4593 30.5209 32.2909 31.2924C32.1818 31.8529 31.8716 32.3543 31.4187 32.702C30.9657 33.0498 30.4013 33.22 29.8317 33.1806Z" fill="white"/>
<path d="M17.9332 23.5408C17.8497 19.7191 15.7395 17.7712 11.8981 17.6383C9.92967 17.5569 7.97179 17.965 6.19981 18.8261V16.3999C6.20822 14.4195 6.23543 12.4357 6.19747 10.4523C6.16773 8.91276 5.70062 8.48486 4.17586 8.48486H2.20847C0.393509 8.48486 0 8.87342 0 10.7178V35.9554C0.069077 37.0376 0.53124 37.5286 1.57895 37.5286H3.8066C5.81847 37.5286 6.16754 37.1849 6.16754 35.1438V25.592C6.16754 23.3485 6.29552 23.1914 8.49424 22.744C8.78176 22.6931 9.07289 22.6652 9.36484 22.6606C11.0419 22.5912 11.8238 23.275 11.8238 24.9325V35.6501C11.8534 37.0816 12.2964 37.5141 13.718 37.5141H15.9457C17.5542 37.5141 17.9822 37.1407 17.9822 35.5125C17.9972 31.5136 18.0267 27.5447 17.9332 23.5408Z" fill="white"/>
</g>
<defs>
<clipPath id="clip0">
<rect width="100" height="47.8718" fill="white"/>
</clipPath>
</defs>
</svg>
