<svg width="100" height="79" viewBox="0 0 100 79" fill="none" xmlns="http://www.w3.org/2000/svg">
<path d="M77.4353 63.4734C75.6928 63.4734 74.9429 64.8254 74.9293 66.2004H79.9521C79.925 64.6681 79.0666 63.4734 77.4353 63.4734ZM82.7958 68.4976H74.9293C75.0513 70.1005 76.3233 71.2504 78.2693 71.2504C79.9589 71.2504 81.0289 70.5222 81.1984 70.4178L82.2005 72.6811C81.993 72.7895 80.4525 73.7876 77.8964 73.7876C74.1197 73.7876 71.7805 71.2233 71.7805 67.4453C71.7805 63.9155 73.5895 61.0569 77.4353 61.0569C80.9529 61.0569 82.9734 63.5005 82.9734 66.8893C82.9734 67.5402 82.8406 68.2698 82.7958 68.4976Z" fill="white"/>
<path d="M34.1388 69.6231V67.5402C33.7252 67.8657 32.7298 68.1342 31.8402 68.3417C30.7784 68.5898 29.8007 68.9478 29.8007 69.8604C29.8007 70.9778 30.8761 71.3887 31.9989 71.3887C33.1882 71.3887 34.1279 71.0429 34.2337 71.0104C34.2188 70.9005 34.1388 70.4422 34.1388 69.6231ZM32.0437 73.7876C29.4007 73.7876 26.5801 72.8546 26.5801 70.0015C26.5801 66.6886 30.1506 66.431 32.3827 65.9143C33.4445 65.6634 34.1388 65.3787 34.1388 64.6722C34.1388 64.0131 33.336 63.5385 32.0911 63.5385C30.4177 63.5385 28.8501 64.2586 28.6955 64.3291L27.7029 62.1092C27.9253 62.0061 30.0367 61.0569 32.2715 61.0569C35.2833 61.0569 37.0651 62.6245 37.0651 65.5197V70.8517C37.0651 72.1074 37.2265 72.6241 37.2848 72.8343C37.1072 72.8967 34.6446 73.7876 32.0437 73.7876Z" fill="white"/>
<path d="M58.2705 73.5166V65.9145C58.2705 64.4662 57.442 63.5957 56.0249 63.5957C54.9387 63.5957 53.8403 64.2181 53.4213 64.4947V73.5166H50.4949V55.7658L53.4213 55.0769V62.0131C53.5718 61.9236 54.955 61.0558 56.8507 61.0558C59.6605 61.0558 61.2023 62.7183 61.2023 65.3762V73.5166H58.2705Z" fill="white"/>
<path d="M91.1962 63.5951C88.9031 63.5951 87.9783 65.3526 87.9783 67.4219C87.9783 69.452 89.1988 71.2515 91.3685 71.2515C91.9041 71.2515 92.4859 71.1294 92.9713 70.907V65.4312C92.9713 64.6719 93.0744 64.0196 93.0907 63.9111C92.9713 63.8691 92.2879 63.5951 91.1962 63.5951ZM95.9058 64.1037V78.6393L92.9713 79V73.3683C92.2214 73.6368 91.4661 73.7887 90.7298 73.7887C87.44 73.7887 84.7102 71.1294 84.7102 67.3962C84.7102 63.6684 87.2759 61.0566 91.2708 61.0566C93.4771 61.0566 95.7594 61.8255 96.0482 61.9394C95.9872 62.1957 95.9058 63.2751 95.9058 64.1037Z" fill="white"/>
<path d="M21.507 73.5166V65.8603C21.507 64.4947 20.8073 63.6174 19.3644 63.6174C18.2945 63.6174 17.2585 64.1666 17.1134 64.2384C17.1364 64.3713 17.291 65.0155 17.291 66.1057V73.5166H14.366V65.8372C14.366 64.4744 13.612 63.6174 12.2261 63.6174C11.1453 63.6174 10.1717 64.0865 10.0524 64.1408C10.0646 64.214 10.1527 64.6154 10.1527 65.3273V73.5166H7.22633V63.8655C7.22633 63.1671 7.04055 62.4308 7.00122 62.3006C7.30498 62.1826 10.1337 61.0558 12.515 61.0558C15.0237 61.0558 15.9377 62.1216 16.0746 62.2545C16.2713 62.1352 17.9528 61.0558 19.873 61.0558C22.6108 61.0558 24.4388 62.6179 24.4388 65.2758V73.5166H21.507Z" fill="white"/>
<path d="M70.6871 63.8348C70.2979 63.7168 69.6145 63.5948 69.0748 63.5948C67.8923 63.5948 66.8861 63.8918 66.7695 63.9324C66.7884 64.0057 66.9078 64.5562 66.9078 65.595V73.5171H63.9841V64.7908C63.9841 63.3982 63.7766 62.4842 63.7617 62.3987C64.0899 62.2767 66.7071 61.0562 69.3202 61.0562C70.0783 61.0562 70.9122 61.1579 71.5686 61.3288L70.6871 63.8348Z" fill="white"/>
<path d="M43.4144 73.7881C41.3355 73.7881 39.5998 73.0626 39.3855 72.9853L40.2412 70.6963C40.3022 70.722 41.5864 71.4218 42.9004 71.4218C44.3121 71.4218 45.0226 70.8346 45.0226 70.0332C45.0226 69.4595 44.6375 68.9564 43.6476 68.5618C43.3167 68.4303 42.7865 68.2242 42.4244 68.0845C41.1633 67.6166 39.7042 66.7447 39.7042 64.7065C39.7042 62.2914 41.9335 61.0696 44.148 61.056C46.14 61.0452 47.4134 61.654 47.7266 61.7937L46.8994 64.0583C46.8072 64.019 45.5841 63.4996 44.2307 63.4996C43.4035 63.4996 42.7024 63.8143 42.7024 64.5465C42.7024 65.2232 43.1893 65.5771 44.0788 65.9297C44.426 66.0667 44.9264 66.2552 45.3156 66.4125C46.8859 67.0335 48.2609 68.018 48.2609 69.9667C48.2609 72.6422 45.9515 73.7881 43.4144 73.7881Z" fill="white"/>
<path d="M90.3234 26.2831C87.3333 27.8711 85.6559 30.5737 84.4612 33.6249C87.6534 34.3463 90.8374 34.4805 93.8248 32.8994C96.8203 31.3141 98.5046 28.6061 99.6911 25.5576C98.3052 25.243 96.9207 25.0396 95.5551 25.0396C93.7705 25.0396 92.0158 25.3854 90.3234 26.2831Z" fill="white"/>
<path d="M82.4953 18.4803C79.8714 22.6543 79.8998 26.5055 80.411 29.6814C83.4934 28.7647 86.9771 27.1212 89.6119 22.9458C92.2264 18.7705 92.1966 14.918 91.6908 11.7394C88.6058 12.6615 85.1207 14.3023 82.4953 18.4803Z" fill="white"/>
<path d="M69.7528 15.657C69.6619 21.1491 72.0486 25.5075 74.3742 28.6196C76.7907 25.5387 79.3266 21.3227 79.4147 15.813C79.5123 9.85445 76.6565 5.35504 74.7905 2.85039C72.7429 5.43911 69.8504 9.72562 69.7528 15.657Z" fill="white"/>
<path d="M54.7949 17.8648C58.1431 24.0647 63.2229 27.4887 68.0043 30.2944C68.3691 24.7848 68.1413 18.5075 64.8624 12.4283C61.2634 5.76192 55.4567 2.15344 51.6597 1.36074e-05C51.4577 4.47909 51.1241 11.0533 54.7949 17.8648Z" fill="white"/>
<path d="M22.8396 11.4885C25.8351 16.651 31.6079 24.3345 40.1036 29.1404C48.2766 33.7673 57.5304 34.9172 64.1222 34.8426C60.6398 29.0088 55.0488 21.8231 46.8676 17.1921C38.8059 12.6317 29.6416 11.4844 23.4173 11.4844C23.222 11.4844 23.0281 11.4858 22.8396 11.4885Z" fill="white"/>
<path d="M0 40.5352C9.37174 44.7851 20.4901 47.8823 31.1189 47.8823C39.5807 47.8823 49.701 46.232 62.2283 40.5352C48.524 34.38 39.0275 33.2002 31.1189 33.1962C20.7844 33.2002 9.22936 36.2649 0 40.5352Z" fill="white"/>
</svg>
