<svg width="92" height="66" viewBox="0 0 92 66" fill="none" xmlns="http://www.w3.org/2000/svg">
<g clip-path="url(#clip0)">
<path d="M0 66H92V-3.01541e-05H0V66Z" fill="white"/>
<path d="M15.9639 47.9607C15.8066 47.3835 15.4944 46.2649 13.8529 46.2649C12.8989 46.2649 11.457 46.9503 11.457 49.6475C11.457 51.3602 12.1777 52.9472 13.8529 52.9472C14.9553 52.9472 15.7287 52.2788 15.9639 51.1074H17.9454C17.5528 53.1885 16.2017 54.635 13.8167 54.635C11.2882 54.635 9.47803 52.9084 9.47803 49.62C9.47803 46.2764 11.393 44.5807 13.8415 44.5807C16.6881 44.5807 17.8372 46.5536 17.9454 47.9607H15.9639Z" fill="#121112"/>
<path d="M20.372 49.9903L22.7014 47.3042H24.9703L22.4939 50.0402L25.0368 54.3857H22.82L21.1399 51.3442L20.372 52.1492V54.3857H18.5231V47.3042H20.372V49.9903Z" fill="#121112"/>
<path d="M31.8002 50.8311C31.8002 53.3837 30.0952 54.5715 28.2076 54.5715C26.3229 54.5715 24.604 53.4012 24.604 50.8476C24.604 48.292 26.3229 47.1201 28.2076 47.1201C30.0952 47.1201 31.8002 48.278 31.8002 50.8311ZM26.505 50.8311C26.505 51.7383 26.779 53.0009 28.2076 53.0009C29.6366 53.0009 29.8987 51.7523 29.8987 50.8476C29.8987 49.9374 29.6366 48.6883 28.2076 48.6883C26.779 48.6883 26.505 49.9234 26.505 50.8311Z" fill="#121112"/>
<path d="M38.7459 47.3037V54.3857H36.897V48.7941H34.9185V50.9778C34.9185 53.6864 34.1065 54.5408 32.8075 54.5408C32.4844 54.5408 31.9562 54.4884 31.6827 54.3857V53.001C31.721 53.0285 31.9562 53.0539 32.2297 53.0539C32.7851 53.0539 33.0725 52.7787 33.0725 50.6224V47.3037H38.7459Z" fill="#121112"/>
<path d="M41.5417 49.9903L43.8711 47.3042H46.14L43.6611 50.0402L46.2065 54.3857H43.9897L42.3125 51.3442L41.5417 52.1492V54.3857H39.6927V47.3042H41.5417V49.9903Z" fill="#121112"/>
<path d="M52.9718 50.8311C52.9718 53.3837 51.2698 54.5715 49.3821 54.5715C47.4945 54.5715 45.7786 53.4012 45.7786 50.8476C45.7786 48.292 47.4945 47.1201 49.3821 47.1201C51.2698 47.1201 52.9718 48.278 52.9718 50.8311ZM47.6801 50.8311C47.6801 51.7383 47.9536 53.0009 49.3821 53.0009C50.8047 53.0009 51.0762 51.7523 51.0762 50.8476C51.0762 49.9374 50.8047 48.6883 49.3821 48.6883C47.9536 48.6883 47.6801 49.9234 47.6801 50.8311Z" fill="#121112"/>
<path d="M53.5698 47.3044H56.7535C58.3284 47.3044 59.4805 47.9514 59.4805 49.1337C59.4805 49.9492 58.9032 50.4736 58.1676 50.6595C58.8888 50.8325 59.6899 51.295 59.6899 52.453C59.6899 53.7649 58.7012 54.387 57.1039 54.387H53.5698V47.3044ZM55.4153 50.1715H56.6204C57.2339 50.1715 57.6683 49.9248 57.6683 49.3695C57.6683 48.7918 57.2503 48.5815 56.6343 48.5815H55.4153V50.1715ZM55.4153 53.1104H56.7748C57.4578 53.1104 57.8807 52.8996 57.8807 52.1997C57.8807 51.5812 57.4355 51.295 56.7535 51.295H55.4153V53.1104Z" fill="#121112"/>
<path d="M67.0884 50.8311C67.0884 53.3837 65.3889 54.5715 63.4988 54.5715C61.6136 54.5715 59.8922 53.4012 59.8922 50.8476C59.8922 48.292 61.6136 47.1201 63.4988 47.1201C65.3889 47.1201 67.0884 48.278 67.0884 50.8311ZM61.7938 50.8311C61.7938 51.7383 62.0722 53.0009 63.4988 53.0009C64.9273 53.0009 65.1874 51.7523 65.1874 50.8476C65.1874 49.9374 64.9273 48.6883 63.4988 48.6883C62.0722 48.6883 61.7938 49.9234 61.7938 50.8311Z" fill="#121112"/>
<path d="M22.9183 42.98C24.4937 42.98 28.3733 42.7028 31.2725 40.5769V42.1894H37.1221L37.128 35.0989L39.5706 32.5598L44.8876 42.1894H51.9061L43.8512 28.4301L51.6966 19.7579H44.5118L37.128 28.2666V11.9212H31.2725V14.5072C29.4896 12.5847 26.5993 11.1307 22.0923 11.1307C12.3369 11.1307 10.5054 17.0907 10.5054 20.4269C10.5054 25.0112 12.9593 27.5588 17.234 28.5995L23.2945 30.0979C26.4911 30.8914 28.7768 31.4741 28.7768 33.8503C28.7768 37.0194 25.4527 37.7686 22.4626 37.7686C16.9823 37.7686 16.0705 34.5601 16.0705 32.8514H10.0492C10.0492 36.6027 11.9587 42.98 22.9183 42.98ZM26.906 24.9309L19.5609 23.135C18.3121 22.8439 16.3604 22.3414 16.3604 19.9688C16.3604 17.2577 19.2264 16.3395 21.6337 16.3395C27.1135 16.3395 27.6138 19.5526 27.7766 20.9263H31.2725V26.5683C29.9899 25.8162 28.476 25.3277 26.906 24.9309Z" fill="#121112"/>
</g>
<defs>
<clipPath id="clip0">
<rect width="92" height="66" fill="white"/>
</clipPath>
</defs>
</svg>
