<svg width="90" height="68" viewBox="0 0 90 68" fill="none" xmlns="http://www.w3.org/2000/svg">
<g clip-path="url(#clip0)">
<path d="M90.0009 29.1982H57.2648V20.8572H90.0009V29.1982Z" fill="#C4C4C4"/>
<path d="M85.7489 29.1984H57.2648V8.33667H85.7489V29.1984Z" fill="#DCDCDC"/>
<path d="M73.9808 29.1984H57.2648V0H73.9808V29.1984Z" fill="#B5B5B5"/>
<path d="M77.2694 29.1986H57.2648V3.2583H77.2694V29.1986Z" fill="white"/>
<path d="M57.2578 3.26294V29.1956H73.9766V3.26294H57.2578Z" fill="#E6E6E6"/>
<path d="M40.5021 29.1985H57.2644V33.3694H40.5021V29.1985Z" fill="white"/>
<path d="M57.2578 8.33203V29.1957H77.2767V8.33203H57.2578Z" fill="#999999"/>
<path d="M57.2578 8.33203V29.1957H73.9766V8.33203H57.2578Z" fill="white"/>
<path d="M67.7182 29.1983H57.2648V16.6768H67.7182V29.1983Z" fill="#F0F0F0"/>
<path d="M57.2578 20.8633V29.1957H85.7563V20.8633H57.2578Z" fill="#F7F7F7"/>
<path d="M57.2578 20.8633V29.1957H77.2767V20.8633H57.2578Z" fill="#CECECE"/>
<path d="M57.2578 20.8633V29.1957H73.9766V20.8633H57.2578Z" fill="#EDEDED"/>
<path d="M57.2578 20.8633V29.1957H67.7262V20.8633H57.2578Z" fill="white"/>
<path d="M60.9097 44.9079C58.0576 45.4127 56.5365 47.5579 56.5365 51.2804C56.5365 55.066 58.5647 57.5897 61.5435 57.5897C63.0013 57.5897 64.2689 57.0849 66.9308 55.76C66.9308 58.8515 66.9308 58.8515 66.9308 58.8515C63.6985 60.3658 61.797 60.7443 59.2618 60.7443C56.4097 60.7443 54.3816 60.0503 52.797 58.3468C51.1492 56.7064 50.2618 54.5612 50.2618 52.1006C50.2618 46.7376 54.3182 43.0151 60.2125 43.0151C64.0787 43.0151 66.8041 44.8448 66.8041 47.4317C66.8041 49.1352 65.5365 50.334 63.6985 50.334C62.7477 50.334 61.9872 50.0185 60.9097 49.4507" fill="white"/>
<path d="M46.6452 52.1005C49.2438 48.8828 50.1945 47.5578 50.1945 45.9805C50.1945 44.4032 48.9269 43.0151 47.1522 43.0151C46.1382 43.0151 45.1875 43.583 44.7438 44.0877C44.7438 50.7125 44.7438 50.7125 44.7438 50.7125C40.4973 56.3909 40.4973 56.3909 40.4973 56.3909C40.4973 43.5199 40.4973 43.5199 40.4973 43.5199C36.441 43.5199 36.441 43.5199 36.441 43.5199C29.7227 54.5612 29.7227 54.5612 29.7227 54.5612C29.7227 43.5199 29.7227 43.5199 29.7227 43.5199C27.441 43.5199 27.441 43.5199 27.441 43.5199C21.2931 44.9079 21.2931 44.9079 21.2931 44.9079C21.2931 46.4853 21.2931 46.4853 21.2931 46.4853C24.6522 46.8007 24.6522 46.8007 24.6522 46.8007C24.6522 60.4919 24.6522 60.4919 24.6522 60.4919C28.8987 60.4919 28.8987 60.4919 28.8987 60.4919C35.3635 49.8923 35.3635 49.8923 35.3635 49.8923C35.3635 60.4919 35.3635 60.4919 35.3635 60.4919C40.117 60.4919 40.117 60.4919 40.117 60.4919" fill="white"/>
<path d="M8.42958 58.3468C8.93662 58.3468 9.06338 58.3468 9.38028 58.3468C12.8028 58.3468 14.7042 56.2647 14.7042 52.1006C14.7042 48.6305 13.1831 46.7377 10.331 46.7377C9.9507 46.7377 9.38028 46.8008 8.42958 46.99V58.3468ZM8.42958 65.7918C11.2183 66.4227 11.2183 66.4227 11.2183 66.4227C11.2183 68 11.2183 68 11.2183 68C0.25352 68 0.253522 68 0.253522 68C0.253522 66.4227 0.253522 66.4227 0.253522 66.4227C2.78873 65.7918 2.78873 65.7918 2.78873 65.7918C2.78873 46.7377 2.78873 46.7377 2.78873 46.7377C-3.43323e-07 46.7377 0 46.7377 0 46.7377C0 45.1603 0 45.1603 0 45.1603C6.65493 43.1414 6.65493 43.1414 6.65493 43.1414C8.42958 43.1414 8.42958 43.1414 8.42958 43.1414C8.42958 45.4127 8.42958 45.4127 8.42958 45.4127C11.5352 43.5199 12.6127 43.2045 14.2606 43.2045C17.9366 43.2045 20.7253 46.6115 20.7253 51.3435C20.7253 56.7695 16.9859 60.492 11.2817 60.492C10.6479 60.492 9.57042 60.4289 8.42958 60.3658" fill="white"/>
</g>
<defs>
<clipPath id="clip0">
<rect width="90" height="68" fill="white"/>
</clipPath>
</defs>
</svg>
