<svg width="98" height="75" viewBox="0 0 98 75" fill="none" xmlns="http://www.w3.org/2000/svg">
<g clip-path="url(#clip0)">
<path d="M5.38131 65.4894H0V62.1711H14.6811V65.4894H9.29975V74.6341H5.38131V65.4894Z" fill="white"/>
<path d="M16.0657 74.608V62.1973H19.9841V74.608H16.0657Z" fill="white"/>
<path d="M32.7248 68.9905V62.1711H36.3297V74.5819H32.986L26.2724 67.7364V74.608H22.6675V62.1973H26.1679L32.7248 68.9905Z" fill="white"/>
<path d="M42.8535 74.608H39.0657V62.1973H42.8535V66.8741H43.8984L48.4699 62.1973H53.2243L47.1638 68.1544L53.4594 74.6341H48.4111L43.8984 69.8919H42.8535V74.608Z" fill="white"/>
<path d="M69.4667 68.4158C69.4667 72.1259 66.4103 75 61.3425 75C56.2746 75 53.1921 72.1259 53.1921 68.4158C53.1921 64.7056 56.2485 61.8315 61.3425 61.8315C66.4364 61.8315 69.4667 64.7056 69.4667 68.4158ZM65.496 68.4158C65.496 66.3778 63.8503 64.8885 61.3425 64.8885C58.8347 64.8885 57.1889 66.3778 57.1889 68.4158C57.1889 70.4537 58.8086 71.9692 61.3425 71.9692C63.8764 71.9692 65.496 70.4537 65.496 68.4158Z" fill="white"/>
<path d="M75.104 65.3197V67.5667H83.4633V70.1794H75.104V74.5951H71.3162V62.1843H83.7768V65.3197H75.104Z" fill="white"/>
<path d="M89.3272 65.3197V67.5667H97.6866V70.1795H89.3272V74.5951H85.5525V62.1843H98.0131V65.3197H89.3272Z" fill="white"/>
<path fill-rule="evenodd" clip-rule="evenodd" d="M37.0952 35.24C37.7483 34.6978 38.3426 34.43 38.3164 33.1236C37.2911 33.6462 34.398 33.6201 33.1768 31.9479C32.8306 31.471 33.1768 31.2359 33.5294 31.6082C34.3588 32.5488 35.8935 32.1242 36.4552 31.8499C36.3552 31.5015 36.1714 31.183 35.9197 30.9224C36.1286 30.7133 36.7229 30.4063 36.847 29.8772C36.3324 29.7222 35.8025 29.6237 35.2666 29.5833C35.4278 29.4422 35.5427 29.2558 35.5963 29.0484C35.6499 28.8409 35.6397 28.6221 35.567 28.4206C34.3066 28.806 32.7523 28.2834 32.3996 27.8131C32.0469 27.3428 32.3996 26.9248 32.7 27.2253C33.3531 27.8785 36.416 28.6362 37.5654 27.4931C37.1582 27.386 36.8048 27.1325 36.5727 26.7811C37.6372 26.6766 38.4862 26.0495 38.5319 25.2657C37.824 25.3138 37.1142 25.2022 36.4552 24.9391C36.6922 24.8888 36.9105 24.7736 37.0859 24.6064C37.2612 24.4391 37.3865 24.2264 37.4478 23.9919C35.4886 23.8744 35.345 22.4308 35.3384 22.1891C36.6054 22.9207 38.8389 22.5941 38.2577 20.7978C37.2062 20.739 36.1417 19.0342 39.0413 17.4665C41.6536 16.0425 44.6708 14.501 44.4096 11.9731C44.2333 10.3532 41.5687 9.2493 41.2291 8.42627C40.1189 8.95536 39.923 9.56936 40.3932 10.6014C40.3932 10.6014 37.9115 10.8496 37.7156 9.29502C37.7153 8.94728 37.7925 8.60384 37.9416 8.2897C38.0907 7.97557 38.308 7.69866 38.5777 7.47914C38.2968 7.47914 36.4291 6.97618 35.8674 8.50466C34.816 7.79267 33.9082 7.81227 33.2159 8.56997C34.3392 9.22317 35.038 11.529 36.8993 12.2083C35.5931 12.9268 33.4315 12.6263 32.1841 10.4185C31.002 12.2017 30.3228 13.9654 32.8372 15.8466C28.2199 17.9499 28.2657 21.9605 24.2427 23.8744C24.6542 24.9652 25.5097 24.9652 26.6003 24.7954C24.8632 27.0489 26.3456 29.4135 23.5962 30.3737C23.8509 31.2947 24.3668 32.0263 25.3856 31.7584C25.0983 32.2092 24.9089 32.1961 24.4582 32.6925C25.9603 33.6397 27.7236 32.9538 28.1481 29.9164C28.2199 29.3743 28.9644 29.7139 28.7097 30.243C26.9987 33.7834 31.322 36.4484 29.7938 39.0481C31.1457 38.9893 32.171 38.8848 32.7392 38.4276C33.0198 38.9194 33.1514 39.4822 33.118 40.0475C33.3978 40.0218 33.6592 39.8972 33.8555 39.6961C34.0518 39.495 34.17 39.2305 34.189 38.9501C34.6788 40.3741 36.4225 41.8961 39.2242 41.8961C37.7417 39.7862 39.1197 37.6372 37.0233 35.2204L37.0952 35.24ZM34.2609 37.8332L33.66 38.8522C33.4258 38.2126 33.142 37.5924 32.811 36.9971C32.3343 37.9899 31.5702 38.0095 30.8518 38.0095C31.0739 35.6515 28.0828 33.2673 29.3889 30.5631C29.4568 30.4346 29.4984 30.294 29.5115 30.1493C29.5245 30.0046 29.5087 29.8587 29.465 29.7202C29.4213 29.5816 29.3504 29.4532 29.2567 29.3422C29.1629 29.2312 29.048 29.14 28.9187 29.0738C26.9203 28.0614 27.8477 32.2679 25.8493 32.392C26.1236 31.9054 26.3198 31.3785 26.4305 30.8309C26.006 30.942 24.9872 31.5886 24.5301 30.7591C24.9972 30.5039 25.395 30.1385 25.6886 29.6945C25.9823 29.2505 26.163 28.7414 26.215 28.2116C26.3149 27.4336 26.5079 26.6704 26.7897 25.9385C27.2124 25.1936 27.709 24.4934 28.2722 23.8482C28.0697 23.8482 25.8232 24.3512 25.3203 24.116C29.2061 21.7319 28.331 18.6945 34.2478 15.9968C32.6935 14.8407 31.1065 13.9262 32.2429 11.7184C33.8625 13.678 36.945 13.0248 38.6103 12.0842C36.9646 11.7576 34.8421 10.3075 34.3392 8.69408C34.9923 8.5961 35.7629 9.26889 36.2266 9.58243C36.4486 8.98802 36.5401 8.27604 37.2585 8.1454C36.2984 10.2095 38.1989 11.2807 40.0144 11.2873C40.2952 11.2873 41.4708 11.1697 41.4708 11.1697C41.2814 10.7843 40.5238 9.73266 41.0789 9.30155C41.523 9.7196 42.052 10.0527 42.5353 10.4185C46.0619 13.1489 40.8569 15.6768 38.7279 16.8264C35.3841 18.6292 36.2788 20.7782 37.6764 21.3269C37.6764 21.5686 37.5197 21.6796 37.2911 21.7515C36.318 22.0781 35.3972 21.3792 34.62 20.935C34.6658 22.2806 34.5743 23.5478 36.0633 24.3185L35.038 24.6974C35.9197 25.3506 36.1874 25.7229 37.2519 25.8601C36.7264 26.0504 36.1717 26.1476 35.6127 26.1475C35.7168 26.5791 35.8935 26.99 36.1352 27.3624C33.9604 27.6237 33.0919 26.3761 32.4192 26.4284C30.9824 26.5329 31.0739 29.2371 34.607 29.2371L34.2413 29.8446C34.6465 30.0737 35.0884 30.2306 35.5474 30.3084C35.3123 30.4978 35.0837 30.7525 34.8943 30.9615L35.456 31.4449C34.0127 31.7062 33.6078 30.1385 32.6739 30.9093C31.2502 32.0393 34.3915 34.4235 37.4087 34.0708C37.0166 34.4562 36.5928 34.808 36.1417 35.1224C38.5973 37.4413 37.3891 39.6295 38.3948 41.2298C37.4469 41.1737 36.5419 40.8156 35.8121 40.2079C35.0824 39.6003 34.5662 38.775 34.3392 37.8528" fill="#DEE0E2"/>
<path fill-rule="evenodd" clip-rule="evenodd" d="M30.4597 29.3937C30.9691 29.9228 31.5895 29.9816 32.7585 29.9032C31.4524 29.7464 30.747 29.4329 30.2964 28.5968C30.226 28.1272 30.1824 27.6539 30.1658 27.1794C30.2054 25.5122 30.6684 23.8826 31.5111 22.4437C31.5428 23.2159 31.8435 23.9527 32.3611 24.5265C32.8788 25.1003 33.5807 25.4749 34.3455 25.5856C32.5822 24.8148 31.5438 23.0773 32.112 21.3986C32.4777 20.8107 32.8957 20.2032 33.3593 19.5892C33.5944 19.2887 33.8165 19.0079 34.0124 18.7401C33.7773 19.5957 34.8092 20.4841 35.5079 20.6278C35.1292 20.262 34.3259 19.0667 36.161 17.0744C35.6201 17.331 35.1079 17.6441 34.6328 18.0085C38.0157 14.3506 40.7978 14.2461 42.0778 12.4041C40.2231 13.6713 35.3251 14.3636 33.1242 13.7562C34.3389 14.5661 37.2712 14.4943 37.9831 14.344C35.5928 16.6694 30.3813 19.0667 29.4931 21.2026C30.3176 20.2105 31.4359 19.506 32.6867 19.1908C31.8334 20.3627 31.1025 21.619 30.5054 22.9401C29.1209 25.9513 27.2401 25.9905 27.1421 28.4792C27.7952 26.5196 29.0621 26.0624 29.9503 24.7952C29.7819 25.6972 29.714 26.6151 29.7478 27.5321C29.7701 28.5603 29.9781 29.576 30.3617 30.5303C30.2703 31.7583 30.3617 33.855 31.792 35.2463C31.0135 34.0931 30.635 32.7163 30.7144 31.3272C31.8181 33.4566 34.9594 36.396 36.481 38.3686C34.9594 35.8277 31.2564 32.8622 30.4336 29.4329" fill="#DEE0E2"/>
<path fill-rule="evenodd" clip-rule="evenodd" d="M65.2596 19.1649C66.51 19.481 67.6281 20.1853 68.4532 21.1767C67.5519 19.0408 62.3339 16.6435 59.9632 14.3182C60.6816 14.4684 63.6139 14.5468 64.8286 13.7303C62.6278 14.3312 57.7232 13.6454 55.875 12.3782C57.1811 14.2202 59.9371 14.3378 63.32 17.9826C62.8451 17.618 62.3329 17.3049 61.7918 17.0485C63.6531 19.0408 62.8498 20.2296 62.4449 20.6019C63.1372 20.4517 64.1756 19.5699 63.9404 18.7142C64.1625 18.982 64.3911 19.2694 64.5935 19.5633C65.0572 20.1773 65.4686 20.7848 65.8344 21.3727C66.396 23.0514 65.3576 24.7889 63.6008 25.5597C64.3649 25.4489 65.0661 25.074 65.5826 24.5C66.0992 23.9261 66.3985 23.1894 66.4286 22.4178C67.2728 23.8561 67.7358 25.4861 67.774 27.1535C67.7574 27.628 67.7138 28.1013 67.6434 28.5709C67.1927 29.4266 66.4678 29.7401 65.1878 29.8773C66.3568 29.9492 66.9707 29.8773 67.4866 29.3678C66.6833 32.7906 62.9608 35.7626 61.4392 38.3035C62.9608 36.3439 66.1021 33.3915 67.2058 31.2621C67.2847 32.6512 66.9062 34.0279 66.1282 35.1813C67.5323 33.7965 67.6434 31.6997 67.5519 30.4652C67.9338 29.5104 68.1417 28.495 68.1658 27.467C68.202 26.55 68.1341 25.6318 67.9634 24.7301C68.8515 25.9973 70.1381 26.4807 70.7716 28.4141C70.654 25.9255 68.8124 25.8863 67.4083 22.875C66.8125 21.5533 66.0815 20.2968 65.227 19.1257" fill="#DEE0E2"/>
<path fill-rule="evenodd" clip-rule="evenodd" d="M71.2955 24.8215C72.3861 24.9913 73.2547 24.9913 73.6531 23.9005C69.6367 21.9866 69.6693 17.976 65.0586 15.8727C67.5926 13.9915 66.9134 12.2213 65.7117 10.4446C64.4644 12.6524 62.3157 12.9529 60.9965 12.2344C62.8578 11.5812 63.5566 9.26234 64.6799 8.59608C64.0007 7.83837 63.0994 7.79265 62.0415 8.49157C61.4733 6.96962 59.612 7.46605 59.3312 7.46605C59.6008 7.68558 59.8181 7.96249 59.9673 8.27662C60.1164 8.59075 60.1936 8.93419 60.1933 9.28194C59.9973 10.8104 57.5222 10.5883 57.5222 10.5883C58.0185 9.55628 57.803 8.94227 56.6863 8.41319C56.3467 9.23621 53.6821 10.3401 53.5123 11.96C53.2446 14.4944 56.2422 16.0295 58.8741 17.4534C61.7737 19.0211 60.7092 20.7194 59.6577 20.7847C59.0765 22.5875 61.31 22.9076 62.577 22.176C62.577 22.4177 62.4137 23.8613 60.4675 23.9789C60.5289 24.2133 60.6542 24.426 60.8295 24.5933C61.0049 24.7605 61.2232 24.8757 61.4602 24.926C60.8009 25.1881 60.0914 25.2996 59.3834 25.2526C59.4553 26.0364 60.3043 26.6635 61.3427 26.768C61.1174 27.1284 60.7657 27.3916 60.3565 27.5061C61.5059 28.6492 64.595 27.898 65.2219 27.2383C65.5093 26.9378 65.875 27.3689 65.5223 27.8196C65.1697 28.2704 63.6154 28.8125 62.3549 28.4271C62.2891 28.6317 62.2862 28.8513 62.3468 29.0575C62.4073 29.2637 62.5285 29.4469 62.6945 29.5833C62.1696 29.6259 61.6508 29.7245 61.1467 29.8772C61.2643 30.4063 61.8651 30.7133 62.0741 30.9223C61.8179 31.1818 61.6295 31.5003 61.5255 31.8499C62.0872 32.1242 63.6284 32.5488 64.4513 31.6082C64.7844 31.2359 65.1501 31.471 64.8105 31.9478C63.5958 33.62 60.6961 33.6462 59.6708 33.1236C59.6708 34.43 60.2063 34.6978 60.892 35.2465C58.7957 37.6633 60.1802 39.8189 58.6977 41.9222C61.4929 41.9222 63.2692 40.4002 63.7329 38.9762C63.7519 39.2566 63.8701 39.5211 64.0664 39.7222C64.2627 39.9233 64.5242 40.0479 64.8039 40.0736C64.7731 39.5085 64.9045 38.9465 65.1827 38.4537C65.7509 38.9109 66.7828 39.0154 68.1281 39.0742C66.5999 36.4614 70.9298 33.816 69.2122 30.2691C68.9575 29.74 69.702 29.4004 69.7738 29.9425C70.1722 32.9734 71.9616 33.6658 73.4637 32.7186C73.0131 32.2222 72.8106 32.2353 72.5363 31.7845C73.5486 32.0524 74.0645 31.3208 74.3257 30.3998C71.5763 29.433 73.0588 27.075 71.3216 24.8215H71.2955ZM71.5502 30.8505C71.6549 31.4009 71.8491 31.9305 72.1249 32.4182C70.1265 32.2875 71.0538 28.0809 69.0554 29.0934C68.9261 29.1596 68.8113 29.2508 68.7175 29.3618C68.6237 29.4727 68.5529 29.6012 68.5092 29.7397C68.4654 29.8783 68.4496 30.0241 68.4627 30.1688C68.4757 30.3135 68.5174 30.4542 68.5852 30.5827C69.8914 33.2869 66.9134 35.6711 67.0832 38.0422C66.3452 38.0422 65.5811 38.0422 65.124 37.0297C64.7933 37.6251 64.5095 38.2454 64.275 38.8848L63.6741 37.8658C63.4462 38.7875 62.9298 39.6122 62.2002 40.2197C61.4707 40.8272 60.5661 41.1857 59.6186 41.2428C60.6243 39.6425 59.4161 37.4608 61.8717 35.1354C61.4202 34.8216 60.9963 34.4698 60.6047 34.0838C63.6219 34.4431 66.7632 32.0524 65.3329 30.9223C64.399 30.1842 63.9876 31.7192 62.5508 31.458L63.1125 30.9746C62.9166 30.7786 62.688 30.5239 62.4594 30.3214C62.9185 30.2441 63.3605 30.0871 63.7656 29.8576L63.3476 29.2501C66.8807 29.2501 66.9656 26.5459 65.5354 26.4414C64.8823 26.3891 63.9876 27.6302 61.8194 27.3755C62.0584 27.0016 62.2349 26.5912 62.3419 26.1605C61.7829 26.1605 61.2283 26.0633 60.7027 25.8731C61.7672 25.736 62.0088 25.3767 62.9166 24.7104L61.8912 24.3316C63.3476 23.5869 63.2823 22.2936 63.3476 20.948C62.5704 21.3987 61.6496 22.0911 60.6831 21.7645C60.4545 21.6861 60.2978 21.5816 60.2978 21.3399C61.6953 20.7913 62.5835 18.6422 59.2463 16.8394C57.0912 15.6767 51.8862 13.1554 55.4128 10.4512C55.896 10.0854 56.4185 9.75224 56.8626 9.33419C57.4177 9.75877 56.6601 10.8104 56.4707 11.2023C56.4707 11.2023 57.6463 11.3199 57.9206 11.3199C59.7361 11.3199 61.6431 10.2356 60.6831 8.17804C61.408 8.32827 61.4929 9.02066 61.7084 9.61507C62.1721 9.30153 62.9753 8.62874 63.5958 8.72672C63.0929 10.3401 60.9835 11.7902 59.3247 12.1168C60.99 13.0248 64.0725 13.6975 65.6921 11.751C66.8285 13.9523 65.248 14.8733 63.6872 16.0295C69.6106 18.7337 68.7354 21.7645 72.6212 24.1487C72.1184 24.3838 69.8653 23.9135 69.6693 23.8809C70.2357 24.5249 70.7347 25.2253 71.1583 25.9711C71.4395 26.7033 71.6325 27.4664 71.733 28.2442C71.7878 28.7733 71.9696 29.2812 72.2629 29.7248C72.5563 30.1683 72.9526 30.5344 73.418 30.7917C72.9608 31.6213 71.9486 30.9746 71.5241 30.8635" fill="#DEE0E2"/>
<path fill-rule="evenodd" clip-rule="evenodd" d="M43.3242 37.4738L44.1667 36.7553L44.0361 36.494C43.9446 36.3111 43.9903 36.298 44.0883 36.2262L44.5389 35.9257C44.587 35.8898 44.6434 35.8668 44.7028 35.8588C44.7622 35.8508 44.8227 35.8581 44.8785 35.88L46.1847 36.1935H44.8067C44.6875 36.1899 44.5704 36.2257 44.4736 36.2953C44.3767 36.365 44.3056 36.4647 44.2712 36.5789L44.1732 36.7814L43.8075 37.526C43.7226 37.6837 43.6901 37.8643 43.7148 38.0416C43.7395 38.219 43.82 38.3839 43.9446 38.5124L44.1993 38.8128L43.6769 39.8449H44.1144L44.4736 39.1133C44.7746 38.8375 44.9995 38.4888 45.1267 38.1009C44.9765 37.9768 44.8655 37.8918 44.9504 37.7155L45.1136 37.3693C45.1659 37.2517 45.1855 37.206 45.3422 37.2386L46.7463 37.5456C46.8513 37.5983 46.9718 37.6114 47.0857 37.5826C47.1995 37.5538 47.2993 37.4851 47.3667 37.3889C47.5626 37.0949 47.5888 37.1276 48.0198 37.1733L48.7382 37.2517C49.5464 37.3557 50.3666 37.1953 51.0762 36.7945C51.237 37.0623 51.4114 37.3217 51.5986 37.5718C51.6444 37.6567 51.5986 37.7808 51.5072 37.9376L50.73 39.8449H51.9709L52.6762 38.0878C52.727 37.9502 52.8072 37.8253 52.9113 37.722L52.5064 39.8449H53.7081L54.0281 37.7416C54.0999 37.2778 54.0281 37.1276 53.8321 36.9316C53.3293 36.5071 53.3423 35.6252 53.1791 35.0766C53.2702 35.0249 53.3756 35.0043 53.4795 35.0178C53.7407 35.0178 53.9366 35.7167 54.2501 36.1413C54.864 37.01 55.7065 37.9637 56.673 36.6181C56.5806 36.468 56.4758 36.326 56.3595 36.1935L56.0918 35.88C55.935 35.7036 55.1905 34.8545 54.8771 34.5736C54.5887 34.2869 54.2125 34.1054 53.8087 34.058C53.4049 34.0106 52.9969 34.1002 52.6501 34.3123C51.6705 33.8028 50.6386 34.3123 50.3905 34.3123L48.7055 34.2078C48.6498 34.2057 48.5955 34.1897 48.5475 34.1612C48.4996 34.1326 48.4596 34.0925 48.4312 34.0445L48.7447 33.94C48.4508 32.7185 47.7129 31.693 46.4263 31.5232C46.4263 31.5232 46.3479 31.1378 46.1585 31.0594L45.7732 31.5101C45.6609 31.5263 45.5511 31.557 45.4467 31.6016L43.801 30.9875L45.0614 32.2221C45.0614 32.2221 44.4083 33.13 44.2189 33.3129C44.1587 33.3751 44.125 33.4582 44.125 33.5448C44.125 33.6314 44.1587 33.7145 44.2189 33.7767L44.4606 34.0902C44.5846 34.2535 44.7218 34.247 44.9177 34.1425L45.1855 34.0053C45.303 33.9073 45.7014 34.1033 45.8385 33.9465C45.7653 34.2661 45.7237 34.5921 45.7145 34.9198L44.6042 34.7892C44.5171 34.7671 44.426 34.7662 44.3385 34.7867C44.251 34.8072 44.1697 34.8483 44.1014 34.9067L43.1544 35.6318C43.0002 35.752 42.8939 35.9232 42.8544 36.1147C42.8149 36.3062 42.8448 36.5055 42.9389 36.6769L43.3242 37.4738ZM52.4672 37.6828L51.7227 39.5314H51.259L52.0101 37.7416C52.0884 37.513 51.9382 37.4019 51.7554 37.1472C52.0161 37.3003 52.2892 37.4314 52.5717 37.5391C52.5368 37.584 52.5062 37.6322 52.4803 37.6828H52.4672ZM45.2377 33.6722L45.0222 33.7832C44.872 33.8681 44.8002 33.9073 44.6695 33.744L44.5781 33.6265C44.5486 33.5801 44.5357 33.5251 44.5417 33.4705C44.5476 33.4159 44.572 33.3649 44.6108 33.326L45.5316 32.2482L44.6826 31.5493L45.7667 31.9477L46.1651 31.4513C46.2826 31.5493 46.2434 31.8367 46.2434 31.8367C46.7502 31.9396 47.2043 32.2182 47.5257 32.6233C47.8471 33.0284 48.0152 33.5341 48.0002 34.051C48.1507 34.2808 48.3851 34.4426 48.6533 34.5017L50.5276 34.6128C50.8345 34.6128 51.6117 34.0184 52.6109 34.6128C52.8512 34.4541 53.123 34.3493 53.4076 34.3058C53.8133 34.3161 54.21 34.428 54.5613 34.6311C54.9127 34.8342 55.2076 35.1221 55.4191 35.4685C55.7652 35.9257 56.2485 36.5789 56.2485 36.5789C56.0395 36.8271 55.8371 36.9055 55.6673 36.8467C55.5502 36.7788 55.4508 36.6843 55.3771 36.5708C55.3033 36.4573 55.2573 36.3281 55.2428 36.1935C55.1054 35.8551 54.8799 35.5596 54.5897 35.3378C54.7278 35.6505 54.8244 35.9799 54.8771 36.3176C54.1456 35.5926 54.0085 34.7042 53.4925 34.5867C53.3512 34.5652 53.2067 34.5845 53.076 34.6424C52.9453 34.7003 52.8338 34.7942 52.7546 34.9133C53.0158 35.5142 53.0027 36.2197 53.264 36.6704C53.4664 37.0166 53.5056 37.0492 53.597 37.1276C53.8125 37.2844 53.6885 37.5587 53.6558 37.7808L53.375 39.5183H52.9113L53.2183 37.8135C53.3097 37.2974 51.8533 37.2974 51.1088 36.3046C50.4558 37.0492 48.6925 36.8598 47.9218 36.7422C47.7789 36.6905 47.6225 36.6903 47.4795 36.7416C47.3364 36.7928 47.2157 36.8924 47.1382 37.0231C47.0402 37.1994 46.8704 37.1472 46.7659 37.1211L45.3618 36.8206C45.3175 36.801 45.2696 36.791 45.2211 36.7915C45.1727 36.7919 45.125 36.8027 45.081 36.8231C45.0371 36.8435 44.9981 36.8731 44.9665 36.9098C44.935 36.9466 44.9117 36.9896 44.8981 37.0361L44.6173 37.6175C44.5816 37.6714 44.5672 37.7367 44.5769 37.8006C44.5865 37.8646 44.6195 37.9227 44.6695 37.9637L44.8067 38.1074C44.7401 38.2969 44.6253 38.4657 44.4736 38.5973L44.1667 38.2511C44.0992 38.157 44.0598 38.0457 44.0528 37.9302C44.0459 37.8146 44.0718 37.6994 44.1275 37.5979L44.5846 36.6508C44.614 36.5856 44.6618 36.5304 44.7222 36.4921C44.7825 36.4538 44.8528 36.434 44.9242 36.4352H46.6614L46.1259 35.5665C45.7275 34.9133 46.3871 33.7571 46.2892 33.2084C46.2369 33.94 45.3553 33.6069 45.2116 33.7048L45.2377 33.6722ZM43.3503 35.8604L44.1732 35.2072C44.2251 35.1508 44.289 35.1068 44.3603 35.0785C44.4315 35.0502 44.5082 35.0384 44.5846 35.0439L45.7471 35.1941C45.7994 35.3914 45.8832 35.5789 45.9953 35.7494L44.761 35.4881C44.6921 35.4714 44.6202 35.4722 44.5518 35.4905C44.4833 35.5088 44.4205 35.5438 44.3691 35.5926L43.7814 36.0368C43.7289 36.0833 43.6948 36.147 43.6852 36.2165C43.6756 36.286 43.6912 36.3566 43.7291 36.4156L43.8271 36.6181L43.4156 36.9251L43.2589 36.6312C43.1022 36.3176 43.0891 36.0302 43.3503 35.8277" fill="#DEE0E2"/>
<path fill-rule="evenodd" clip-rule="evenodd" d="M46.9269 13.5342C47.3242 13.7855 47.7414 14.004 48.1742 14.1874V13.6583L46.4175 13.0051C46.4175 13.0051 46.4175 13.2207 46.9269 13.5669" fill="#DEE0E2"/>
<path fill-rule="evenodd" clip-rule="evenodd" d="M48.1772 12.8941V12.3651L46.1853 11.6531C46.4132 11.8773 46.6626 12.0785 46.9298 12.254C47.3268 12.5059 47.744 12.7244 48.1772 12.9072" fill="#DEE0E2"/>
<path fill-rule="evenodd" clip-rule="evenodd" d="M48.1783 11.6923V11.1567L45.9971 10.3533C45.9971 10.3533 46.4216 10.6995 46.931 11.0457C47.3283 11.297 47.7455 11.5154 48.1783 11.6989" fill="#DEE0E2"/>
<path fill-rule="evenodd" clip-rule="evenodd" d="M54.3096 18.9428H56.5431C56.4593 18.7284 56.3068 18.548 56.1094 18.4298C55.912 18.3115 55.6809 18.2622 55.4524 18.2896C55.2201 18.2818 54.9902 18.3388 54.7884 18.4541C54.5866 18.5695 54.4208 18.7387 54.3096 18.9428Z" fill="#DEE0E2"/>
<path fill-rule="evenodd" clip-rule="evenodd" d="M51.9689 10.3598L49.7876 11.1632V11.6989C50.2209 11.5164 50.6382 11.2979 51.035 11.0457C51.5444 10.6995 51.9689 10.3533 51.9689 10.3533" fill="#DEE0E2"/>
<path fill-rule="evenodd" clip-rule="evenodd" d="M51.5534 12.9724L49.7966 13.6256V14.1546C50.2295 13.9712 50.6467 13.7527 51.044 13.5014C51.5534 13.1553 51.5534 12.9397 51.5534 12.9397" fill="#DEE0E2"/>
<path fill-rule="evenodd" clip-rule="evenodd" d="M51.7876 11.653L49.8284 12.3649V12.894C50.2618 12.7117 50.679 12.4932 51.0757 12.2408C51.3432 12.0656 51.5926 11.8643 51.8202 11.6399" fill="#DEE0E2"/>
<path fill-rule="evenodd" clip-rule="evenodd" d="M42.5225 18.2894C42.2939 18.2609 42.0623 18.3097 41.8647 18.4281C41.667 18.5465 41.5147 18.7276 41.4319 18.9426H43.6654C43.5536 18.739 43.3877 18.5702 43.186 18.455C42.9843 18.3397 42.7547 18.2824 42.5225 18.2894Z" fill="#DEE0E2"/>
<path fill-rule="evenodd" clip-rule="evenodd" d="M53.4217 8.92921C53.4217 7.67508 51.3123 6.53198 48.9808 6.53198C46.6494 6.53198 44.5465 7.65548 44.5465 8.90962L44.5987 9.21662L45.5261 14.5467L41.144 17.1334C40.8366 17.3372 40.5758 17.6038 40.3788 17.9156C40.1818 18.2275 40.0531 18.5775 40.0011 18.9427H40.8044C40.8613 18.4978 41.0839 18.0906 41.4277 17.8025C41.7714 17.5144 42.2111 17.3664 42.6591 17.3881C43.6714 17.4404 44.2722 18.0413 44.873 18.9427L45.0297 19.1779L45.2518 19.5241H38.7864C39.3285 20.4596 39.646 21.5083 39.7137 22.5875V36.0173C39.7137 39.4792 42.3717 41.1253 45.2518 41.1253C47.4722 41.1253 47.7726 41.0273 49.0004 42.2488C50.2086 41.0207 50.509 41.1514 52.736 41.1514C55.6095 41.1514 58.2675 39.5053 58.2675 36.0434V22.568C58.3328 21.4892 58.6481 20.4404 59.1883 19.5045H52.7229L52.945 19.1583L53.1017 18.9231C53.696 18.0413 54.2968 17.4273 55.3156 17.3685C55.7666 17.3473 56.2089 17.4979 56.5531 17.7901C56.8973 18.0823 57.1179 18.4942 57.1704 18.9427H57.9736C57.9201 18.5764 57.7894 18.2257 57.5901 17.9138C57.3908 17.6019 57.1275 17.3358 56.8177 17.1334L52.4486 14.5663L53.376 9.23622L53.4217 8.92921ZM45.4542 9.54322L48.7196 10.6602V15.7943L46.3032 14.5206L45.4542 9.54322ZM46.2575 20.4385C46.7405 21.0666 47.4381 21.4945 48.2167 21.6404C48.2984 22.0039 48.4982 22.3301 48.7849 22.568C48.7336 22.7807 48.7252 23.0016 48.7599 23.2177C48.7947 23.4338 48.8721 23.6409 48.9875 23.8268C49.103 24.0128 49.2542 24.1739 49.4324 24.301C49.6106 24.428 49.8123 24.5183 50.0257 24.5667C50.0744 24.7986 50.1852 25.0129 50.3462 25.1866C50.5073 25.3604 50.7126 25.487 50.94 25.5531L50.2217 26.3434C50.1163 26.4741 49.9796 26.5761 49.8244 26.6401C49.6692 26.704 49.5003 26.7278 49.3335 26.7092L46.2706 26.363C46.4012 26.0234 46.0485 25.6249 45.082 25.7947L46.2836 22.4308L45.5457 20.8631L44.1546 22.0519L44.0501 25.5857L43.4624 25.2918C42.6852 24.9587 42.4566 26.363 43.1946 26.3696H43.4885C43.4729 26.4353 43.4776 26.5043 43.5021 26.5673C43.5266 26.6303 43.5697 26.6843 43.6256 26.7223C43.5905 26.7439 43.5615 26.7742 43.5414 26.8102C43.5213 26.8462 43.5108 26.8868 43.5108 26.928C43.5108 26.9693 43.5213 27.0099 43.5414 27.0459C43.5615 27.0819 43.5905 27.1122 43.6256 27.1338C43.5854 27.1555 43.551 27.1865 43.5251 27.2242C43.4993 27.2619 43.4828 27.3052 43.4771 27.3506C43.4713 27.3959 43.4765 27.442 43.4921 27.4849C43.5077 27.5279 43.5333 27.5665 43.5669 27.5976C43.5145 27.6822 43.4822 27.7776 43.4724 27.8766C43.4625 27.9756 43.4754 28.0755 43.5101 28.1688C43.5447 28.2621 43.6002 28.3462 43.6723 28.4147C43.7444 28.4832 43.8312 28.5344 43.9261 28.5643C44.3636 28.6819 44.6379 28.205 44.7293 27.9111L49.4968 29.3939C49.7917 29.4989 50.1106 29.5165 50.4152 29.4447C50.7199 29.3728 50.9974 29.2146 51.2143 28.9889L52.4552 27.898C52.3594 28.1943 52.3725 28.5151 52.4923 28.8025C52.612 29.0899 52.8305 29.3251 53.1082 29.4657C53.0686 29.7732 53.0512 30.0832 53.056 30.3932H40.6476V22.5549C40.6208 21.8211 40.4638 21.0978 40.184 20.4189L46.2575 20.4385ZM51.3841 23.4171C51.2558 23.667 51.1948 23.9461 51.2074 24.2268C51.22 24.5075 51.3057 24.78 51.456 25.0174L51.2535 25.2199C50.3588 25.1089 50.0062 23.7764 50.0062 23.7764C49.9969 23.8938 49.9969 24.0117 50.0062 24.1291C49.7423 24.0353 49.5177 23.8555 49.3684 23.6185C49.2191 23.3815 49.1539 23.1012 49.1833 22.8227C49.3869 22.9343 49.6076 23.0116 49.8364 23.0513L49.8951 22.6594C49.6343 22.6252 49.389 22.5165 49.1885 22.3461C48.9881 22.1758 48.8411 21.9511 48.7653 21.6992H48.6804H49.0135C49.3603 21.6992 49.7054 21.6509 50.0388 21.5555C50.1787 21.7444 50.3557 21.9026 50.559 22.0206C50.7623 22.1385 50.9875 22.2136 51.2209 22.2414C51.1488 22.6357 51.2037 23.0428 51.3776 23.404L51.3841 23.4171ZM52.6837 26.9313C52.5902 27.055 52.5195 27.1943 52.4748 27.3428L51.9784 27.8001C51.999 27.4311 51.9344 27.0624 51.7894 26.7226C51.6444 26.3827 51.423 26.0809 51.1425 25.8405L51.6715 25.3179L51.776 25.4224C51.7371 25.5798 51.7297 25.7434 51.7544 25.9037C51.779 26.064 51.8352 26.2178 51.9196 26.3563C52.004 26.4947 52.115 26.6151 52.2461 26.7104C52.3773 26.8058 52.526 26.8742 52.6837 26.9117V26.9313ZM50.287 26.7092L50.6984 26.3108C50.9823 26.5465 51.2036 26.8487 51.3426 27.1906C51.4816 27.5324 51.534 27.9034 51.4952 28.2704L51.0511 28.6819C50.966 28.7642 50.8718 28.8365 50.7702 28.8974C50.8701 28.5206 50.8783 28.1253 50.7943 27.7446C50.7102 27.3639 50.5363 27.0089 50.287 26.7092ZM49.4053 27.0489C49.5587 27.0682 49.7144 27.0456 49.8559 26.9836C50.0569 27.2921 50.1787 27.6455 50.2106 28.0123C50.2425 28.3792 50.1835 28.7482 50.0388 29.0868C49.8309 29.0852 49.6243 29.0544 49.4249 28.9954L49.2682 28.9497C49.5393 28.3522 49.5834 27.6765 49.3923 27.0489H49.4053ZM48.3539 26.9182L48.9351 26.9901C49.0403 27.5985 48.944 28.2246 48.6608 28.7733L48.0078 28.5774C48.3045 28.0753 48.4348 27.4923 48.38 26.9117L48.3539 26.9182ZM47.1718 26.7811L47.8706 26.866C47.9233 27.4179 47.8096 27.9731 47.5441 28.4598L46.8322 28.2508C47.107 27.8128 47.2266 27.2952 47.1718 26.7811ZM44.331 26.5916C44.2787 26.6172 44.2205 26.628 44.1625 26.6229C44.1046 26.6178 44.0491 26.597 44.0021 26.5627C43.9551 26.5285 43.9183 26.482 43.8957 26.4284C43.8731 26.3748 43.8655 26.3161 43.8738 26.2585C44.0458 26.1663 44.2392 26.1213 44.4342 26.1282C44.6292 26.1351 44.819 26.1936 44.984 26.2977C45.1538 26.4087 45.2975 26.7157 45.5326 26.9052C45.4872 27.2092 45.4151 27.5087 45.3171 27.8001C45.193 27.7936 45.0733 27.7518 44.9721 27.6797C44.8708 27.6076 44.7923 27.508 44.7457 27.3928C44.699 27.2776 44.6862 27.1514 44.7088 27.0292C44.7314 26.9069 44.7883 26.7937 44.873 26.7027C44.8098 26.6219 44.7203 26.5659 44.62 26.5444C44.5198 26.5229 44.4152 26.5373 44.3244 26.5851L44.331 26.5916ZM43.8673 27.8915C44.0093 27.9482 44.159 27.9834 44.3114 27.996C44.3083 28.0314 44.2979 28.0659 44.2807 28.097C44.2636 28.1282 44.2401 28.1554 44.2118 28.1769C44.1835 28.1985 44.151 28.2138 44.1164 28.2221C44.0818 28.2303 44.0459 28.2311 44.011 28.2246C43.9783 28.214 43.9483 28.1966 43.923 28.1734C43.8976 28.1503 43.8774 28.1221 43.8639 28.0905C43.8503 28.059 43.8435 28.025 43.8441 27.9907C43.8447 27.9563 43.8526 27.9225 43.8673 27.8915ZM43.2142 26.0168C43.1766 25.998 43.1467 25.9669 43.1294 25.9286C43.1121 25.8903 43.1085 25.8472 43.1193 25.8066C43.13 25.7659 43.1544 25.7303 43.1883 25.7055C43.2223 25.6807 43.2637 25.6684 43.3056 25.6706C43.5016 25.6706 43.7628 25.8993 44.024 26.0103C43.7559 26.0542 43.4824 26.0542 43.2142 26.0103V26.0168ZM43.8673 27.3755C44.0044 27.5126 44.4289 27.4604 44.4289 27.4604V27.5453C44.2461 27.7935 43.7301 27.6825 43.8477 27.3755H43.8673ZM44.4159 27.0946C44.1089 27.2187 43.802 27.0489 43.8999 26.8529C44.0436 26.9836 44.4355 26.9182 44.4355 26.9182L44.4159 27.0946ZM44.8599 23.5673L44.2787 25.6837L44.4746 22.2675L45.3759 21.4967L45.833 22.5026L44.6771 25.8209L45.0624 23.5608C45.0624 23.404 44.9644 23.391 44.9383 23.5608L44.8599 23.5673ZM44.9579 26.1279C45.2313 26.097 45.5074 26.097 45.7808 26.1279C45.9179 26.1867 45.8265 26.4087 45.6502 26.3892C45.4112 26.3255 45.1793 26.238 44.9579 26.1279ZM45.9702 26.6439L46.6755 26.7288C46.714 27.2024 46.6069 27.6764 46.3685 28.0875L45.7155 27.8915C45.8733 27.4727 45.9658 27.0321 45.9898 26.5851L45.9702 26.6439ZM57.3402 36.0173C57.3715 36.7403 57.1996 37.4577 56.8441 38.0881C56.4886 38.7184 55.9636 39.2366 55.3287 39.5837L55.7793 38.6692H55.3418L54.7671 39.845C54.1171 40.0852 53.4288 40.2047 52.736 40.1977C50.4437 40.1977 49.8364 40.2892 48.9874 41.1383C48.1384 40.2957 47.531 40.1977 45.2387 40.1977C44.5486 40.2043 43.8629 40.087 43.2142 39.8515L43.7889 38.6758H43.3513L42.842 39.7078C42.7244 39.649 42.6068 39.5902 42.4893 39.5249L42.9073 38.6823H42.4762L42.1628 39.3355C41.6592 38.9567 41.2545 38.4621 40.9828 37.8935C40.711 37.325 40.5804 36.6993 40.6019 36.0695V30.8766H57.3402V36.0173ZM57.8038 20.4385C57.5192 21.1162 57.3599 21.8399 57.3336 22.5745V30.4128H56.4259C56.0693 29.8841 55.8105 29.2956 55.6618 28.6753C55.584 28.9681 55.5682 29.2739 55.6155 29.5731C55.6627 29.8723 55.7719 30.1583 55.9361 30.4128H54.7605C54.4952 29.8465 54.3084 29.2465 54.2054 28.6296C53.8527 29.0281 54.0748 30.1124 54.2968 30.4128H53.5523C53.5311 30.0219 53.5685 29.63 53.6634 29.2501C53.2585 29.1718 52.8209 28.9562 52.8209 28.5055C52.8918 28.5846 52.9821 28.6437 53.083 28.6769C53.1838 28.7101 53.2916 28.7164 53.3956 28.6949L53.7287 28.4337C52.625 28.4663 52.5793 27.2644 53.4478 26.6961C52.5793 26.6961 51.9262 26.2063 52.2462 25.2787C52.0998 25.1848 51.9735 25.0626 51.875 24.9192C51.7764 24.7759 51.7075 24.6143 51.6722 24.4439C51.6369 24.2736 51.636 24.0979 51.6695 23.9271C51.703 23.7564 51.7703 23.5941 51.8674 23.4498C51.705 23.2298 51.6033 22.971 51.5723 22.6993C51.5414 22.4276 51.5823 22.1526 51.6911 21.9017C51.2416 21.9063 50.8081 21.7352 50.4829 21.4249H50.4111C50.9302 21.2152 51.3819 20.8673 51.7172 20.4189L57.8038 20.4385ZM54.4797 16.6631C53.5719 16.8198 52.7948 17.9303 52.1548 18.9296L52.0829 19.0472H51.4299V19.1648C51.358 19.9356 50.6266 20.9807 49.0135 20.9807C48.404 21.0004 47.8065 20.8089 47.322 20.4385C47.0177 20.2005 46.7904 19.8778 46.669 19.511C46.6325 19.3985 46.6084 19.2825 46.5971 19.1648V19.0472H45.944L45.8134 18.9427C45.1604 17.9433 44.3963 16.8394 43.495 16.6761L45.9571 15.2456L48.9808 16.8786L52.0046 15.2326L54.4797 16.6631ZM51.6584 14.5206L49.2421 15.7943V10.6602L52.5074 9.54322L51.6584 14.5206ZM48.9808 10.0919L45.3955 8.67447C45.6959 7.95595 47.1065 7.36807 48.9808 7.36807C50.8551 7.36807 52.2462 7.98208 52.5662 8.67447L48.9808 10.0919Z" fill="#DEE0E2"/>
<path fill-rule="evenodd" clip-rule="evenodd" d="M56.9603 25.4746V25.0827C55.7586 25.0827 55.4778 23.6326 55.4778 23.6326C55.4148 23.8553 55.4061 24.0899 55.4523 24.3168C55.4985 24.5436 55.5984 24.7561 55.7435 24.9364C55.8887 25.1167 56.0749 25.2597 56.2865 25.3533C56.4982 25.447 56.7292 25.4885 56.9603 25.4746Z" fill="#DEE0E2"/>
<path fill-rule="evenodd" clip-rule="evenodd" d="M55.4317 27.9177L55.3076 27.5454C54.2823 27.8066 53.7533 26.1802 53.7533 26.1802C53.6826 26.4159 53.6759 26.6661 53.7339 26.9053C53.792 27.1444 53.9127 27.3637 54.0836 27.5407C54.2546 27.7177 54.4696 27.8459 54.7065 27.9121C54.9435 27.9784 55.1938 27.9803 55.4317 27.9177Z" fill="#DEE0E2"/>
<path fill-rule="evenodd" clip-rule="evenodd" d="M56.1642 26.4023C54.9364 26.5982 54.4336 25.1677 54.4336 25.1677C54.3962 25.3545 54.3975 25.547 54.4375 25.7332C54.4776 25.9195 54.5554 26.0955 54.6662 26.2505C54.777 26.4054 54.9185 26.5359 55.0818 26.634C55.2451 26.732 55.4268 26.7954 55.6156 26.8203C55.5698 27.0238 55.584 27.2361 55.6564 27.4317C55.7288 27.6272 55.8565 27.7976 56.0237 27.922C56.191 28.0465 56.3908 28.1197 56.5989 28.1329C56.807 28.146 57.0145 28.0985 57.1961 27.9961L57.0785 27.6433C56.9149 27.7084 56.7343 27.7174 56.565 27.669C56.3957 27.6205 56.2472 27.5173 56.1428 27.3755C56.0383 27.2337 55.9838 27.0613 55.9876 26.8852C55.9915 26.7092 56.0536 26.5393 56.1642 26.4023Z" fill="#DEE0E2"/>
<path fill-rule="evenodd" clip-rule="evenodd" d="M55.4128 22.3198V21.9279C53.7932 21.5947 53.9303 20.4778 53.9303 20.4778C53.8676 20.7 53.8588 20.934 53.9047 21.1603C53.9506 21.3866 54.0498 21.5986 54.1942 21.7788C54.3386 21.959 54.5239 22.1021 54.7347 22.1962C54.9455 22.2903 55.1758 22.3326 55.4063 22.3198" fill="#DEE0E2"/>
<path fill-rule="evenodd" clip-rule="evenodd" d="M45.1318 38.6692L44.5505 39.8449H44.9881L45.5693 38.6692H45.1318Z" fill="#DEE0E2"/>
<path fill-rule="evenodd" clip-rule="evenodd" d="M46.0082 38.6692L45.427 39.8449H45.8711L46.4458 38.6692H46.0082Z" fill="#DEE0E2"/>
<path fill-rule="evenodd" clip-rule="evenodd" d="M49.5222 38.6692L48.9475 39.8449H49.3785L49.9598 38.6692H49.5222Z" fill="#DEE0E2"/>
<path fill-rule="evenodd" clip-rule="evenodd" d="M50.4035 38.6692L49.8223 39.8449H50.2598L50.8345 38.6692H50.4035Z" fill="#DEE0E2"/>
<path fill-rule="evenodd" clip-rule="evenodd" d="M48.6493 38.6692L48.0681 39.8449H48.5057L49.0869 38.6692H48.6493Z" fill="#DEE0E2"/>
<path fill-rule="evenodd" clip-rule="evenodd" d="M53.7727 39.8449H54.2103L54.7915 38.6692H54.3539L53.7727 39.8449Z" fill="#DEE0E2"/>
<path fill-rule="evenodd" clip-rule="evenodd" d="M46.892 38.6692L46.3108 39.8449H46.7483L47.3296 38.6692H46.892Z" fill="#DEE0E2"/>
<path fill-rule="evenodd" clip-rule="evenodd" d="M47.7643 38.6692L47.1831 39.8449H47.6272L48.2019 38.6692H47.7643Z" fill="#DEE0E2"/>
<path fill-rule="evenodd" clip-rule="evenodd" d="M45.7802 32.3333C45.7433 32.3266 45.7053 32.3314 45.6713 32.347C45.6373 32.3626 45.6089 32.3883 45.5899 32.4206C45.5709 32.4528 45.5623 32.4902 45.5653 32.5275C45.5682 32.5648 45.5825 32.6004 45.6063 32.6293C45.63 32.6582 45.6621 32.6792 45.6981 32.6893C45.7342 32.6994 45.7725 32.6982 45.8078 32.6859C45.8432 32.6736 45.8739 32.6507 45.8958 32.6203C45.9177 32.5899 45.9298 32.5536 45.9304 32.5162C45.9341 32.4721 45.9204 32.4284 45.8924 32.3942C45.8643 32.3601 45.8241 32.3382 45.7802 32.3333Z" fill="#DEE0E2"/>
<path fill-rule="evenodd" clip-rule="evenodd" d="M48.9816 5.75468C50.4265 5.71536 51.8443 6.15136 53.0176 6.99575C53.2019 6.04537 53.5558 5.13597 54.0625 4.31112L52.6127 4.47441L51.8616 2.86102L50.4053 3.61873L48.9816 2.21436L47.5775 3.61873L46.1146 2.86102L45.357 4.47441L43.9072 4.31112C44.4152 5.13533 44.7692 6.04497 44.9521 6.99575C46.1236 6.15272 47.5389 5.7168 48.9816 5.75468ZM45.5987 5.10148L46.2909 3.63832L47.5971 4.29152L48.9816 2.93287L50.3988 4.33071L51.7049 3.67752L52.358 5.14067L53.207 5.01004C52.9852 5.41282 52.8058 5.83748 52.6714 6.27724C51.5416 5.64626 50.2691 5.31501 48.9751 5.31501C47.681 5.31501 46.4085 5.64626 45.2787 6.27724C45.1449 5.83731 44.9654 5.41259 44.7432 5.01004L45.5987 5.10148Z" fill="#DEE0E2"/>
<path fill-rule="evenodd" clip-rule="evenodd" d="M50.4704 2.86739C50.5211 2.87187 50.5721 2.86628 50.6206 2.85095C50.669 2.83561 50.714 2.81084 50.7528 2.77805C50.7917 2.74526 50.8237 2.70511 50.8469 2.65991C50.8702 2.61471 50.8843 2.56534 50.8884 2.51467C50.8377 2.2431 50.7405 1.98234 50.6011 1.7439C50.6011 1.7439 50.1374 2.24033 50.1243 2.44935C50.117 2.54953 50.1491 2.6486 50.2138 2.72547C50.2784 2.80233 50.3705 2.85091 50.4704 2.86086" fill="#DEE0E2"/>
<path fill-rule="evenodd" clip-rule="evenodd" d="M52.8471 3.72973C52.9373 3.77579 53.042 3.78448 53.1385 3.75392C53.2351 3.72336 53.3157 3.65601 53.363 3.56644C53.4219 3.29612 53.433 3.01755 53.3956 2.74341C53.3956 2.74341 52.7817 3.01775 52.6838 3.20718C52.6394 3.29769 52.6317 3.40181 52.6621 3.49791C52.6925 3.594 52.7587 3.67469 52.8471 3.7232" fill="#DEE0E2"/>
<path fill-rule="evenodd" clip-rule="evenodd" d="M47.5042 2.86745C47.6053 2.85911 47.6991 2.81122 47.7651 2.73418C47.8311 2.65713 47.8641 2.55716 47.8569 2.45594C47.8569 2.24039 47.3801 1.75049 47.3801 1.75049C47.241 1.9891 47.1438 2.2498 47.0928 2.52126C47.1011 2.62239 47.149 2.71615 47.226 2.78218C47.3031 2.84822 47.403 2.88121 47.5042 2.87399" fill="#DEE0E2"/>
<path fill-rule="evenodd" clip-rule="evenodd" d="M45.1249 3.72979C45.2134 3.68138 45.2793 3.60024 45.3086 3.50377C45.3379 3.40731 45.3282 3.30319 45.2817 3.21377C45.1837 3.02434 44.5698 2.75 44.5698 2.75C44.5345 3.02452 44.5478 3.30311 44.609 3.57303C44.6318 3.618 44.6633 3.65797 44.7017 3.69061C44.7401 3.72325 44.7846 3.7479 44.8327 3.7631C44.8807 3.77831 44.9313 3.78378 44.9815 3.77918C45.0317 3.77458 45.0805 3.76001 45.1249 3.73633" fill="#DEE0E2"/>
<path fill-rule="evenodd" clip-rule="evenodd" d="M73.6262 16.7937C74.1211 16.5807 74.5127 16.182 74.7168 15.6833C73.4107 15.4939 70.0082 14.0634 67.1934 15.2326C68.2449 14.2332 69.1918 14.1026 69.2832 12.6655C69.3972 12.7722 69.534 12.8512 69.6833 12.8966C69.8326 12.942 69.9903 12.9524 70.1443 12.9272C70.2983 12.9019 70.4444 12.8417 70.5714 12.751C70.6984 12.6603 70.8028 12.5417 70.8767 12.4043C70.5894 11.5486 69.8514 12.241 69.7535 12.0058C69.6555 11.7707 70.6743 12.1103 70.9094 10.9934C70.08 10.706 69.8318 11.3853 69.6816 11.2285C69.5314 11.0717 70.2106 10.7909 69.7208 9.92212C68.8588 10.4251 69.3094 10.9999 69.1265 11.0587C68.9437 11.1175 69.0808 10.4512 68.1208 10.4839C68.0293 11.5094 69.022 11.542 68.8522 11.7053C68.6824 11.8686 68.4016 11.1175 67.6767 11.5159C67.6646 11.6886 67.6949 11.8617 67.7648 12.0201C67.8347 12.1785 67.9422 12.3175 68.078 12.4249C68.2137 12.5324 68.3736 12.6051 68.5438 12.6368C68.714 12.6685 68.8894 12.6582 69.0547 12.6068C68.9437 14.181 67.5004 13.9131 66.4424 15.6637C68.7216 16.8329 69.7469 18.8709 71.151 20.2753C71.6483 19.7384 72.0701 19.1363 72.4049 18.4855C72.5761 18.6577 72.7796 18.7944 73.0038 18.8877C73.2279 18.9809 73.4683 19.0289 73.7111 19.0289C73.9539 19.0289 74.1942 18.9809 74.4184 18.8877C74.6426 18.7944 74.8461 18.6577 75.0172 18.4855C74.4948 17.9499 74.4752 17.5449 73.6784 16.8133L73.6262 16.7937ZM71.471 17.1007C71.6403 17.5036 71.704 17.9431 71.656 18.3774C71.608 18.8118 71.4499 19.2267 71.1967 19.5829C70.5205 18.117 69.512 16.8288 68.2514 15.8205C68.0424 15.6898 68.3624 15.4482 68.9437 15.3763C70.7004 15.0432 72.7511 15.7878 73.7307 16.0295C73.3567 16.3335 72.9034 16.5239 72.4245 16.5782C73.0336 17.0507 73.5705 17.6096 74.018 18.2373C73.3258 18.4071 72.9405 17.976 71.458 17.0811" fill="#DEE0E2"/>
<path fill-rule="evenodd" clip-rule="evenodd" d="M56.817 43.3396V41.4192C54.9785 42.2299 53.015 42.7203 51.0112 42.8693L50.9002 43.5551C51.1092 43.5551 51.3704 43.6074 51.7165 43.6335C49.9225 43.88 48.1032 43.88 46.3091 43.6335C46.6552 43.6335 46.9165 43.5878 47.1254 43.5551L47.0209 42.8758C45.0171 42.7277 43.0534 42.2373 41.2151 41.4257V43.3461L39.1841 44.1691C40.8467 45.0064 42.5996 45.6507 44.4087 46.0895L44.1736 46.893C47.351 47.7882 50.7139 47.7882 53.8913 46.893L53.6562 46.0895C55.4652 45.6506 57.2181 45.0063 58.8807 44.1691L56.817 43.3396ZM40.2421 44.2149L41.6004 43.6662V42.0985C42.7915 42.5371 44.017 42.8758 45.2642 43.111L44.4936 45.6258C43.0325 45.2939 41.6083 44.8169 40.2421 44.2018V44.2149ZM48.9802 47.1085C47.5248 47.0994 46.0758 46.9174 44.6634 46.5664L45.4797 43.9536C47.7951 44.3409 50.1587 44.3409 52.4741 43.9536L53.2904 46.5664C51.8779 46.9167 50.4289 47.0987 48.9736 47.1085H48.9802ZM53.4668 45.6388L52.7092 43.111C53.9568 42.8716 55.1823 42.5285 56.3729 42.0855V43.6531L57.7313 44.2018C56.3658 44.8187 54.9414 45.2958 53.4798 45.6258" fill="#DEE0E2"/>
<path fill-rule="evenodd" clip-rule="evenodd" d="M25.5882 18.4594C25.9234 19.1099 26.3452 19.712 26.8421 20.2492C28.2462 18.8448 29.2781 16.8068 31.5508 15.6376C30.4732 13.8674 29.0299 14.1614 28.9385 12.5806C29.1033 12.6291 29.2774 12.6373 29.4461 12.6043C29.6147 12.5714 29.7729 12.4983 29.9074 12.3914C30.0419 12.2844 30.1487 12.1467 30.2187 11.9897C30.2888 11.8328 30.3201 11.6614 30.31 11.4898C29.585 11.0913 29.3303 11.8817 29.1344 11.6792C28.9385 11.4767 29.9638 11.4833 29.8659 10.4577C28.9124 10.4577 29.0887 11.1109 28.8601 11.0326C28.6316 10.9542 29.1279 10.3794 28.2658 9.896C27.776 10.7974 28.4422 11.0783 28.305 11.2024C28.1679 11.3265 27.9066 10.6798 27.0772 10.9672C27.2993 12.0777 28.3834 11.6204 28.2267 11.9797C28.0699 12.339 27.3907 11.5225 27.1034 12.3781C27.1765 12.5155 27.2803 12.6341 27.4068 12.7247C27.5332 12.8154 27.6788 12.8758 27.8323 12.901C27.9858 12.9263 28.1431 12.9158 28.2919 12.8705C28.4407 12.8251 28.577 12.746 28.6903 12.6394C28.7818 14.083 29.7287 14.2006 30.7802 15.2065C27.9654 14.0373 24.5433 15.4743 23.2568 15.6637C23.4617 16.1604 23.8533 16.5567 24.3474 16.7676C23.5507 17.5057 23.5311 17.9107 23.0413 18.4398C23.0413 18.4398 24.1058 19.609 25.6535 18.4398L25.5882 18.4594ZM24.0601 18.2177C24.5075 17.5878 25.0469 17.0286 25.6601 16.5586C25.1809 16.501 24.7279 16.3085 24.3539 16.0034C25.3335 15.7421 27.3907 15.004 29.141 15.3502C29.7157 15.4286 30.0422 15.6637 29.8332 15.7944C28.5702 16.8019 27.5595 18.0902 26.8813 19.5568C26.6287 19.2003 26.471 18.7855 26.423 18.3512C26.375 17.917 26.4384 17.4776 26.607 17.0746C25.1246 17.9695 24.7392 18.381 24.047 18.2308" fill="#DEE0E2"/>
<path fill-rule="evenodd" clip-rule="evenodd" d="M47.7544 17.3881V18.2373C47.8678 18.1308 48.0032 18.0504 48.151 18.0019C48.2988 17.9534 48.4555 17.9379 48.6099 17.9564V19.1779C48.6063 19.4798 48.5278 19.7761 48.3813 20.0401H49.6026C49.4541 19.7766 49.3734 19.4803 49.3675 19.1779V17.9499C49.522 17.9309 49.6787 17.9462 49.8266 17.9947C49.9745 18.0433 50.1098 18.1239 50.223 18.2307V17.3816H47.7544V17.3881Z" fill="#DEE0E2"/>
<path fill-rule="evenodd" clip-rule="evenodd" d="M40.6404 30.4194V22.5811C40.6136 21.8494 40.4566 21.1283 40.1768 20.4517H46.2569C46.5903 20.852 47.0076 21.1742 47.4794 21.3952C47.9511 21.6163 48.4657 21.7309 48.9867 21.7309C49.5077 21.7309 50.0223 21.6163 50.494 21.3952C50.9658 21.1742 51.3831 20.852 51.7165 20.4517H57.8032C57.521 21.1275 57.3639 21.849 57.3395 22.5811V30.4194H40.6404ZM48.9802 41.1515C48.1312 40.3023 47.5238 40.2108 45.2315 40.2108C42.4952 40.2108 40.66 38.604 40.66 36.0369V30.8767H57.3395V36.0173C57.3395 38.5844 55.4848 40.1913 52.768 40.1913C50.4757 40.1913 49.8683 40.2827 49.0194 41.1319" fill="#3D3D3D"/>
<path fill-rule="evenodd" clip-rule="evenodd" d="M37.0941 35.2726C37.7472 34.7305 38.3415 34.4627 38.3153 33.1563C37.29 33.6788 34.3969 33.6527 33.1757 31.9805C32.8295 31.5037 33.1757 31.2685 33.5283 31.6409C34.3577 32.5815 35.899 32.1569 36.4541 31.8825C36.3586 31.5246 36.1744 31.1966 35.9186 30.9289C36.1275 30.7198 36.7218 30.4128 36.8459 29.8838C36.3314 29.7286 35.8014 29.63 35.2655 29.5898C35.4256 29.448 35.5392 29.2612 35.5917 29.0538C35.6441 28.8464 35.6328 28.628 35.5594 28.4271C34.2989 28.8125 32.7512 28.29 32.392 27.8197C32.0328 27.3493 32.392 26.9313 32.6924 27.2383C33.3455 27.8915 36.4084 28.6492 37.5578 27.5061C37.1507 27.3949 36.7993 27.1365 36.5716 26.7811C37.6361 26.6766 38.4851 26.0495 38.5309 25.2657C37.8229 25.3134 37.1132 25.2018 36.4541 24.9391C36.6911 24.8888 36.9095 24.7736 37.0848 24.6063C37.2601 24.4391 37.3854 24.2263 37.4468 23.9919C35.4875 23.8743 35.3504 22.4308 35.3373 22.1891C36.6043 22.9207 38.8313 22.5941 38.2566 20.7978C37.2051 20.739 36.1406 19.0342 39.0402 17.473C41.6525 16.0491 44.6697 14.5075 44.402 11.9796C44.2322 10.3597 41.5611 9.25581 41.228 8.43278C40.1178 8.96187 39.9219 9.57588 40.3921 10.6079C40.3921 10.6079 37.9104 10.8561 37.7145 9.30154C37.7142 8.95379 37.7914 8.61035 37.9405 8.29622C38.0896 7.98209 38.3069 7.70518 38.5766 7.48565C38.2957 7.48565 36.428 6.98269 35.8663 8.50464C34.8736 7.83838 33.9593 7.83838 33.3063 8.58955C34.4296 9.24275 35.1283 11.5485 36.9896 12.2279C35.6835 12.9464 33.5283 12.6459 32.2744 10.4381C31.0924 12.2213 30.4132 13.985 32.9275 15.8662C28.3103 17.9695 28.356 21.9801 24.3331 23.8939C24.738 24.9848 25.6 24.9848 26.6907 24.815C24.9535 27.0685 26.436 29.433 23.6865 30.3932C23.9478 31.3143 24.4637 32.0458 25.4759 31.778C25.1886 32.2287 24.9992 32.2157 24.5486 32.7121C26.0506 33.6592 27.8139 32.9734 28.2319 29.936C28.3037 29.3939 29.0482 29.7335 28.7935 30.2626C27.0825 33.8029 31.4058 36.468 29.8776 39.0612C31.2295 39.0024 32.2548 38.8979 32.8165 38.4472C33.0969 38.9367 33.2286 39.4974 33.1953 40.0606C33.475 40.0348 33.7365 39.9102 33.9328 39.7091C34.1291 39.508 34.2473 39.2436 34.2663 38.9632C34.7561 40.3871 36.4998 41.9156 39.2949 41.9156C37.8125 39.8058 39.1839 37.6568 37.0941 35.2726ZM34.3316 37.8854L33.7373 38.8979C33.502 38.2587 33.2182 37.6386 32.8883 37.0428C32.4116 38.0356 31.6475 38.0552 30.9291 38.0552C31.0793 35.658 28.0817 33.2738 29.3878 30.5696C29.4548 30.441 29.4957 30.3004 29.5084 30.1559C29.521 30.0114 29.505 29.8658 29.4613 29.7275C29.4176 29.5892 29.3471 29.4609 29.2539 29.3498C29.1606 29.2388 29.0463 29.1472 28.9176 29.0803C26.9192 28.0679 27.8466 32.2745 25.8482 32.4051C26.1233 31.9164 26.3194 31.3873 26.4294 30.8374C26.0049 30.9485 24.9927 31.5951 24.5355 30.7656C25.0027 30.5105 25.4004 30.145 25.6941 29.701C25.9877 29.257 26.1684 28.7479 26.2204 28.2181C26.3207 27.4402 26.5137 26.6771 26.7951 25.945C27.2183 25.2005 27.7149 24.5002 28.2776 23.8547C28.0752 23.8547 25.8351 24.3577 25.3257 24.1226C29.2115 21.7384 28.3364 18.7076 34.2532 16.0033C32.6989 14.8472 31.112 13.9262 32.2548 11.7249C33.8744 13.6845 36.9569 13.0313 38.6223 12.0972C36.9765 11.7706 34.8606 10.314 34.3577 8.70713C34.9781 8.60915 35.7814 9.28194 36.2451 9.59547C36.4671 9.00107 36.5586 8.28908 37.277 8.15844C36.3169 10.216 38.2174 11.2938 40.0264 11.3003C40.3072 11.3003 41.4827 11.1827 41.4827 11.1827C41.2933 10.7974 40.5358 9.74571 41.0844 9.32113C41.5285 9.73918 42.0574 10.0723 42.5407 10.4381C46.0673 13.1685 40.8623 15.6963 38.7333 16.846C35.3961 18.6488 36.2908 20.7978 37.6819 21.3465C37.6819 21.5882 37.5251 21.6927 37.2965 21.7711C36.3235 22.0977 35.4026 21.3987 34.6255 20.9546C34.6712 22.3001 34.5798 23.5673 36.0688 24.3381L35.0434 24.7104C35.9251 25.3636 36.1929 25.736 37.2574 25.8731C36.732 26.0641 36.1772 26.1613 35.6182 26.1605C35.7222 26.5922 35.8989 27.003 36.1406 27.3755C33.9659 27.6368 33.0973 26.3957 32.4246 26.4414C30.9879 26.5459 31.0793 29.2502 34.6124 29.2502L34.2467 29.8511C34.6517 30.0807 35.0937 30.2377 35.5528 30.3149C35.3177 30.5043 35.0957 30.759 34.8998 30.9681L35.4614 31.4514C34.0181 31.7127 33.6132 30.145 32.6793 30.9158C31.2556 32.0458 34.3969 34.43 37.4076 34.0773C37.0155 34.4608 36.5917 34.8104 36.1406 35.1224C38.5962 37.4412 37.3814 39.6294 38.3937 41.2298C37.447 41.1723 36.5434 40.8136 35.815 40.206C35.0865 39.5985 34.5713 38.7739 34.3447 37.8527" fill="white"/>
<path fill-rule="evenodd" clip-rule="evenodd" d="M30.4672 29.3938C30.9766 29.9294 31.597 29.9817 32.766 29.9098C31.4599 29.7531 30.7546 29.4395 30.3039 28.6034C30.2364 28.1336 30.195 27.6604 30.1799 27.186C30.216 25.5192 30.6768 23.8893 31.5186 22.4503C31.5503 23.2225 31.851 23.9593 32.3686 24.5331C32.8863 25.1069 33.5882 25.4816 34.353 25.5922C32.5897 24.8214 31.5578 23.0839 32.1195 21.4052C32.4852 20.8173 32.9032 20.2164 33.3603 19.5959C33.5954 19.3019 33.8175 19.0145 34.0134 18.7467C33.7783 19.6024 34.8101 20.4842 35.5024 20.6344C35.1301 20.2687 34.3203 19.0733 36.1555 17.0811C35.6154 17.3392 35.1033 17.6522 34.6273 18.0151C38.0102 14.3572 40.7923 14.2592 42.0723 12.4172C40.2763 13.6583 35.3783 14.3703 33.1775 13.7171C34.3922 14.5271 37.3245 14.4552 38.0363 14.305C35.6461 16.6238 30.4346 19.0276 29.5464 21.157C30.3712 20.1666 31.4896 19.4643 32.7399 19.1517C31.8866 20.3236 31.1557 21.58 30.5586 22.901C29.1741 25.9123 27.2933 25.9515 27.1953 28.4401C27.8484 26.5132 29.1088 26.0233 30.0035 24.7626C29.8356 25.6647 29.7677 26.5826 29.8011 27.4995C29.8238 28.5277 30.0317 29.5434 30.415 30.4977C30.3235 31.7257 30.415 33.8225 31.8387 35.2073C31.0598 34.0543 30.6812 32.6773 30.7611 31.2881C31.8648 33.4175 35.0061 36.3569 36.5277 38.3295C35.0061 35.7886 31.3031 32.8231 30.4868 29.3938" fill="white"/>
<path fill-rule="evenodd" clip-rule="evenodd" d="M65.2574 19.178C66.505 19.4927 67.6207 20.1948 68.4444 21.1833C67.5432 19.0474 62.3252 16.6501 59.9545 14.3313C60.6729 14.4815 63.5986 14.5599 64.8134 13.7434C62.5994 14.3705 57.7014 13.6585 55.8467 12.4109C57.1528 14.2529 59.9088 14.3705 63.2917 18.0088C62.8142 17.6447 62.2998 17.3316 61.757 17.0747C63.6182 19.067 62.815 20.2623 62.4101 20.6281C63.1023 20.4779 64.1407 19.596 63.9056 18.7404C64.1276 19.0082 64.3562 19.289 64.5587 19.5895C65.0223 20.2035 65.4338 20.811 65.7995 21.3989C66.3611 23.0776 65.3228 24.8151 63.566 25.5859C64.3301 25.475 65.0312 25.1001 65.5478 24.5262C66.0643 23.9523 66.3636 23.2156 66.3938 22.444C67.2379 23.8823 67.701 25.5123 67.7391 27.1797C67.7224 27.6542 67.6787 28.1275 67.6085 28.5971C67.1579 29.4528 66.433 29.7663 65.1464 29.9035C66.322 29.9753 66.9358 29.9035 67.4452 29.3875C66.6485 32.8102 62.9195 35.7823 61.3978 38.3232C62.9195 36.3636 66.0607 33.4111 67.1644 31.2817C67.2434 32.6708 66.8648 34.0475 66.0869 35.2009C67.4975 33.8161 67.602 31.7194 67.5106 30.4848C67.8918 29.5322 68.0997 28.519 68.1244 27.4932C68.1603 26.5762 68.0924 25.6581 67.922 24.7563C68.8102 26.0235 70.0967 26.5069 70.7302 28.4338C70.6061 25.9516 68.771 25.9125 67.3603 22.8947C66.7642 21.5731 66.0333 20.3167 65.1791 19.1453" fill="white"/>
<path fill-rule="evenodd" clip-rule="evenodd" d="M71.289 24.8216C72.3796 24.9914 73.2482 24.9914 73.6465 23.9006C69.6302 21.9867 69.6693 17.9761 65.0521 15.8728C67.586 13.9916 66.9068 12.228 65.7052 10.4448C64.4578 12.6526 62.3092 12.953 60.99 12.2345C62.8447 11.5813 63.55 9.26247 64.6733 8.59621C64.0007 7.8385 63.0994 7.8385 62.0415 8.4917C61.4733 6.96975 59.612 7.47271 59.3312 7.47271C59.6012 7.69193 59.8187 7.96877 59.9679 8.28298C60.1171 8.59718 60.1941 8.94078 60.1933 9.2886C59.9973 10.8171 57.5222 10.595 57.5222 10.595C58.0251 9.56294 57.803 8.94893 56.6863 8.41985C56.3467 9.24287 53.6821 10.3468 53.5123 11.9667C53.2446 14.5011 56.2422 16.0361 58.8741 17.4601C61.7737 19.0278 60.7092 20.7261 59.6577 20.7849C59.0765 22.5877 61.3035 22.9077 62.577 22.1762C62.577 22.4178 62.4072 23.8614 60.4675 23.979C60.53 24.2122 60.6558 24.4236 60.831 24.5896C61.0062 24.7556 61.224 24.8699 61.4602 24.9196C60.8011 25.1823 60.0914 25.2939 59.3835 25.2462C59.4553 26.03 60.3043 26.6571 61.3427 26.7616C61.1181 27.1198 60.7693 27.3826 60.3631 27.4997C61.5125 28.6428 64.6015 27.8916 65.2284 27.2319C65.5158 26.9314 65.8815 27.356 65.5223 27.8132C65.1631 28.2705 63.6154 28.8061 62.3549 28.4207C62.2862 28.627 62.2818 28.8494 62.3425 29.0583C62.4032 29.2671 62.5259 29.4526 62.6945 29.5899C62.1695 29.632 61.6506 29.7306 61.1467 29.8839C61.2643 30.413 61.8651 30.72 62.0741 30.929C61.8177 31.1883 61.6292 31.5069 61.5255 31.8565C62.0872 32.1309 63.6284 32.5555 64.4513 31.6148C64.7844 31.2425 65.1501 31.4777 64.8105 31.9545C63.5958 33.6267 60.6961 33.6528 59.6708 33.1303C59.6708 34.4367 60.2063 34.7045 60.892 35.2466C58.7957 37.6634 60.1802 39.819 58.6977 41.9223C61.4929 41.9223 63.2692 40.4003 63.7264 38.9698C63.7454 39.2502 63.8636 39.5147 64.0599 39.7158C64.2562 39.9169 64.5176 40.0415 64.7974 40.0672C64.7671 39.5043 64.8985 38.9444 65.1762 38.4538C65.7444 38.9111 66.7762 39.0156 68.1216 39.0678C66.5934 36.455 70.9232 33.8096 69.2057 30.2693C68.951 29.7402 69.6955 29.4005 69.7673 29.9427C70.1722 32.98 71.9486 33.6659 73.4572 32.7188C73.0065 32.2223 72.8041 32.2354 72.5298 31.7847C73.5421 32.0525 74.058 31.3209 74.3192 30.3999C71.5763 29.4332 73.0522 27.0751 71.3151 24.8216H71.289ZM71.5437 30.8506C71.6512 31.4012 71.8475 31.9307 72.1249 32.4183C70.1265 32.2876 71.0538 28.0811 69.0554 29.0935C68.7967 29.2263 68.6008 29.4558 68.5103 29.7322C68.4198 30.0086 68.442 30.3096 68.5722 30.5697C69.8783 33.274 66.9003 35.6581 67.0701 38.0292C66.3321 38.0292 65.568 38.0292 65.1109 37.0168C64.7819 37.6131 64.4982 38.2331 64.2619 38.8719L63.6676 37.8594C63.44 38.7801 62.9246 39.6041 62.1963 40.2115C61.468 40.8189 60.565 41.1779 59.6186 41.2364C60.6243 39.6361 59.4161 37.4544 61.8717 35.129C61.4204 34.8174 60.9965 34.4677 60.6047 34.0839C63.6219 34.4367 66.7632 32.0525 65.3329 30.9225C64.399 30.1843 63.9876 31.7194 62.5508 31.4581L63.1125 30.9747C62.9166 30.7788 62.688 30.524 62.4594 30.3215C62.9185 30.2444 63.3606 30.0875 63.7656 29.8577L63.3476 29.2568C66.8742 29.2568 66.9656 26.5526 65.5354 26.4481C64.8823 26.3958 63.9941 27.6369 61.8194 27.3821C62.0584 27.0082 62.2349 26.5979 62.3419 26.1672C61.7829 26.1678 61.2281 26.0706 60.7027 25.8798C61.7672 25.7426 62.0088 25.3899 62.9166 24.7171L61.8912 24.3382C63.3802 23.5936 63.2823 22.3003 63.328 20.9547C62.5509 21.4054 61.63 22.0978 60.6635 21.7712C60.4284 21.6928 60.2782 21.5883 60.2782 21.3466C61.6757 20.7979 62.5639 18.6489 59.2267 16.8461C57.0912 15.6769 51.8796 13.1686 55.4128 10.4513C55.896 10.079 56.4185 9.74583 56.8626 9.33432C57.4177 9.7589 56.6601 10.8105 56.4707 11.1959C56.4707 11.1959 57.6463 11.3135 57.9206 11.3135C59.7361 11.3135 61.6431 10.2292 60.6765 8.17163C61.4014 8.32187 61.4863 9.01425 61.7019 9.60866C62.1655 9.29513 62.9688 8.62234 63.5892 8.72032C63.0864 10.3337 60.9769 11.7838 59.3181 12.1104C60.9835 13.0183 64.066 13.6911 65.6856 11.7381C66.8219 13.9394 65.235 14.8604 63.6807 16.0165C69.604 18.7142 68.7289 21.7516 72.6082 24.1357C72.1053 24.3709 69.8587 23.9006 69.6563 23.8679C70.2232 24.5116 70.7221 25.2121 71.1453 25.9582C71.4262 26.6904 71.6192 27.4535 71.72 28.2313C71.7752 28.7602 71.9573 29.2679 72.2506 29.7114C72.5439 30.1549 72.9399 30.521 73.4049 30.7788C72.9478 31.6083 71.9355 30.9617 71.511 30.8506" fill="white"/>
<path fill-rule="evenodd" clip-rule="evenodd" d="M43.3238 37.4738L44.1662 36.7553L44.0356 36.5006C43.9442 36.3177 43.9899 36.3046 44.0879 36.2328L44.5385 35.9258C44.5865 35.8899 44.643 35.8669 44.7024 35.8589C44.7618 35.8509 44.8223 35.8582 44.8781 35.88L46.1842 36.1936H44.8063C44.6859 36.1885 44.5674 36.2236 44.4692 36.2934C44.371 36.3631 44.2989 36.4636 44.2642 36.579L44.1662 36.7749L43.8005 37.5196C43.7156 37.6772 43.6832 37.8578 43.7078 38.0352C43.7325 38.2125 43.813 38.3774 43.9377 38.5059L44.1924 38.8129L43.6764 39.8449H44.114L44.4732 39.1134C44.7731 38.8366 44.9978 38.4883 45.1263 38.1009C44.9761 37.9768 44.865 37.8854 44.9499 37.7155L45.1132 37.3693C45.1654 37.2518 45.185 37.206 45.3418 37.2387L46.7459 37.5392C46.8506 37.5932 46.9715 37.6071 47.0857 37.5782C47.2 37.5493 47.2998 37.4797 47.3663 37.3824C47.5557 37.0885 47.5818 37.1211 48.0194 37.1668L48.7378 37.2452C49.5453 37.3512 50.3654 37.1931 51.0757 36.7945C51.2369 37.06 51.4113 37.3172 51.5982 37.5653C51.6439 37.6502 51.5982 37.7743 51.5068 37.9311L50.7296 39.8449H51.9705L52.6692 38.0879C52.7213 37.9509 52.8014 37.8263 52.9044 37.7221L52.506 39.8449H53.7076L54.0276 37.7417C54.0995 37.2779 54.0276 37.1211 53.8317 36.9317C53.3288 36.5071 53.3419 35.6253 53.1786 35.0766C53.2696 35.0245 53.3752 35.0039 53.4791 35.0178C53.7403 35.0178 53.9362 35.7102 54.2497 36.1413C54.8636 37.0101 55.706 37.9637 56.6726 36.6182C56.5807 36.4677 56.4758 36.3257 56.3591 36.1936L56.0913 35.88C55.9346 35.7037 55.1901 34.8545 54.8766 34.5737C54.5889 34.286 54.2126 34.1037 53.8085 34.0563C53.4044 34.0089 52.9962 34.0991 52.6497 34.3124C51.67 33.7964 50.6382 34.3124 50.3966 34.3124L48.7116 34.2079C48.6559 34.2058 48.6016 34.1898 48.5536 34.1612C48.5057 34.1327 48.4657 34.0926 48.4373 34.0446L48.7508 33.9401C48.4569 32.7186 47.719 31.6996 46.4324 31.5232C46.4324 31.5232 46.354 31.1378 46.1581 31.066L45.7728 31.5167C45.6604 31.5324 45.5505 31.5632 45.4463 31.6081L43.8005 30.9941L45.061 32.2287C45.061 32.2287 44.4079 33.1366 44.2185 33.313C44.1879 33.3433 44.1636 33.3795 44.147 33.4193C44.1304 33.4591 44.1219 33.5018 44.1219 33.5449C44.1219 33.588 44.1304 33.6307 44.147 33.6705C44.1636 33.7103 44.1879 33.7464 44.2185 33.7768L44.4601 34.0903C44.5842 34.2536 44.7214 34.2471 44.9173 34.1425L45.185 33.9988C45.3026 33.9009 45.701 34.0968 45.8381 33.9401C45.7635 34.2616 45.722 34.5899 45.714 34.9198L44.6038 34.7892C44.5177 34.7677 44.4277 34.7671 44.3413 34.7876C44.255 34.8081 44.1748 34.8489 44.1075 34.9068L43.1605 35.6318C43.0063 35.752 42.9 35.9232 42.8605 36.1147C42.821 36.3062 42.8509 36.5055 42.945 36.6769L43.3238 37.4738ZM52.4668 37.6829L51.7223 39.5314H51.2586L52.0096 37.7417C52.088 37.513 51.9378 37.402 51.7549 37.1472C52.0157 37.2986 52.2888 37.4275 52.5713 37.5326C52.5377 37.5785 52.5072 37.6265 52.4799 37.6763L52.4668 37.6829ZM45.2373 33.6722L45.0218 33.7833C44.8716 33.8682 44.7997 33.9074 44.6691 33.7441L44.5777 33.6265C44.5493 33.5798 44.5371 33.5251 44.543 33.4707C44.5489 33.4164 44.5726 33.3656 44.6103 33.3261L45.5312 32.2548L44.6822 31.5559L45.7597 31.9543L46.1581 31.4579C46.2757 31.5559 46.2365 31.8433 46.2365 31.8433C46.7432 31.9462 47.1973 32.2248 47.5188 32.6299C47.8402 33.035 48.0082 33.5407 47.9932 34.0576C48.1455 34.2845 48.3795 34.4436 48.6463 34.5018L50.5206 34.6128C50.8341 34.6128 51.6047 34.0184 52.6039 34.5802C52.8449 34.4227 53.1164 34.3181 53.4007 34.2732C53.8054 34.284 54.2009 34.3961 54.5512 34.5992C54.9014 34.8023 55.1952 35.09 55.4056 35.4359C55.7648 35.9258 56.2481 36.579 56.2481 36.579C56.0391 36.8272 55.8366 36.9056 55.6668 36.8468C55.5505 36.7781 55.4516 36.6833 55.3779 36.57C55.3043 36.4567 55.2579 36.3278 55.2423 36.1936C55.1053 35.855 54.8797 35.5594 54.5893 35.3379C54.7296 35.6502 54.8284 35.9797 54.8832 36.3177C54.1517 35.5926 54.0146 34.7108 53.4986 34.5867C53.3573 34.5653 53.2128 34.5846 53.0821 34.6425C52.9514 34.7003 52.8399 34.7943 52.7607 34.9133C53.0219 35.5143 53.0023 36.2197 53.2701 36.6704C53.4725 37.0166 53.5117 37.0493 53.6031 37.1211C53.8187 37.2779 53.6946 37.5522 53.6619 37.7743L53.3811 39.5118H52.9174L53.2244 37.807C53.3158 37.291 51.866 37.291 51.1149 36.2981C50.4619 37.0427 48.6986 36.8533 47.9279 36.7423C47.785 36.6906 47.6286 36.6904 47.4856 36.7416C47.3425 36.7929 47.2218 36.8924 47.1443 37.0231C47.0463 37.193 46.8765 37.1407 46.772 37.1211L45.3679 36.8206C45.3236 36.801 45.2757 36.7911 45.2272 36.7915C45.1788 36.792 45.1311 36.8027 45.0871 36.8232C45.0432 36.8436 45.0042 36.8731 44.9726 36.9099C44.9411 36.9466 44.9178 36.9897 44.9042 37.0362L44.6234 37.6175C44.5891 37.6719 44.5755 37.7368 44.5851 37.8004C44.5947 37.8639 44.6268 37.9219 44.6756 37.9637L44.8063 38.1074C44.7391 38.2966 44.6244 38.4654 44.4732 38.5973L44.1662 38.2512C44.0981 38.1574 44.0581 38.046 44.0512 37.9303C44.0443 37.8145 44.0706 37.6992 44.1271 37.598L44.5842 36.6508C44.6126 36.5844 44.66 36.5279 44.7204 36.4884C44.7808 36.4488 44.8516 36.4281 44.9238 36.4287H46.661L46.132 35.56C45.7336 34.9068 46.3932 33.7506 46.2953 33.2019C46.243 33.9335 45.3548 33.6004 45.2177 33.6984L45.2373 33.6722ZM43.3499 35.8605L44.1728 35.2073C44.2249 35.1512 44.2889 35.1075 44.3601 35.0792C44.4313 35.051 44.5078 35.0389 44.5842 35.044L45.7467 35.1942C45.7995 35.3892 45.8833 35.5744 45.9948 35.7429L44.7605 35.4816C44.6917 35.4649 44.6198 35.4658 44.5513 35.484C44.4829 35.5023 44.4201 35.5374 44.3687 35.5861L43.7809 36.0303C43.7273 36.076 43.6923 36.1399 43.6827 36.2098C43.673 36.2796 43.6894 36.3506 43.7287 36.4091L43.8201 36.6116L43.4087 36.9186L43.2519 36.6247C43.0952 36.3112 43.0821 36.0238 43.3434 35.8213" fill="white"/>
<path fill-rule="evenodd" clip-rule="evenodd" d="M46.9362 13.5472C47.3334 13.7985 47.7506 14.017 48.1835 14.2004V13.6713L46.4268 13.0181C46.4268 13.0181 46.4268 13.2336 46.9362 13.5798" fill="white"/>
<path fill-rule="evenodd" clip-rule="evenodd" d="M48.176 12.9073V12.3782L46.2168 11.6663C46.4445 11.8907 46.6939 12.092 46.9613 12.2672C47.3588 12.5183 47.7759 12.7368 48.2087 12.9204" fill="white"/>
<path fill-rule="evenodd" clip-rule="evenodd" d="M48.1783 11.7055V11.1699L45.9971 10.3665C45.9971 10.3665 46.4216 10.7126 46.931 11.0588C47.328 11.3107 47.7452 11.5292 48.1783 11.712" fill="white"/>
<path fill-rule="evenodd" clip-rule="evenodd" d="M54.3096 18.9426H56.5431C56.4603 18.7276 56.3079 18.5465 56.1103 18.4281C55.9126 18.3097 55.6811 18.2609 55.4524 18.2894C55.2201 18.2817 54.9902 18.3386 54.7884 18.454C54.5866 18.5693 54.4208 18.7385 54.3096 18.9426Z" fill="white"/>
<path fill-rule="evenodd" clip-rule="evenodd" d="M51.9714 10.3663L49.7966 11.1698V11.6989C50.2298 11.516 50.647 11.2976 51.044 11.0457C51.5534 10.6995 51.9714 10.3533 51.9714 10.3533" fill="white"/>
<path fill-rule="evenodd" clip-rule="evenodd" d="M51.5444 12.9855L49.7876 13.6387V14.1678C50.2204 13.9843 50.6376 13.7659 51.035 13.5146C51.5444 13.1684 51.5444 12.9529 51.5444 12.9529" fill="white"/>
<path fill-rule="evenodd" clip-rule="evenodd" d="M51.7876 11.6661L49.8284 12.3781V12.9072C50.2614 12.7241 50.6786 12.5056 51.0757 12.254C51.3427 12.0782 51.5921 11.877 51.8202 11.6531" fill="white"/>
<path fill-rule="evenodd" clip-rule="evenodd" d="M42.5225 18.2894C42.2939 18.2609 42.0623 18.3097 41.8647 18.4281C41.667 18.5465 41.5147 18.7276 41.4319 18.9426H43.6654C43.5536 18.739 43.3877 18.5702 43.186 18.455C42.9843 18.3397 42.7547 18.2824 42.5225 18.2894Z" fill="white"/>
<path fill-rule="evenodd" clip-rule="evenodd" d="M53.4222 8.94228C53.4222 7.68814 51.3127 6.53198 48.9813 6.53198C46.6498 6.53198 44.5469 7.65548 44.5469 8.90962L44.5926 9.21662L45.52 14.5467L41.1444 17.1399C40.8377 17.343 40.5774 17.6086 40.3805 17.9192C40.1835 18.2299 40.0544 18.5787 40.0015 18.9427H40.8048C40.8618 18.4978 41.0843 18.0906 41.4281 17.8025C41.7718 17.5144 42.2115 17.3664 42.6595 17.3881C43.6718 17.4404 44.2726 18.0413 44.8734 18.9427L45.0236 19.1779L45.2457 19.5241H38.7803C39.3224 20.4596 39.6398 21.5083 39.7076 22.5875V36.0173C39.7076 39.4727 42.3656 41.1253 45.2392 41.1253C47.4596 41.1253 47.76 41.0273 48.9878 42.2488C50.209 41.0207 50.5095 41.1514 52.7364 41.1514C55.6099 41.1514 58.268 39.5053 58.268 36.0434V22.5745C58.3355 21.4952 58.653 20.4465 59.1953 19.511H52.7299L52.9519 19.1648L53.1087 18.9296C53.703 18.0478 54.3038 17.4273 55.3226 17.375C55.7715 17.3553 56.2112 17.5059 56.5539 17.7965C56.8966 18.0872 57.1169 18.4966 57.1708 18.9427H57.9675C57.9139 18.5781 57.7838 18.229 57.5857 17.9183C57.3876 17.6076 57.126 17.3423 56.8181 17.1399L52.423 14.5794L53.3503 9.24928L53.4222 8.94228ZM45.4547 9.55628L48.72 10.6732V15.8074L46.3037 14.5336L45.4547 9.55628ZM46.258 20.4451C46.7416 21.0712 47.4392 21.4968 48.2172 21.6404C48.2984 22.0041 48.4983 22.3304 48.7853 22.568C48.7341 22.7807 48.7256 23.0016 48.7604 23.2177C48.7951 23.4338 48.8725 23.6409 48.9879 23.8268C49.1034 24.0128 49.2546 24.1739 49.4328 24.301C49.6111 24.428 49.8128 24.5183 50.0262 24.5667C50.0715 24.794 50.1764 25.0051 50.3302 25.1784C50.484 25.3518 50.6811 25.4811 50.9013 25.5531L50.2482 26.3434C50.142 26.4732 50.0053 26.5746 49.8503 26.6384C49.6952 26.7022 49.5268 26.7266 49.36 26.7092L46.2971 26.363C46.4277 26.0234 46.0751 25.6314 45.1085 25.8013L46.3102 22.4308L45.5526 20.9023L44.1616 22.0911L44.0571 25.6249L43.4628 25.331C42.6856 24.9978 42.4571 26.4022 43.195 26.4087H43.4889C43.4733 26.4745 43.4781 26.5435 43.5026 26.6065C43.5271 26.6695 43.5701 26.7235 43.6261 26.7615C43.591 26.7831 43.562 26.8134 43.5419 26.8494C43.5217 26.8854 43.5112 26.926 43.5112 26.9672C43.5112 27.0085 43.5217 27.049 43.5419 27.0851C43.562 27.1211 43.591 27.1513 43.6261 27.173C43.5859 27.1947 43.5514 27.2257 43.5256 27.2634C43.4997 27.3011 43.4832 27.3444 43.4775 27.3898C43.4717 27.4351 43.4769 27.4812 43.4925 27.5241C43.5081 27.5671 43.5338 27.6057 43.5673 27.6368C43.515 27.7214 43.4826 27.8168 43.4728 27.9158C43.4629 28.0148 43.4758 28.1147 43.5105 28.208C43.5451 28.3012 43.6006 28.3854 43.6727 28.4539C43.7448 28.5224 43.8316 28.5736 43.9265 28.6035C44.364 28.7211 44.6383 28.2442 44.7298 27.9503L49.4972 29.3939C49.792 29.4997 50.1111 29.5177 50.416 29.4459C50.7208 29.374 50.9983 29.2153 51.2148 28.9889L52.4556 27.898C52.3598 28.1943 52.373 28.5151 52.4927 28.8025C52.6124 29.0899 52.8309 29.3251 53.1087 29.4657C53.0695 29.7733 53.052 30.0832 53.0564 30.3932H40.6481V22.5549C40.6211 21.8211 40.4641 21.0979 40.1844 20.4189L46.258 20.4451ZM51.3846 23.4171C51.2555 23.6668 51.1943 23.946 51.2069 24.2269C51.2195 24.5077 51.3055 24.7803 51.4564 25.0174L51.254 25.2199C50.3592 25.1089 50.0066 23.7764 50.0066 23.7764C49.9967 23.8959 49.9967 24.0161 50.0066 24.1356C49.7427 24.0419 49.5181 23.862 49.3688 23.625C49.2196 23.3881 49.1544 23.1078 49.1837 22.8292C49.387 22.9417 49.6078 23.0189 49.8368 23.0578L49.8956 22.6659C49.6345 22.6326 49.3887 22.5241 49.1881 22.3536C48.9876 22.1831 48.8408 21.9581 48.7657 21.7057H48.6808H49.0139C49.361 21.7037 49.7061 21.6531 50.0392 21.5555C50.1822 21.7383 50.3606 21.8904 50.5637 22.0027C50.7668 22.1149 50.9905 22.185 51.2213 22.2087C51.1521 22.6038 51.2093 23.0106 51.3846 23.3714V23.4171ZM52.6907 26.8986C52.5983 27.023 52.5277 27.1622 52.4817 27.3102L51.9854 27.7674C52.0055 27.3985 51.9406 27.03 51.7957 26.6902C51.6507 26.3504 51.4296 26.0485 51.1495 25.8078L51.6784 25.2852L51.7829 25.3898C51.7431 25.5472 51.7351 25.711 51.7594 25.8716C51.7836 26.0322 51.8396 26.1864 51.9242 26.325C52.0087 26.4637 52.12 26.5842 52.2517 26.6793C52.3833 26.7744 52.5325 26.8423 52.6907 26.879V26.8986ZM50.2874 26.7157L50.6988 26.3108C50.9823 26.5469 51.2032 26.8492 51.3422 27.1909C51.4812 27.5327 51.5338 27.9034 51.4956 28.2704L51.045 28.6819C50.9576 28.7643 50.8612 28.8366 50.7576 28.8974C50.8587 28.5226 50.8687 28.1291 50.787 27.7496C50.7052 27.3701 50.5339 27.0156 50.2874 26.7157ZM49.4058 27.0554C49.5591 27.0744 49.7147 27.0519 49.8564 26.9901C50.0562 27.2979 50.1774 27.6501 50.2093 28.0157C50.2412 28.3813 50.1828 28.7491 50.0392 29.0868C49.8312 29.0867 49.6244 29.0559 49.4254 28.9954L49.2686 28.9497C49.5409 28.3525 49.585 27.6763 49.3927 27.0489L49.4058 27.0554ZM48.3543 26.9182L48.9355 26.9901C49.0417 27.5985 48.9453 28.2249 48.6613 28.7733L48.0082 28.5774C48.3005 28.0761 48.4283 27.4959 48.3739 26.9182H48.3543ZM47.1723 26.7811L47.871 26.866C47.9238 27.4179 47.81 27.9731 47.5445 28.4598L46.8327 28.2508C47.1079 27.813 47.2275 27.2952 47.1723 26.7811ZM44.3314 26.5916C44.2791 26.6172 44.2209 26.628 44.163 26.6229C44.105 26.6178 44.0496 26.597 44.0026 26.5627C43.9555 26.5285 43.9188 26.482 43.8962 26.4284C43.8735 26.3748 43.866 26.3161 43.8742 26.2585C44.0462 26.1663 44.2396 26.1213 44.4346 26.1282C44.6297 26.1351 44.8194 26.1936 44.9845 26.2977C45.1543 26.4087 45.2979 26.7157 45.533 26.9052C45.489 27.2095 45.4168 27.509 45.3175 27.8001C45.1934 27.7936 45.0737 27.7518 44.9725 27.6797C44.8713 27.6076 44.7927 27.508 44.7461 27.3928C44.6995 27.2776 44.6867 27.1514 44.7092 27.0292C44.7318 26.9069 44.7888 26.7937 44.8734 26.7027C44.8103 26.6219 44.7207 26.5659 44.6205 26.5444C44.5202 26.5229 44.4156 26.5373 44.3249 26.5851L44.3314 26.5916ZM43.8677 27.8915C44.0104 27.945 44.1599 27.978 44.3118 27.9895C44.3087 28.0249 44.2983 28.0593 44.2812 28.0905C44.264 28.1216 44.2406 28.1489 44.2123 28.1704C44.184 28.1919 44.1515 28.2073 44.1169 28.2155C44.0823 28.2237 44.0463 28.2246 44.0114 28.2181C43.979 28.2082 43.9491 28.1915 43.9237 28.169C43.8984 28.1465 43.8782 28.1188 43.8645 28.0878C43.8509 28.0568 43.8441 28.0232 43.8447 27.9893C43.8452 27.9554 43.8531 27.9221 43.8677 27.8915ZM43.2146 26.0103C43.1771 25.9915 43.1471 25.9603 43.1298 25.922C43.1125 25.8837 43.109 25.8407 43.1197 25.8C43.1304 25.7594 43.1548 25.7237 43.1887 25.699C43.2227 25.6742 43.2641 25.6619 43.3061 25.6641C43.502 25.6641 43.7697 25.8927 44.0244 26.0038C43.7564 26.0485 43.4827 26.0485 43.2146 26.0038V26.0103ZM43.8677 27.3689C44.0114 27.5061 44.4359 27.4539 44.4359 27.4539V27.5388C44.253 27.787 43.7371 27.6759 43.8546 27.3689H43.8677ZM44.4293 27.0881C44.1289 27.2056 43.8155 27.0423 43.9134 26.8464C44.0571 26.977 44.4489 26.9117 44.4489 26.9117L44.4293 27.0881ZM44.8734 23.5608L44.2922 25.6772L44.4881 22.261L45.3894 21.4902L45.8465 22.4961L44.7298 25.8013L45.0628 23.5673C45.0628 23.4106 44.9649 23.391 44.9387 23.5673L44.8734 23.5608ZM44.9583 26.1279C45.2354 26.1101 45.5136 26.1233 45.7877 26.1671C45.9249 26.2259 45.8335 26.4479 45.6571 26.4218C45.4147 26.3482 45.1805 26.2497 44.9583 26.1279ZM45.9706 26.6439L46.6759 26.7288C46.7212 27.2133 46.6139 27.6997 46.369 28.1201L45.7159 27.9242C45.8758 27.5056 45.9705 27.065 45.9967 26.6178L45.9706 26.6439ZM57.3406 36.0173C57.3719 36.7403 57.2001 37.4577 56.8446 38.0881C56.489 38.7184 55.9641 39.2366 55.3291 39.5837L55.7797 38.6692H55.3422L54.761 39.845C54.1111 40.0853 53.4227 40.2048 52.7299 40.1977C50.4376 40.1977 49.8303 40.2892 48.9813 41.1383C48.1323 40.2957 47.5249 40.1977 45.2326 40.1977C44.5486 40.2013 43.8695 40.0818 43.2277 39.845L43.8089 38.6692H43.3714L42.862 39.7013C42.7379 39.6425 42.6269 39.5837 42.5093 39.5184L42.9273 38.6758H42.4963L42.1893 39.329C41.6858 38.9502 41.281 38.4556 41.0093 37.887C40.7376 37.3185 40.607 36.6928 40.6285 36.063V30.8766H57.3406V36.0173ZM57.8043 20.4451C57.521 21.1229 57.3639 21.8467 57.3406 22.581V30.4194H56.4263C56.0695 29.8907 55.8106 29.3022 55.6622 28.6819C55.5844 28.9746 55.5687 29.2804 55.6159 29.5796C55.6631 29.8788 55.7723 30.1648 55.9365 30.4194H54.761C54.4948 29.8511 54.308 29.2488 54.2058 28.6296C53.8532 29.0281 54.0752 30.1124 54.2973 30.4128H53.5528C53.5324 30.0219 53.5698 29.6301 53.6638 29.2501C53.2524 29.1718 52.8213 28.9627 52.8213 28.5055C52.8933 28.5829 52.984 28.6404 53.0847 28.6724C53.1854 28.7044 53.2926 28.71 53.396 28.6884L53.7291 28.4271C52.6319 28.4598 52.5797 27.2579 53.4483 26.6896C52.5732 26.6896 51.9266 26.1997 52.2401 25.2722C52.0937 25.1783 51.9674 25.0561 51.8689 24.9127C51.7703 24.7694 51.7014 24.6078 51.6661 24.4374C51.6308 24.267 51.6299 24.0913 51.6634 23.9206C51.6969 23.7499 51.7642 23.5876 51.8613 23.4432C51.6989 23.2232 51.5972 22.9645 51.5663 22.6928C51.5353 22.4211 51.5762 22.146 51.685 21.8952C51.2355 21.8998 50.802 21.7287 50.4768 21.4183H50.405C50.9242 21.209 51.3761 20.861 51.7111 20.4124L57.8043 20.4451ZM54.4801 16.6696C53.5724 16.8264 52.7952 17.9368 52.1617 18.9362L52.0899 19.0538H51.4368V19.1713C51.365 19.9421 50.6335 20.9872 49.0204 20.9872C48.4111 21.0064 47.8137 20.8149 47.329 20.4451C47.026 20.2057 46.7991 19.8835 46.6759 19.5175C46.6392 19.4051 46.6151 19.289 46.6041 19.1713V19.0538H45.951L45.8204 18.9427C45.1673 17.9433 44.4032 16.8394 43.502 16.6761L45.9641 15.2456L48.9813 16.8851L52.005 15.2391L54.4801 16.6696ZM51.6589 14.5336L49.2425 15.8074V10.6667L52.5079 9.54975L51.6589 14.5336ZM48.9813 10.105L45.4024 8.68753C45.7094 7.96901 47.1135 7.38114 48.9878 7.38114C50.8621 7.38114 52.2532 7.99514 52.5666 8.68753L48.9813 10.105Z" fill="white"/>
<path fill-rule="evenodd" clip-rule="evenodd" d="M56.9537 25.5073V25.1154C55.7455 25.1154 55.4712 23.6653 55.4712 23.6653C55.4069 23.8876 55.3969 24.1221 55.4422 24.349C55.4875 24.576 55.5867 24.7887 55.7314 24.9693C55.8761 25.1499 56.062 25.293 56.2736 25.3866C56.4852 25.4803 56.7162 25.5217 56.9471 25.5073" fill="white"/>
<path fill-rule="evenodd" clip-rule="evenodd" d="M55.4336 27.9177L55.3161 27.5454C54.2907 27.8066 53.7552 26.1802 53.7552 26.1802C53.6866 26.4157 53.6815 26.6651 53.7404 26.9032C53.7992 27.1413 53.92 27.3596 54.0904 27.536C54.2608 27.7124 54.4747 27.8406 54.7106 27.9076C54.9465 27.9747 55.1959 27.9781 55.4336 27.9177Z" fill="white"/>
<path fill-rule="evenodd" clip-rule="evenodd" d="M56.1642 26.4086C54.9364 26.6046 54.4336 25.1741 54.4336 25.1741C54.3962 25.3609 54.3975 25.5533 54.4375 25.7396C54.4776 25.9258 54.5554 26.1019 54.6662 26.2568C54.777 26.4118 54.9185 26.5423 55.0818 26.6403C55.2451 26.7383 55.4268 26.8017 55.6156 26.8267C55.5709 27.0292 55.5855 27.2404 55.6577 27.4348C55.73 27.6293 55.8568 27.7988 56.023 27.9229C56.1891 28.0471 56.3876 28.1206 56.5945 28.1347C56.8015 28.1488 57.0081 28.1029 57.1895 28.0024L57.072 27.6497C56.9087 27.7122 56.7294 27.7193 56.5618 27.6698C56.3941 27.6203 56.2473 27.5171 56.1441 27.376C56.0409 27.2349 55.987 27.0637 55.9906 26.8889C55.9942 26.7141 56.0552 26.5453 56.1642 26.4086Z" fill="white"/>
<path fill-rule="evenodd" clip-rule="evenodd" d="M55.4135 22.3264V21.9345C53.7938 21.6013 53.9245 20.4844 53.9245 20.4844C53.8617 20.7066 53.8529 20.9406 53.8988 21.1669C53.9447 21.3932 54.044 21.6052 54.1884 21.7854C54.3327 21.9656 54.518 22.1087 54.7288 22.2028C54.9397 22.2969 55.1699 22.3392 55.4004 22.3264" fill="white"/>
<path fill-rule="evenodd" clip-rule="evenodd" d="M45.1318 38.6692L44.5505 39.8449H44.9881L45.5693 38.6692H45.1318Z" fill="white"/>
<path fill-rule="evenodd" clip-rule="evenodd" d="M46.0102 38.6692L45.4355 39.8449H45.8731L46.4478 38.6692H46.0102Z" fill="white"/>
<path fill-rule="evenodd" clip-rule="evenodd" d="M49.5222 38.6692L48.9475 39.8449H49.3785L49.9598 38.6692H49.5222Z" fill="white"/>
<path fill-rule="evenodd" clip-rule="evenodd" d="M50.4035 38.6692L49.8223 39.8449H50.2598L50.8345 38.6692H50.4035Z" fill="white"/>
<path fill-rule="evenodd" clip-rule="evenodd" d="M48.6493 38.6692L48.0681 39.8449H48.5057L49.0869 38.6692H48.6493Z" fill="white"/>
<path fill-rule="evenodd" clip-rule="evenodd" d="M53.7727 39.8449H54.2103L54.7915 38.6692H54.3539L53.7727 39.8449Z" fill="white"/>
<path fill-rule="evenodd" clip-rule="evenodd" d="M46.892 38.6692L46.3108 39.8449H46.7483L47.3296 38.6692H46.892Z" fill="white"/>
<path fill-rule="evenodd" clip-rule="evenodd" d="M47.7643 38.6692L47.1831 39.8449H47.6272L48.2019 38.6692H47.7643Z" fill="white"/>
<path fill-rule="evenodd" clip-rule="evenodd" d="M45.7798 32.3398C45.7443 32.3345 45.708 32.3402 45.6758 32.356C45.6436 32.3719 45.617 32.3972 45.5996 32.4286C45.5821 32.46 45.5747 32.496 45.5783 32.5317C45.5818 32.5675 45.5962 32.6013 45.6195 32.6286C45.6428 32.656 45.6739 32.6755 45.7086 32.6847C45.7433 32.6939 45.78 32.6923 45.8137 32.6801C45.8475 32.6679 45.8767 32.6456 45.8975 32.6163C45.9183 32.587 45.9296 32.5521 45.93 32.5162C45.932 32.4732 45.9176 32.4312 45.8897 32.3984C45.8618 32.3657 45.8225 32.3448 45.7798 32.3398Z" fill="white"/>
<path fill-rule="evenodd" clip-rule="evenodd" d="M48.9816 5.76762C50.4257 5.7264 51.8435 6.16008 53.0176 7.00216C53.2017 6.05174 53.5557 5.14232 54.0625 4.31752L52.6127 4.48082L51.8616 2.86743L50.4053 3.62514L48.9816 2.22729L47.5775 3.62514L46.1146 2.86743L45.357 4.48082L43.9072 4.31752C44.4154 5.14161 44.7695 6.0513 44.9521 7.00216C46.1246 6.16189 47.5397 5.72832 48.9816 5.76762ZM45.5987 5.11442L46.2975 3.65779L47.6036 4.31099L48.9816 2.94581L50.3988 4.34365L51.7049 3.69045L52.358 5.15361L53.207 5.02297C52.9839 5.42511 52.8043 5.84991 52.6714 6.29018C51.5416 5.6592 50.2691 5.32794 48.9751 5.32794C47.681 5.32794 46.4085 5.6592 45.2787 6.29018C45.1449 5.85023 44.9654 5.42551 44.7432 5.02297L45.5987 5.11442Z" fill="white"/>
<path fill-rule="evenodd" clip-rule="evenodd" d="M50.4704 2.88064C50.5717 2.88974 50.6724 2.85846 50.7507 2.79362C50.829 2.72878 50.8785 2.63562 50.8884 2.53444C50.8379 2.26284 50.7406 2.00206 50.6011 1.76367C50.6011 1.76367 50.1374 2.2601 50.1243 2.46912C50.117 2.5693 50.1491 2.66838 50.2138 2.74524C50.2784 2.82211 50.3705 2.87069 50.4704 2.88064Z" fill="white"/>
<path fill-rule="evenodd" clip-rule="evenodd" d="M52.8453 3.74292C52.8898 3.7666 52.9385 3.78117 52.9887 3.78577C53.0389 3.79037 53.0895 3.7849 53.1376 3.7697C53.1856 3.75449 53.2301 3.72984 53.2685 3.6972C53.307 3.66457 53.3385 3.62459 53.3612 3.57962C53.4206 3.30935 53.4316 3.03071 53.3939 2.75659C53.3939 2.75659 52.78 3.03093 52.682 3.22036C52.636 3.31058 52.6273 3.4153 52.6578 3.51187C52.6884 3.60844 52.7557 3.68909 52.8453 3.73639" fill="white"/>
<path fill-rule="evenodd" clip-rule="evenodd" d="M47.5042 2.88064C47.6053 2.8723 47.6991 2.82441 47.7651 2.74736C47.8311 2.67032 47.8641 2.57034 47.8569 2.46912C47.8569 2.2601 47.3801 1.76367 47.3801 1.76367C47.241 2.00228 47.1438 2.26298 47.0928 2.53444C47.1027 2.6344 47.1513 2.72652 47.2281 2.79118C47.305 2.85584 47.404 2.88794 47.5042 2.88064Z" fill="white"/>
<path fill-rule="evenodd" clip-rule="evenodd" d="M45.1341 3.74273C45.2225 3.69432 45.2885 3.61318 45.3178 3.51671C45.3471 3.42024 45.3374 3.31613 45.2908 3.22671C45.1929 3.03728 44.579 2.76294 44.579 2.76294C44.5431 3.03743 44.5564 3.31613 44.6182 3.58597C44.641 3.63094 44.6725 3.67091 44.7109 3.70355C44.7493 3.73619 44.7938 3.76083 44.8418 3.77604C44.8899 3.79125 44.9405 3.79672 44.9907 3.79212C45.0409 3.78752 45.0896 3.77295 45.1341 3.74927" fill="white"/>
<path fill-rule="evenodd" clip-rule="evenodd" d="M73.6207 16.8C74.1185 16.5845 74.5107 16.1805 74.7114 15.6765C73.4052 15.4936 70.0027 14.0565 67.188 15.2258C68.2394 14.2264 69.1864 14.0957 69.2778 12.6587C69.3917 12.7641 69.5281 12.8421 69.6767 12.8867C69.8253 12.9313 69.9821 12.9414 70.1352 12.9162C70.2883 12.891 70.4336 12.8312 70.56 12.7413C70.6864 12.6514 70.7907 12.5338 70.8648 12.3974C70.5774 11.5417 69.846 12.2341 69.7415 11.999C69.637 11.7638 70.6623 12.097 70.8909 10.9865C70.0615 10.6991 69.8133 11.3784 69.6631 11.2217C69.5129 11.0649 70.1921 10.784 69.7023 9.91528C68.8403 10.4182 69.2909 10.9931 69.108 11.0518C68.9252 11.1106 69.0623 10.4444 68.1088 10.477C68.0174 11.5026 69.0035 11.5352 68.8403 11.6985C68.677 11.8618 68.3831 11.1106 67.6647 11.5091C67.6527 11.6818 67.6829 11.8549 67.7528 12.0133C67.8228 12.1717 67.9303 12.3106 68.066 12.4181C68.2018 12.5255 68.3617 12.5983 68.5318 12.63C68.702 12.6616 68.8774 12.6513 69.0427 12.5999C68.9317 14.1741 67.4884 13.9063 66.4304 15.6569C68.7096 16.8261 69.735 18.8641 71.1391 20.2684C71.6359 19.7312 72.0577 19.1291 72.393 18.4787C72.5641 18.6509 72.7676 18.7876 72.9918 18.8808C73.216 18.9741 73.4563 19.0221 73.6991 19.0221C73.9419 19.0221 74.1823 18.9741 74.4064 18.8808C74.6306 18.7876 74.8341 18.6509 75.0053 18.4787C74.4828 17.9431 74.4632 17.5381 73.6665 16.8065L73.6207 16.8ZM71.4591 17.0939C71.6284 17.4968 71.692 17.9362 71.644 18.3706C71.596 18.805 71.438 19.2199 71.1848 19.5761C70.5091 18.1097 69.5006 16.8214 68.2394 15.8136C68.037 15.683 68.3505 15.4479 68.9317 15.3695C70.6819 15.0363 72.7326 15.781 73.7122 16.0227C73.338 16.3264 72.8848 16.5167 72.406 16.5714C73.0159 17.043 73.5528 17.6021 73.9995 18.2305C73.3138 18.4003 72.922 17.9627 71.4395 17.0743" fill="white"/>
<path fill-rule="evenodd" clip-rule="evenodd" d="M56.817 43.3461V41.4192C54.979 42.2313 53.0152 42.7218 51.0112 42.8693L50.9002 43.5551C51.1092 43.5551 51.3704 43.6074 51.7165 43.6335C49.9223 43.8777 48.1033 43.8777 46.3091 43.6335C46.6552 43.6335 46.9165 43.5878 47.1254 43.5551L47.0209 42.8758C45.0168 42.7291 43.0529 42.2386 41.2151 41.4257V43.3461L39.1841 44.1691C40.8466 45.0066 42.5996 45.651 44.4087 46.0895L44.1736 46.893C47.3503 47.7926 50.7145 47.7926 53.8913 46.893L53.6562 46.0895C55.4651 45.6504 57.218 45.0061 58.8807 44.1691L56.817 43.3461ZM40.2486 44.2149L41.607 43.6662V42.0985C42.7983 42.5363 44.0237 42.8749 45.2707 43.111L44.5001 45.6192C43.0388 45.2884 41.6144 44.8114 40.2486 44.1953V44.2149ZM48.9802 47.1085C47.527 47.099 46.0801 46.917 44.6699 46.5664L45.4862 43.9536C47.8015 44.3425 50.1654 44.3425 52.4806 43.9536L53.297 46.5664C51.8844 46.9168 50.4354 47.0987 48.9802 47.1085ZM53.4668 45.6388L52.7027 43.111C53.9501 42.8707 55.1755 42.5277 56.3664 42.0855V43.6531L57.7248 44.2018C56.3595 44.8191 54.935 45.2962 53.4733 45.6258" fill="white"/>
<path fill-rule="evenodd" clip-rule="evenodd" d="M25.5944 18.4659C25.9308 19.1137 26.3525 19.7135 26.8483 20.2492C28.2524 18.8448 29.2843 16.8068 31.557 15.6376C30.4794 13.8674 29.0361 14.1614 28.9447 12.5806C29.1096 12.6307 29.2842 12.64 29.4535 12.6077C29.6228 12.5754 29.7817 12.5025 29.9166 12.3952C30.0515 12.2879 30.1584 12.1495 30.2279 11.9918C30.2975 11.834 30.3278 11.6618 30.3161 11.4898C29.5912 11.0913 29.3365 11.8817 29.1406 11.6792C28.9447 11.4767 29.97 11.4833 29.872 10.4577C28.9185 10.4577 29.0949 11.1109 28.8663 11.0326C28.6377 10.9542 29.1341 10.3794 28.272 9.896C27.7887 10.7974 28.4483 11.0783 28.3112 11.2024C28.174 11.3265 27.9128 10.6798 27.0834 10.9672C27.3055 12.0777 28.3896 11.6204 28.2328 11.9797C28.0761 12.339 27.3969 11.5225 27.1095 12.3781C27.1827 12.5155 27.2865 12.6341 27.4129 12.7247C27.5393 12.8154 27.685 12.8758 27.8385 12.901C27.992 12.9263 28.1492 12.9158 28.298 12.8705C28.4468 12.8251 28.5832 12.746 28.6965 12.6394C28.7879 14.083 29.7349 14.2006 30.7863 15.2065C27.9716 14.0373 24.556 15.4743 23.2629 15.6572C23.4694 16.1551 23.8636 16.5516 24.3601 16.7611C23.5634 17.4992 23.5438 17.9042 23.054 18.4333C23.054 18.4333 24.1185 19.6025 25.6662 18.4333L25.5944 18.4659ZM24.0727 18.2112C24.5204 17.5814 25.0597 17.0222 25.6728 16.5521C25.1938 16.4938 24.741 16.3013 24.3666 15.9968C25.3462 15.7356 27.4034 14.9975 29.1536 15.3437C29.7284 15.422 30.0549 15.6572 29.8459 15.7878C28.5558 16.8017 27.5241 18.1066 26.8352 19.596C26.586 19.238 26.4303 18.8233 26.3824 18.3898C26.3345 17.9562 26.3959 17.5176 26.561 17.1138C25.085 18.0087 24.6932 18.4202 24.0009 18.27" fill="white"/>
<path fill-rule="evenodd" clip-rule="evenodd" d="M47.7573 17.3947V18.2439C47.8705 18.137 48.0058 18.0564 48.1537 18.0079C48.3016 17.9593 48.4584 17.944 48.6129 17.963V19.1845C48.6072 19.4869 48.5265 19.7833 48.3777 20.0467H49.599C49.4503 19.7833 49.3695 19.4869 49.3639 19.1845V17.9565C49.5184 17.937 49.6753 17.9521 49.8232 18.0007C49.9712 18.0492 50.1065 18.1301 50.2194 18.2373V17.3882H47.7573V17.3947Z" fill="white"/>
</g>
<defs>
<clipPath id="clip0">
<rect width="98" height="75" fill="white"/>
</clipPath>
</defs>
</svg>
