<svg width="28" height="28" viewBox="0 0 28 28" fill="none" xmlns="http://www.w3.org/2000/svg">
<path d="M3.77981 7.0791C4.51068 6.56827 5.61242 6.66623 6.26865 7.20816L5.51601 6.1142C4.91032 5.25037 5.12725 4.3158 5.99185 3.70933C6.85645 3.1052 9.30641 4.72944 9.30641 4.72944C8.69528 3.85706 8.80958 2.75143 9.68195 2.13952C10.5543 1.52995 11.7579 1.74066 12.3691 2.61459L20.4708 14.0597L19.4382 24.0702L10.821 20.9275L3.30475 9.78331C2.68818 8.90549 2.90122 7.69489 3.77981 7.0791Z" fill="#EF9645"/>
<path d="M2.09536 13.4464C2.09536 13.4464 1.21521 12.1635 2.4989 11.2841C3.78102 10.4047 4.6604 11.6869 4.6604 11.6869L8.74314 17.6411C8.88388 17.4063 9.03782 17.1746 9.20966 16.946L3.5431 8.68332C3.5431 8.68332 2.66373 7.4012 3.94663 6.52182C5.22876 5.64245 6.10813 6.92458 6.10813 6.92458L11.438 14.6974C11.6363 14.5357 11.8392 14.3732 12.0484 14.2138L5.86944 5.2016C5.86944 5.2016 4.99006 3.91947 6.27297 3.0401C7.5551 2.16072 8.43447 3.44285 8.43447 3.44285L14.6134 12.4535C14.8404 12.3143 15.0651 12.1938 15.2906 12.0663L9.51522 3.64423C9.51522 3.64423 8.63585 2.3621 9.91797 1.48273C11.2001 0.603354 12.0795 1.88548 12.0795 1.88548L18.1861 10.7912L19.1145 12.1456C15.2673 14.7845 14.9011 19.749 17.0991 22.9547C17.5384 23.5961 18.1799 23.1568 18.1799 23.1568C15.5418 19.3089 16.3473 14.9851 20.1952 12.347L19.0608 6.66955C19.0608 6.66955 18.6371 5.17361 20.1322 4.74908C21.6282 4.32533 22.0527 5.82128 22.0527 5.82128L23.3628 9.71198C23.8822 11.2546 24.435 12.7917 25.1667 14.2457C27.2325 18.351 25.9986 23.4531 22.1032 26.1254C17.8541 29.0388 12.0453 27.9557 9.13113 23.7073L2.09536 13.4464Z" fill="#FFDC5D"/>
<path d="M9.3303 24.8807C6.22023 24.8807 3.0775 21.7379 3.0775 18.6279C3.0775 18.1979 2.7626 17.8503 2.33263 17.8503C1.90267 17.8503 1.52246 18.1979 1.52246 18.6279C1.52246 23.293 4.66519 26.4357 9.3303 26.4357C9.76027 26.4357 10.1078 26.0555 10.1078 25.6255C10.1078 25.1956 9.76027 24.8807 9.3303 24.8807Z" fill="#5DADEC"/>
<path d="M5.44263 26.403C3.11007 26.403 1.55504 24.848 1.55504 22.5155C1.55504 22.0855 1.20749 21.7379 0.777518 21.7379C0.347551 21.7379 0 22.0855 0 22.5155C0 25.6255 2.33255 27.9581 5.44263 27.9581C5.87259 27.9581 6.22015 27.6105 6.22015 27.1806C6.22015 26.7506 5.87259 26.403 5.44263 26.403ZM18.6604 1.52246C18.2312 1.52246 17.8829 1.87079 17.8829 2.29998C17.8829 2.72917 18.2312 3.0775 18.6604 3.0775C21.7705 3.0775 24.8806 5.86801 24.8806 9.29764C24.8806 9.72683 25.2289 10.0752 25.6581 10.0752C26.0873 10.0752 26.4356 9.72683 26.4356 9.29764C26.4356 5.01041 23.3255 1.52246 18.6604 1.52246Z" fill="#5DADEC"/>
<path d="M22.548 0C22.1188 0 21.7705 0.315672 21.7705 0.744862C21.7705 1.17405 22.1188 1.55504 22.548 1.55504C24.8806 1.55504 26.403 3.28501 26.403 5.40997C26.403 5.83916 26.7832 6.18749 27.2131 6.18749C27.6431 6.18749 27.958 5.83916 27.958 5.40997C27.958 2.42663 25.6581 0 22.548 0Z" fill="#5DADEC"/>
</svg>
