<svg width="181" height="46" viewBox="0 0 181 46" fill="none" xmlns="http://www.w3.org/2000/svg">
<path d="M54.9764 19H56.8964V4.552L62.7764 19H63.4244L69.1124 4.552V19H71.2004V1.84H68.3204L63.1844 15.208L57.8804 1.84H54.9764V19ZM80.1391 17.56C77.5951 17.56 76.0351 15.688 76.0351 12.832V12.64C76.0351 9.76 77.6191 7.888 80.1391 7.888C82.6351 7.888 84.2431 9.76 84.2431 12.664V12.832C84.2431 15.664 82.6591 17.56 80.1391 17.56ZM80.1151 19.216C83.6911 19.216 86.3071 16.6 86.3071 12.808V12.616C86.3071 8.848 83.6911 6.232 80.1391 6.232C76.5871 6.232 73.9711 8.872 73.9711 12.64V12.832C73.9711 16.504 76.5391 19.216 80.1151 19.216ZM94.1435 17.56C91.5995 17.56 90.0395 15.688 90.0395 12.832V12.64C90.0395 9.76 91.6235 7.888 94.1435 7.888C96.6395 7.888 98.2475 9.76 98.2475 12.664V12.832C98.2475 15.664 96.6635 17.56 94.1435 17.56ZM94.1195 19.216C97.6955 19.216 100.311 16.6 100.311 12.808V12.616C100.311 8.848 97.6955 6.232 94.1435 6.232C90.5915 6.232 87.9755 8.872 87.9755 12.64V12.832C87.9755 16.504 90.5435 19.216 94.1195 19.216ZM102.916 19H104.908V11.392C104.908 9.136 106.564 7.96 108.412 7.96C110.428 7.96 111.364 8.944 111.364 11.152V19H113.356V11.296C113.356 7.648 111.532 6.232 108.94 6.232C106.876 6.232 105.484 7.264 104.908 8.44V6.448H102.916V19ZM120.668 19.216C123.716 19.216 125.276 17.68 125.276 15.4C125.276 12.736 123.452 12.16 120.86 11.68C118.556 11.272 117.932 10.816 117.932 9.688C117.932 8.608 118.868 7.888 120.308 7.888C121.892 7.888 122.66 8.488 122.948 9.856H124.868C124.532 7.144 122.588 6.232 120.332 6.232C118.364 6.232 116.084 7.432 116.084 9.76C116.084 11.944 117.188 12.856 120.452 13.456C122.396 13.816 123.38 14.248 123.38 15.568C123.38 16.912 122.54 17.56 120.644 17.56C118.628 17.56 117.836 16.624 117.692 15.136H115.748C115.868 17.704 117.668 19.216 120.668 19.216ZM127.879 19H129.871V6.448H127.879V19ZM128.839 3.832C129.559 3.832 130.159 3.232 130.159 2.512C130.159 1.792 129.559 1.192 128.839 1.192C128.119 1.192 127.519 1.792 127.519 2.512C127.519 3.232 128.119 3.832 128.839 3.832ZM138.484 23.584C141.988 23.584 144.46 21.808 144.484 18.16V6.448H142.492V8.464C141.772 7.24 140.476 6.232 138.388 6.232C134.932 6.232 132.532 9.064 132.532 12.472V12.64C132.532 16.096 134.956 18.592 138.244 18.592C140.068 18.592 141.772 17.44 142.492 16.216V18.04C142.492 20.728 140.932 21.904 138.46 21.904C136.324 21.904 135.124 21.16 134.836 19.72H132.796C133.132 21.832 134.764 23.584 138.484 23.584ZM138.46 16.936C136.348 16.936 134.596 15.304 134.596 12.568V12.376C134.596 9.736 136.084 7.888 138.58 7.888C141.028 7.888 142.564 9.52 142.564 12.328V12.496C142.564 15.304 140.788 16.936 138.46 16.936ZM148.035 19H150.027V11.392C150.027 9.136 151.683 7.96 153.531 7.96C155.547 7.96 156.483 8.944 156.483 11.152V19H158.475V11.296C158.475 7.648 156.651 6.232 154.059 6.232C151.995 6.232 150.603 7.264 150.027 8.44V0.447999H148.035V19ZM165.715 19.168C166.531 19.168 167.011 19.048 167.419 18.904V17.224C166.987 17.392 166.507 17.488 165.883 17.488C164.875 17.488 164.323 16.888 164.323 15.664V8.128H167.251V6.448H164.323V3.592H162.331V6.448H160.531V8.128H162.331V15.856C162.331 17.824 163.435 19.168 165.715 19.168ZM172.278 9.496H173.43V7.456H173.982L175.254 9.496H176.454L175.062 7.264C175.686 7.072 176.142 6.64 176.142 5.848V5.824C176.142 4.744 175.35 4.24 174.126 4.24H172.278V9.496ZM173.43 6.664V5.128H174.102C174.678 5.128 175.014 5.32 175.014 5.872V5.896C175.014 6.4 174.702 6.664 174.102 6.664H173.43ZM174.102 11.368C171.654 11.368 169.734 9.592 169.734 6.952C169.734 4.336 171.558 2.488 174.102 2.488C176.646 2.488 178.47 4.312 178.47 6.928C178.47 9.544 176.574 11.368 174.102 11.368ZM174.102 12.232C177.078 12.232 179.43 9.928 179.43 6.928C179.43 3.976 177.126 1.624 174.102 1.624C171.126 1.624 168.774 4 168.774 6.952C168.774 9.952 171.15 12.232 174.102 12.232ZM60.5204 42.216C63.9284 42.216 66.4484 40.032 66.4484 37.152C66.4484 33.912 64.4324 32.76 60.6164 32.16C57.1124 31.632 56.4884 30.768 56.4884 29.088C56.4884 27.48 57.7124 26.304 60.0644 26.304C62.4404 26.304 63.6884 27.192 64.0964 29.352H65.9684C65.6324 26.304 63.4964 24.624 60.0644 24.624C56.8244 24.624 54.5444 26.64 54.5444 29.28C54.5444 32.328 56.6804 33.456 60.2804 34.008C63.5444 34.536 64.4324 35.352 64.4324 37.296C64.4324 39.24 62.7284 40.536 60.5204 40.536C57.0644 40.536 56.2484 38.808 55.9844 36.768H53.9684C54.2804 39.696 55.9364 42.216 60.5204 42.216ZM73.2153 42.168C74.0313 42.168 74.5113 42.048 74.9193 41.904V40.224C74.4873 40.392 74.0073 40.488 73.3833 40.488C72.3753 40.488 71.8233 39.888 71.8233 38.664V31.128H74.7513V29.448H71.8233V26.592H69.8313V29.448H68.0313V31.128H69.8313V38.856C69.8313 40.824 70.9353 42.168 73.2153 42.168ZM81.6985 42.216C83.7145 42.216 85.1065 41.184 85.6825 40.008V42H87.6745V29.448H85.6825V37.056C85.6825 39.312 84.0025 40.488 82.2265 40.488C80.2585 40.488 79.3225 39.504 79.3225 37.296V29.448H77.3305V37.392C77.3305 40.848 79.2025 42.216 81.6985 42.216ZM95.9485 42.216C97.7725 42.216 99.5245 41.064 100.245 39.84V42H102.237V23.448H100.245V31.464C99.5245 30.24 98.2285 29.232 96.1405 29.232C92.6845 29.232 90.2845 31.944 90.2845 35.784V35.976C90.2845 39.888 92.6605 42.216 95.9485 42.216ZM96.1645 40.56C94.0525 40.56 92.3485 39.048 92.3485 35.88V35.688C92.3485 32.64 93.8365 30.888 96.3325 30.888C98.7805 30.888 100.317 32.4 100.317 35.616V35.808C100.317 39.024 98.4925 40.56 96.1645 40.56ZM105.835 42H107.827V29.448H105.835V42ZM106.795 26.832C107.515 26.832 108.115 26.232 108.115 25.512C108.115 24.792 107.515 24.192 106.795 24.192C106.075 24.192 105.475 24.792 105.475 25.512C105.475 26.232 106.075 26.832 106.795 26.832ZM116.657 40.56C114.113 40.56 112.553 38.688 112.553 35.832V35.64C112.553 32.76 114.137 30.888 116.657 30.888C119.153 30.888 120.761 32.76 120.761 35.664V35.832C120.761 38.664 119.177 40.56 116.657 40.56ZM116.633 42.216C120.209 42.216 122.825 39.6 122.825 35.808V35.616C122.825 31.848 120.209 29.232 116.657 29.232C113.105 29.232 110.489 31.872 110.489 35.64V35.832C110.489 39.504 113.057 42.216 116.633 42.216Z" fill="white"/>
<circle cx="20.5606" cy="21.045" r="20.5606" fill="white"/>
<circle cx="20.5606" cy="21.045" r="20.5606" fill="url(#paint0_radial)"/>
<path d="M41.9681 20.765C42.0158 18.1538 41.3258 16.2687 40.2863 15.0444C39.2479 13.8214 37.8424 13.2344 36.4016 13.2441C35.6891 13.2489 35.135 13.4219 34.6943 13.7346C34.2514 14.0491 33.8933 14.5259 33.6105 15.1878C33.0382 16.5271 32.8078 18.5403 32.7589 21.2146C32.7102 23.872 32.9778 26.1405 33.6172 27.7292C34.2529 29.3088 35.22 30.148 36.5669 30.1389C37.9298 30.1298 39.248 29.1589 40.2584 27.4517C41.2633 25.7539 41.92 23.3902 41.9681 20.765Z" stroke="#DADADA" stroke-width="0.69697"/>
<path d="M17.5715 20.1492C16.3749 25.16 19.5975 29.2316 23.7813 30.5151C24.6312 30.7011 25.3576 30.6388 25.9905 30.3822C26.6296 30.123 27.2007 29.6544 27.7159 28.9868C28.7544 27.6411 29.5261 25.5398 30.1482 22.9348C30.758 20.3813 30.5813 17.9236 29.8202 16.0181C29.0586 14.1113 27.7281 12.788 26.0398 12.414C24.3514 12.0401 22.5542 12.6707 21.0042 14.0655C19.4551 15.4593 18.1813 17.5958 17.5715 20.1492Z" stroke="#DADADA" stroke-width="0.69697"/>
<circle r="1" transform="matrix(-0.863071 -0.505083 -0.505083 0.863071 35.5774 23.8358)" fill="black"/>
<circle r="1" transform="matrix(-0.863071 -0.505083 -0.505083 0.863071 27.5178 23.7518)" fill="black"/>
<path d="M32.4001 31.2454C32.1799 31.6218 31.4319 32.108 30.202 31.0417" stroke="black" stroke-width="0.69697"/>
<path d="M32.3388 25.4142L34.3507 27.9158L33.0547 28.1505" stroke="black" stroke-width="0.69697"/>
<path d="M32.8175 24.5924C32.0366 23.9469 30.2283 23.0772 29.2422 24.7622" stroke="#DADADA" stroke-width="0.69697"/>
<line y1="-0.348485" x2="3.45664" y2="-0.348485" transform="matrix(-0.947186 -0.320686 -0.331188 0.943565 17.3843 21.5081)" stroke="#DADADA" stroke-width="0.69697"/>
<line y1="-0.348485" x2="4" y2="-0.348485" transform="matrix(-0.505083 0.863071 0.863071 0.505083 43.4292 20.3193)" stroke="#DADADA" stroke-width="0.69697"/>
<defs>
<radialGradient id="paint0_radial" cx="0" cy="0" r="1" gradientUnits="userSpaceOnUse" gradientTransform="translate(31.7121 34.6359) rotate(154.867) scale(31.1792 23.3347)">
<stop stop-color="#F0F0F0"/>
<stop offset="1" stop-color="white" stop-opacity="0"/>
</radialGradient>
</defs>
</svg>
