<svg width="100" height="53" viewBox="0 0 100 53" fill="none" xmlns="http://www.w3.org/2000/svg">
<g clip-path="url(#clip0)">
<path d="M0 21.0827C0.0406456 21.6293 0.286486 22.1404 0.688207 22.5134C1.08993 22.8863 1.61781 23.0936 2.16597 23.0936C2.71413 23.0936 3.24202 22.8863 3.64374 22.5134C4.04546 22.1404 4.2913 21.6293 4.33195 21.0827V16.2683C4.30994 15.7085 4.07211 15.1791 3.66832 14.7909C3.26452 14.4026 2.72612 14.1858 2.16597 14.1858C1.60583 14.1858 1.06742 14.4026 0.663631 14.7909C0.25984 15.1791 0.0220107 15.7085 0 16.2683V21.0827Z" fill="white"/>
<path d="M11.9911 21.0823C12.0319 21.6289 12.2778 22.1399 12.6795 22.5128C13.0812 22.8857 13.6091 23.0929 14.1572 23.0929C14.7053 23.0929 15.2331 22.8857 15.6349 22.5128C16.0366 22.1399 16.2825 21.6289 16.3233 21.0823V10.2891C16.3012 9.72938 16.0634 9.19988 15.6596 8.81164C15.2558 8.42339 14.7174 8.20654 14.1572 8.20654C13.597 8.20654 13.0586 8.42339 12.6548 8.81164C12.2509 9.19988 12.0131 9.72938 11.9911 10.2891V21.0823Z" fill="white"/>
<path d="M23.9183 25.4297C23.9592 25.9762 24.2051 26.4871 24.6068 26.8599C25.0085 27.2327 25.5363 27.4399 26.0844 27.4399C26.6324 27.4399 27.1602 27.2327 27.5619 26.8599C27.9636 26.4871 28.2096 25.9762 28.2504 25.4297V2.08294C28.2285 1.52314 27.9907 0.993553 27.5869 0.605228C27.1831 0.216903 26.6446 0 26.0844 0C25.5241 0 24.9856 0.216903 24.5818 0.605228C24.178 0.993553 23.9402 1.52314 23.9183 2.08294V25.4297Z" fill="white"/>
<path d="M35.9078 21.0825C35.9485 21.6291 36.1943 22.1402 36.596 22.5131C36.9978 22.8861 37.5257 23.0934 38.0738 23.0934C38.622 23.0934 39.1499 22.8861 39.5516 22.5131C39.9533 22.1402 40.1991 21.6291 40.2398 21.0825V10.2893C40.2178 9.72954 39.9799 9.20008 39.5762 8.81185C39.1724 8.42363 38.634 8.20679 38.0738 8.20679C37.5137 8.20679 36.9753 8.42363 36.5715 8.81185C36.1677 9.20008 35.9298 9.72954 35.9078 10.2893V21.0825Z" fill="white"/>
<path d="M47.844 21.0828C47.8846 21.6295 48.1305 22.1405 48.5322 22.5135C48.934 22.8865 49.4619 23.0938 50.0101 23.0938C50.5583 23.0938 51.0862 22.8865 51.4879 22.5135C51.8897 22.1405 52.1355 21.6295 52.1762 21.0828V16.2684C52.1542 15.7086 51.9163 15.1791 51.5125 14.7909C51.1087 14.4026 50.5703 14.1858 50.0101 14.1858C49.4499 14.1858 48.9115 14.4026 48.5077 14.7909C48.1038 15.1791 47.866 15.7086 47.844 16.2684V21.0828Z" fill="white"/>
<path d="M59.8243 21.0823C59.865 21.6289 60.1109 22.14 60.5127 22.5129C60.9144 22.8858 61.4423 23.0931 61.9904 23.0931C62.5386 23.0931 63.0664 22.8858 63.4682 22.5129C63.8699 22.14 64.1158 21.6289 64.1565 21.0823V10.2891C64.1343 9.72948 63.8965 9.20011 63.4927 8.81196C63.0889 8.42382 62.5505 8.20703 61.9904 8.20703C61.4303 8.20703 60.892 8.42382 60.4882 8.81196C60.0844 9.20011 59.8465 9.72948 59.8243 10.2891V21.0823Z" fill="white"/>
<path d="M71.7554 25.4297C71.7962 25.9762 72.0421 26.4871 72.4438 26.8599C72.8455 27.2327 73.3733 27.4399 73.9214 27.4399C74.4694 27.4399 74.9972 27.2327 75.3989 26.8599C75.8006 26.4871 76.0465 25.9762 76.0874 25.4297V2.08294C76.0655 1.52314 75.8277 0.993553 75.4239 0.605228C75.0201 0.216903 74.4816 0 73.9214 0C73.3611 0 72.8227 0.216903 72.4188 0.605228C72.015 0.993553 71.7773 1.52314 71.7554 2.08294V25.4297Z" fill="white"/>
<path d="M83.7258 21.0825C83.7665 21.6291 84.0123 22.1402 84.414 22.5131C84.8158 22.8861 85.3437 23.0934 85.8918 23.0934C86.44 23.0934 86.9679 22.8861 87.3696 22.5131C87.7713 22.1402 88.0171 21.6291 88.0578 21.0825V10.2893C88.0358 9.72954 87.7979 9.20008 87.3942 8.81185C86.9904 8.42363 86.452 8.20679 85.8918 8.20679C85.3317 8.20679 84.7933 8.42363 84.3895 8.81185C83.9857 9.20008 83.7478 9.72954 83.7258 10.2893V21.0825Z" fill="white"/>
<path d="M95.6683 21.0827C95.709 21.6293 95.9548 22.1404 96.3565 22.5134C96.7583 22.8863 97.2862 23.0936 97.8343 23.0936C98.3825 23.0936 98.9104 22.8863 99.3121 22.5134C99.7138 22.1404 99.9596 21.6293 100 21.0827V16.2683C99.9783 15.7085 99.7404 15.1791 99.3367 14.7909C98.9329 14.4026 98.3945 14.1858 97.8343 14.1858C97.2742 14.1858 96.7358 14.4026 96.332 14.7909C95.9282 15.1791 95.6903 15.7085 95.6683 16.2683V21.0827Z" fill="white"/>
<path d="M38.6011 48.2646L38.5844 52.2535L38.876 52.3036C39.7913 52.4745 40.7155 52.5933 41.6443 52.6595C42.4577 52.7349 43.2756 52.7509 44.0913 52.7073C44.8708 52.651 45.6413 52.5057 46.3877 52.2742C47.2635 52.0263 48.0758 51.5932 48.7696 51.0041C49.3945 50.4707 49.8722 49.786 50.1571 49.0153C50.6538 47.725 50.6439 46.2945 50.1294 45.0112C49.8584 44.3455 49.4317 43.7545 48.885 43.288C48.3566 42.8117 47.7354 42.4499 47.0604 42.2253L44.0525 41.1091C43.6928 40.9565 43.4008 40.6784 43.2307 40.3267C43.1654 40.1823 43.1344 40.0247 43.1402 39.8663C43.1461 39.708 43.1886 39.5531 43.2643 39.4139C43.3181 39.3148 43.3856 39.2239 43.4649 39.1437C43.5572 39.0504 43.6604 38.9686 43.7723 38.9001C43.817 38.8726 43.8625 38.847 43.9089 38.8231C44.2452 38.6567 44.6082 38.5511 44.9813 38.5109C45.6181 38.419 46.2653 38.4259 46.9 38.5312C47.6498 38.6123 48.3931 38.7453 49.1244 38.9292L49.28 38.9638V35.2837L48.9924 35.222C48.2468 35.0435 47.4914 34.909 46.7301 34.8191C45.7431 34.6874 44.7432 34.6831 43.7551 34.8064C42.5034 34.921 41.3127 35.3998 40.3301 36.1838C39.6641 36.7066 39.1574 37.4051 38.8671 38.2006C38.4302 39.4121 38.429 40.7379 38.8637 41.9502C39.0884 42.5527 39.4483 43.0957 39.9156 43.5373C40.321 43.9282 40.7792 44.2602 41.2768 44.5238C41.9321 44.8759 42.627 45.1487 43.3468 45.3366C43.5844 45.4077 43.8207 45.4828 44.0557 45.5619L44.412 45.6927C44.4462 45.7062 44.48 45.72 44.5139 45.7341C44.8653 45.8597 45.1863 46.0578 45.4562 46.3154C45.6436 46.4909 45.788 46.7072 45.8781 46.9475C45.9337 47.1672 45.9346 47.3973 45.8806 47.6174C45.768 47.9722 45.5207 48.2686 45.192 48.4431C44.8337 48.6294 44.4453 48.7508 44.0447 48.8017C43.4567 48.8951 42.8605 48.9252 42.2661 48.8914C41.4873 48.8328 40.7125 48.7294 39.9456 48.5817C39.5445 48.4995 39.1459 48.4063 38.7498 48.302L38.6012 48.2647" fill="white"/>
<path d="M22.2465 52.1086V47.4772L22.1557 47.5168C21.1117 48.0223 19.976 48.3106 18.8173 48.3642C17.6135 48.4584 16.4171 48.1058 15.4568 47.3737C14.771 46.8443 14.261 46.1201 13.9938 45.296C13.6988 44.3979 13.6647 43.4345 13.8954 42.5178C14.1096 41.5804 14.6347 40.743 15.3852 40.1418C16.0507 39.5851 16.8639 39.2343 17.7255 39.1323C19.249 38.9635 20.7881 39.2524 22.1467 39.9621L22.2465 40.0136V35.3556L22.0349 35.299C20.6748 34.8624 19.2469 34.6755 17.8203 34.7474C16.5208 34.7805 15.241 35.0732 14.0563 35.6081C12.8604 36.1559 11.8062 36.9707 10.9746 37.9898C9.71007 39.5896 9.0082 41.5615 8.97761 43.6004C8.94701 45.6393 9.58939 47.6315 10.8053 49.2684C12.0357 50.8423 13.763 51.953 15.7055 52.4194C17.7532 52.917 19.8983 52.8419 21.9061 52.2023L22.2465 52.1088" fill="white"/>
<path d="M32.6629 52.4145V35.043H28.283V52.4145H32.6629" fill="white"/>
<path d="M68.0124 52.1085V47.4771L67.9217 47.5167C66.8777 48.0222 65.742 48.3105 64.5833 48.3641C63.3796 48.4583 62.1834 48.1057 61.2232 47.3738C60.5373 46.8444 60.0273 46.1201 59.76 45.2959C59.465 44.3978 59.4308 43.4345 59.6614 42.5178C59.8756 41.5803 60.4007 40.7429 61.1514 40.1418C61.8168 39.585 62.6301 39.2342 63.4917 39.1322C65.0153 38.9635 66.5545 39.2524 67.9132 39.9621L68.0126 40.0136V35.3556L67.8012 35.299C66.4411 34.8624 65.0132 34.6755 63.5866 34.7474C62.2871 34.7805 61.0073 35.0731 59.8225 35.6079C58.6268 36.156 57.5725 36.9708 56.7408 37.9898C55.4764 39.5896 54.7746 41.5615 54.7441 43.6004C54.7135 45.6393 55.3559 47.6314 56.5718 49.2683C57.8022 50.8422 59.5295 51.9529 61.472 52.4192C63.5196 52.9168 65.6647 52.8417 67.6725 52.2021L68.0126 52.1086" fill="white"/>
<path d="M72.6277 43.7363C72.6487 45.0923 72.9712 46.4266 73.5718 47.6424C74.1723 48.8583 75.0359 49.9253 76.1 50.7661C77.164 51.6069 78.4018 52.2004 79.7236 52.5035C81.0454 52.8067 82.4181 52.8119 83.7421 52.5188C85.5204 52.184 87.1546 51.316 88.4278 50.0301C89.7009 48.7443 90.5527 47.1015 90.8698 45.3201C91.187 43.5386 90.9546 41.7028 90.2035 40.0565C89.4524 38.4103 88.2181 37.0316 86.6647 36.1036C85.2851 35.2498 83.7042 34.7762 82.0823 34.7307C80.4605 34.6852 78.8555 35.0694 77.4301 35.8445C76.0048 36.6195 74.8098 37.7578 73.9664 39.1438C73.1229 40.5298 72.6611 42.1142 72.6277 43.7363H72.6277ZM78.9864 40.1729C79.8123 39.5134 80.8412 39.1607 81.898 39.1748C82.9547 39.1889 83.9739 39.569 84.7818 40.2503C85.5898 40.9316 86.1365 41.8719 86.3288 42.9111C86.5211 43.9503 86.3472 45.024 85.8366 45.9494C85.326 46.8747 84.5103 47.5943 83.5286 47.9857C82.5469 48.377 81.4598 48.4159 80.4527 48.0956C79.4455 47.7753 78.5806 47.1158 78.0052 46.2292C77.4299 45.3427 77.1797 44.2842 77.2974 43.2339C77.4323 42.03 78.0398 40.9289 78.9864 40.1729Z" fill="white"/>
</g>
<defs>
<clipPath id="clip0">
<rect width="100" height="52.7437" fill="white"/>
</clipPath>
</defs>
</svg>
