<svg width="100" height="13" viewBox="0 0 100 13" fill="none" xmlns="http://www.w3.org/2000/svg">
<g clip-path="url(#clip0)">
<path d="M15.9589 8.43565H2.51035C2.43637 8.43468 2.36245 8.44034 2.28948 8.45255H1.95001C1.64985 8.45255 1.40564 8.73412 1.40564 9.08011C1.40564 9.4261 1.64985 9.70726 1.95001 9.70726H5.27253C5.5725 9.70726 5.81656 9.42591 5.81656 9.08011C5.81656 9.07168 5.81656 9.06347 5.81619 9.05523H15.9589C16.1062 9.05523 16.2625 9.03505 16.2625 8.99773V8.49282C16.2625 8.45575 16.106 8.43565 15.9589 8.43565Z" fill="white"/>
<path d="M14.1254 10.1026H10.1646C10.0441 10.044 9.91177 10.0135 9.7777 10.0134H4.89492C4.4551 10.0134 4.09729 10.3285 4.09729 10.7158C4.09729 11.1031 4.4551 11.4186 4.89492 11.4186H9.77748C10.2145 11.4186 10.5713 11.1065 10.5751 10.7222H14.1254C14.2181 10.7222 14.3168 10.702 14.3168 10.6647V10.1601C14.3167 10.1228 14.2181 10.1026 14.1254 10.1026Z" fill="white"/>
<path d="M17.2821 6.64034H4.56038C4.47695 6.57962 4.37643 6.5469 4.27325 6.54688H0.950678C0.650554 6.54688 0.406494 6.82237 0.406494 7.16104C0.406494 7.49971 0.650554 7.7758 0.950678 7.7758H4.27321C4.53678 7.7758 4.76692 7.55419 4.80988 7.25977H17.2821C17.4375 7.25977 17.6026 7.2396 17.6026 7.20227V6.6978C17.6025 6.66048 17.4373 6.64034 17.2821 6.64034Z" fill="white"/>
<path d="M2.32187 2.14918H5.64443C5.77505 2.1482 5.90104 2.10064 5.99972 2.01506C6.0984 1.92947 6.16329 1.81147 6.18273 1.6823H15.7637C15.8824 1.6823 16.0085 1.6622 16.0085 1.62502V1.12023C16.0085 1.08286 15.8824 1.06276 15.7637 1.06276H5.65783C5.65614 1.06276 5.65452 1.06276 5.65294 1.06276C5.64995 1.06276 5.64712 1.06276 5.6441 1.06276H2.32187C2.25016 1.06217 2.17904 1.07579 2.11261 1.10282C2.04619 1.12985 1.98578 1.16977 1.93486 1.22027C1.88394 1.27077 1.84353 1.33086 1.81595 1.39705C1.78837 1.46325 1.77417 1.53426 1.77417 1.60597C1.77417 1.67768 1.78837 1.74869 1.81595 1.81489C1.84353 1.88108 1.88394 1.94117 1.93486 1.99167C1.98578 2.04217 2.04619 2.08209 2.11261 2.10912C2.17904 2.13616 2.25016 2.14977 2.32187 2.14918Z" fill="white"/>
<path d="M5.60475 0.362797H12.4158C12.8076 0.362797 13.1263 0.0572612 13.1263 -0.318584C13.1263 -0.694429 12.8076 -1 12.4158 -1H5.60475C5.21307 -1 4.89429 -0.694465 4.89429 -0.318584C4.89429 0.0572981 5.21307 0.362797 5.60475 0.362797Z" fill="white"/>
<path d="M3.8669 5.89706C4.1566 5.89706 4.39963 5.63157 4.41049 5.3044H17.1784C17.3219 5.3044 17.4747 5.2843 17.4747 5.24708V4.74214C17.4747 4.70493 17.322 4.68487 17.1784 4.68487H4.06641C4.04433 4.68487 4.02091 4.68487 3.9978 4.68612C3.95516 4.67405 3.91106 4.66794 3.86675 4.66797H0.544405C0.244207 4.66797 0 4.94354 0 5.2822C0 5.62086 0.244207 5.89695 0.544405 5.89695L3.8669 5.89706Z" fill="white"/>
<path d="M1.05234 3.91641H4.37483C4.64724 3.91641 4.87856 3.6866 4.91401 3.3811H16.6188C16.7554 3.3811 16.9006 3.36097 16.9006 3.32364V2.81906C16.9006 2.78163 16.7554 2.76142 16.6188 2.76142H4.63362C4.55598 2.71309 4.46635 2.68748 4.3749 2.6875H1.05234C0.752142 2.6875 0.507935 2.96296 0.507935 3.30159C0.507935 3.64022 0.752142 3.91641 1.05234 3.91641Z" fill="white"/>
<path d="M23.1825 -0.0175781L19.4775 10.4479H21.0121L22.0864 7.35653H25.7086L26.8463 10.4479H30.0581L26.1053 -0.0175781H23.1825ZM22.5546 6.02613L23.8215 2.27504L25.2154 6.02613H22.5546Z" fill="white"/>
<path d="M79.2741 5.7832H76.3292V8.70316C76.061 8.89938 75.7649 9.05428 75.4508 9.16271C75.138 9.26582 74.8105 9.31724 74.4811 9.31496C73.5611 9.31496 72.8137 8.93738 72.239 8.1822C71.6631 7.42879 71.3749 6.44646 71.3741 5.23519C71.3741 3.90455 71.6294 2.87506 72.1398 2.14671C72.6521 1.4174 73.3737 1.05311 74.3048 1.05385C74.9109 1.05385 75.4536 1.22233 75.9247 1.56159C76.3983 1.90106 76.7996 2.4105 77.1284 3.08989L78.5002 2.11214C77.9631 1.30798 77.3268 0.713956 76.5913 0.330062C75.8557 -0.0520413 74.9935 -0.243523 74.0048 -0.244382C73.2705 -0.250672 72.5401 -0.136949 71.8424 0.0922959C71.1883 0.309712 70.5802 0.64673 70.0491 1.08621C69.4527 1.59076 68.9729 2.21875 68.6428 2.92682C68.3128 3.63489 68.1403 4.40616 68.1375 5.18737C68.1375 6.09578 68.3046 6.90537 68.639 7.61615C68.9722 8.32411 69.4771 8.94757 70.1539 9.48654C70.6674 9.89113 71.2498 10.1997 71.873 10.3975C72.5147 10.6033 73.2144 10.7066 73.9721 10.7075C74.94 10.7114 75.901 10.5459 76.8119 10.2186C77.7107 9.89608 78.5447 9.41563 79.2746 8.79986H79.2742L79.2741 5.7832Z" fill="white"/>
<path d="M83.3567 -0.0175781L79.652 10.4479H81.1863L82.2606 7.35653H85.8828L87.0205 10.4479H90.2324L86.2796 -0.0175781H83.3567ZM82.7289 6.02613L83.9961 2.27504L85.3898 6.02613H82.7289Z" fill="white"/>
<path d="M98.3776 -0.0175781V5.33691L94.8021 -0.0175781H91.4857V10.4479H93.0832V2.80126L98.2397 10.4481H100V-0.0175781H98.3776Z" fill="white"/>
<path d="M66.2314 4.96251C66.6527 4.50296 66.8621 3.90716 66.8621 3.18301C66.8621 2.19182 66.4756 1.41078 65.7026 0.839885C64.9314 0.268081 63.8673 -0.0178223 62.51 -0.0178223H57.808V10.4477H60.7443V1.2807H61.51C62.306 1.2807 62.8927 1.44099 63.2701 1.76157C63.6476 2.08215 63.8357 2.57638 63.8347 3.24426C63.8347 3.87499 63.653 4.3478 63.2895 4.65782C62.9259 4.96785 62.372 5.12271 61.6229 5.12271H60.9452L63.5761 10.4478H66.9587L64.3501 5.94574C65.1847 5.75342 65.8119 5.42567 66.2314 4.96251Z" fill="white"/>
<path d="M34.3386 -0.0175781H31.3114V10.4479H38.2528V9.03988H34.3386V-0.0175781Z" fill="white"/>
<path d="M42.9826 -0.0175781H39.9554V10.4479H46.8971V9.03988H42.9826V-0.0175781Z" fill="white"/>
<path d="M51.6264 5.84424H55.1579V4.43624H51.6264V1.39046H55.3535V-0.0175781H48.5991V10.4479H55.5545V9.03988H51.6264V5.84424Z" fill="white"/>
</g>
<defs>
<clipPath id="clip0">
<rect width="100" height="12.4186" fill="white"/>
</clipPath>
</defs>
</svg>
