<svg width="100" height="16" viewBox="0 0 100 16" fill="none" xmlns="http://www.w3.org/2000/svg">
<g clip-path="url(#clip0)">
<path fill-rule="evenodd" clip-rule="evenodd" d="M24.3652 1.88184H19.874V11.713H21.9281V8.1666H24.2832C26.926 8.1666 27.4188 5.92102 27.4188 5.03101C27.4188 3.10064 26.2688 1.88191 24.3652 1.88191L24.3652 1.88184ZM23.8311 6.45973H21.9281V3.57119H23.5577C24.8309 3.57119 25.3653 3.9678 25.3653 4.92677C25.3653 5.36472 25.3653 6.45987 23.8312 6.45987L23.8311 6.45973Z" fill="white"/>
<path fill-rule="evenodd" clip-rule="evenodd" d="M28.1837 11.7192H30.1009V4.43481H28.1837V11.7192Z" fill="white"/>
<path fill-rule="evenodd" clip-rule="evenodd" d="M28.1837 3.5454H30.1009V1.76489H28.1837V3.5454Z" fill="white"/>
<path fill-rule="evenodd" clip-rule="evenodd" d="M33.749 2.4585H31.8322V4.43007H30.8462V5.79923H31.8322V10.222C31.8322 11.1669 32.1335 11.7968 33.7903 11.7968H34.0367C34.3378 11.7968 34.6396 11.7833 34.9407 11.7692V10.3181C34.8035 10.3316 34.6667 10.3452 34.5435 10.3452C33.7631 10.3452 33.749 10.1808 33.749 9.75643V5.79923H34.9407V4.43007H33.749V2.4585Z" fill="white"/>
<path fill-rule="evenodd" clip-rule="evenodd" d="M40.0902 4.24268C38.7074 4.24268 38.1594 5.06431 37.8994 5.50268H37.8723V4.43427H36.037V11.7186H37.9543V7.5427C37.9543 6.43361 38.6115 5.85875 39.4607 5.85875C40.679 5.85875 40.7067 6.7623 40.7067 7.29635V11.7187H42.6234V6.67986C42.6234 5.0779 41.5143 4.24268 40.0902 4.24268Z" fill="white"/>
<path fill-rule="evenodd" clip-rule="evenodd" d="M50.1737 8.25539C50.1737 4.92813 48.1881 4.24341 46.7506 4.24341C43.5603 4.24341 43.259 7.05014 43.259 7.92656C43.259 10.9253 44.8333 11.9108 46.8873 11.9108C48.1333 11.9108 49.5849 11.3362 50.0913 9.58335H48.1197C47.9688 10.1037 47.4213 10.3778 46.8873 10.3778C45.3407 10.3778 45.2307 9.14642 45.1758 8.59833L50.1736 8.5978V8.25539H50.1737ZM45.2306 7.34401C45.3402 6.3856 45.8194 5.81024 46.7229 5.81024C47.3393 5.81024 48.0926 6.16624 48.2022 7.34401H45.2306Z" fill="white"/>
<path fill-rule="evenodd" clip-rule="evenodd" d="M53.7978 9.60782H53.7707L52.3102 4.44165H50.1742L52.757 11.8257C52.5795 12.8253 52.0951 12.8206 51.3967 12.8206C51.273 12.8216 51.1494 12.8125 51.0272 12.7935V14.3265C51.3007 14.3406 51.6295 14.3543 51.89 14.3543C53.5604 14.3543 53.9576 14.1491 54.8617 11.452L57.4178 4.44165H55.3909L53.7978 9.60782Z" fill="white"/>
<path fill-rule="evenodd" clip-rule="evenodd" d="M65.6671 6.41421C66.0784 6.20858 66.8724 5.81134 66.8724 4.40146C66.8724 3.38774 66.2559 1.88184 63.8463 1.88184H59.0675V11.7129H63.2299C65.2432 11.7129 65.7767 11.3705 66.3384 10.8229C66.6067 10.5579 66.8198 10.2424 66.9655 9.89464C67.1111 9.54685 67.1865 9.17364 67.1871 8.79657C67.1871 7.82412 66.8724 6.86578 65.6671 6.41421ZM61.0381 3.56891H63.3938C64.3245 3.56891 64.8998 3.8153 64.8998 4.62328C64.8998 5.40364 64.2561 5.71833 63.4486 5.71833H61.0381V3.56891ZM63.5581 10.0249H61.039V7.39561H63.6541C64.3938 7.39561 65.133 7.72444 65.133 8.58672C65.133 9.58634 64.5583 10.0249 63.5581 10.0249Z" fill="white"/>
<path fill-rule="evenodd" clip-rule="evenodd" d="M71.4387 4.24341C69.4808 4.24341 67.7144 5.4481 67.7144 8.07737C67.7144 10.7066 69.4808 11.9108 71.4387 11.9108C73.3967 11.9108 75.1631 10.7061 75.1631 8.07737C75.1631 5.44863 73.3967 4.24341 71.4387 4.24341ZM71.4387 10.2953C69.9599 10.2953 69.6859 9.00862 69.6859 8.07737C69.6859 7.14613 69.9599 5.85948 71.4387 5.85948C72.9176 5.85948 73.1916 7.14616 73.1916 8.07737C73.1916 9.00859 72.9175 10.2953 71.4387 10.2953Z" fill="white"/>
<path fill-rule="evenodd" clip-rule="evenodd" d="M82.4242 9.66571H82.3965L81.3015 4.43481H79.3706L78.3439 9.66571H78.3162L77.1797 4.43485H75.1398L77.1933 11.7192H79.1653L80.3017 6.40688H80.3288L81.4653 11.7192H83.4373L85.5327 4.43485H83.5604L82.4241 9.66574L82.4242 9.66571Z" fill="white"/>
<path fill-rule="evenodd" clip-rule="evenodd" d="M92.6254 8.25539C92.6254 4.92813 90.6398 4.24341 89.2022 4.24341C86.0113 4.24341 85.71 7.05014 85.71 7.92656C85.71 10.9253 87.2848 11.9108 89.3388 11.9108C90.5848 11.9108 92.0365 11.3362 92.5428 9.58335H90.5712C90.4203 10.1037 89.8728 10.3778 89.3388 10.3778C87.7922 10.3778 87.682 9.14642 87.6272 8.59833L92.6252 8.5978V8.25539H92.6254ZM87.6822 7.34401C87.7918 6.3856 88.2709 5.81024 89.1745 5.81024C89.791 5.81024 90.5437 6.16624 90.6533 7.34401H87.6822Z" fill="white"/>
<path fill-rule="evenodd" clip-rule="evenodd" d="M95.4404 6.40697C95.4404 6.09172 95.5773 5.69501 96.618 5.69501C97.6586 5.69501 97.8233 6.18775 97.9052 6.65343H99.7807C99.6304 4.59937 97.9324 4.24341 96.5083 4.24341C94.2356 4.24341 93.5644 5.61257 93.5644 6.68056C93.5644 9.40533 98.0832 8.48809 98.0832 9.70654C98.0832 9.98051 97.8504 10.4598 96.8643 10.4598C95.6596 10.4598 95.276 10.0077 95.276 9.39175H93.3044C93.3592 11.3362 95.1528 11.9108 96.8095 11.9108C97.9465 11.9108 99.9999 11.5277 99.9999 9.40533C99.9999 6.72176 95.4404 7.55702 95.4404 6.40697H95.4404Z" fill="white"/>
<path fill-rule="evenodd" clip-rule="evenodd" d="M0 11.6913H3.77546V14.7622H4.53027V10.1812H0V11.6913V11.6913Z" fill="white"/>
<path fill-rule="evenodd" clip-rule="evenodd" d="M0.00463867 9.67243H5.64263V14.7566H6.39793V8.16235H0.00463867V9.67243Z" fill="white"/>
<path fill-rule="evenodd" clip-rule="evenodd" d="M11.2822 14.7622H12.0375V11.6913H15.8131V10.1812H11.2822V14.7622Z" fill="white"/>
<path fill-rule="evenodd" clip-rule="evenodd" d="M9.41504 14.7566H10.1698V9.67243H15.8083V8.16235H9.41504V14.7566Z" fill="white"/>
<path fill-rule="evenodd" clip-rule="evenodd" d="M4.53027 -1H3.77549V2.07105H0V3.58113H4.53027V-1Z" fill="white"/>
<path fill-rule="evenodd" clip-rule="evenodd" d="M6.39789 -0.995361H5.64259V4.08942H0.00463867V5.59957H6.39789V-0.995292V-0.995361Z" fill="white"/>
<path fill-rule="evenodd" clip-rule="evenodd" d="M12.0375 -1.0001H11.2822V3.58092H15.8131V2.0708H12.0375V-1.00024V-1.0001Z" fill="white"/>
<path fill-rule="evenodd" clip-rule="evenodd" d="M10.1698 -0.995361H9.41504V5.5995H15.8083V4.08942H10.1698V-0.995361Z" fill="white"/>
<path fill-rule="evenodd" clip-rule="evenodd" d="M8.28391 -0.971924H7.52861V6.1255H0.0281982V7.63561H7.52858V14.7336H8.28388V7.63561H15.7849V6.1255H8.28391V-0.971924Z" fill="white"/>
</g>
<defs>
<clipPath id="clip0">
<rect width="100" height="15.762" fill="white"/>
</clipPath>
</defs>
</svg>
