<svg width="91" height="28" viewBox="0 0 91 28" fill="none" xmlns="http://www.w3.org/2000/svg">
<path fill-rule="evenodd" clip-rule="evenodd" d="M30.1298 27.1923V2.25879H0.100159V27.1923H14.9629V27.202L15.601 27.2014L15.8875 27.1995L16.2241 27.1955L16.4155 27.1922L30.1298 27.1923ZM8.47779 26.5982L8.7646 26.5982V26.603L8.47779 26.6029V26.5982ZM15.8797 15.9379V26.3133L16.5315 26.3133C16.6651 26.3105 16.8016 26.3083 16.9377 26.3068L17.141 26.3048L17.5435 26.3028C20.3476 26.2717 22.9865 25.2763 25.0708 23.522L15.8797 15.9379ZM0.997217 26.3133V13.5524C2.31217 16.0132 4.92682 17.651 7.87738 17.6952V26.3133H0.997217ZM25.7833 24.1085C24.6792 25.0507 23.4366 25.7939 22.1022 26.3133H28.461L25.7833 24.1085ZM8.7646 17.6542C10.9769 17.4424 12.9713 16.3303 14.2896 14.6143L14.9531 15.1621V26.3036H8.7646V17.6542ZM29.2327 19.3396L29.1716 19.4869C28.5714 20.9074 27.6969 22.2174 26.5805 23.3568L26.4641 23.4741L26.4348 23.5025L29.2327 25.8109V19.3396ZM15.8995 3.14747H17.4669C20.6218 3.16634 23.5787 4.37483 25.8026 6.5582C28.0216 8.73679 29.2454 11.6264 29.2524 14.6989C29.2466 14.733 29.2422 14.768 29.2392 14.8048L29.2355 14.8612L29.2344 14.888L29.2331 14.9429L29.2323 15.1113L29.224 15.2715C29.2232 15.2933 29.2228 15.3122 29.2228 15.3342V15.3631C29.0706 18.1842 27.8545 20.8307 25.848 22.8329L25.7533 22.9263L15.8995 14.7913V3.14747ZM2.93775 5.25176L2.86574 5.32613C1.67579 6.57366 0.995965 8.21866 0.987336 9.9726C0.987336 13.7077 4.06382 16.752 7.86751 16.8161V9.31766L2.93775 5.25176ZM8.7646 16.7709V10.0551L13.6021 14.0507C12.4466 15.5668 10.6997 16.5607 8.7646 16.7709ZM14.9629 13.5987L14.9085 13.6967C14.8717 13.7618 14.834 13.8263 14.7954 13.8902L14.9629 14.0276V13.5987ZM3.6142 4.64993C4.85209 3.67941 6.38621 3.13781 7.99981 3.13781C11.6212 3.13781 14.6422 5.8513 14.9629 9.34808V10.6061C14.8692 11.5773 14.5763 12.4909 14.1006 13.3119L3.6142 4.64993ZM29.2426 3.13781H22.0949L22.2454 3.19721C23.7959 3.82078 25.2123 4.74645 26.4252 5.93899L26.5397 6.05301C27.7144 7.23758 28.6276 8.62148 29.2426 10.132V3.13781ZM0.997217 6.41571V3.63935L2.26105 4.68007C1.76055 5.20022 1.3352 5.7845 0.997217 6.41571ZM14.9629 3.13781H11.6548C13.057 3.8564 14.2155 4.97938 14.9629 6.34556V3.13781ZM1.77415 3.13781H4.34596C3.88092 3.37573 3.44019 3.65806 3.03048 3.9807L2.90851 4.07869L1.77415 3.13781Z" fill="white"/>
<path fill-rule="evenodd" clip-rule="evenodd" d="M14.3403 13.8908L15.3556 14.5245V13.3169L14.3403 13.8908Z" fill="white"/>
<path fill-rule="evenodd" clip-rule="evenodd" d="M88.9754 19.7077C88.9754 20.3584 89.0658 20.8323 89.2465 21.1294C89.4272 21.4265 89.7408 21.575 90.1887 21.575V22.0206C89.7408 21.9782 89.2936 21.9569 88.8457 21.9569C87.3439 21.9569 86.0879 22.0559 85.0766 22.254V20.7475C84.7733 21.2991 84.4164 21.7023 84.0046 21.9569C83.5929 22.2116 83.0694 22.3389 82.4344 22.3389C81.1055 22.3389 80.0374 21.8544 79.2287 20.8854C78.4201 19.9164 78.0154 18.4416 78.0154 16.4611C78.0154 14.5796 78.4452 13.1544 79.3042 12.1854C80.1633 11.2164 81.3366 10.7318 82.8242 10.7318C83.7484 10.7318 84.499 10.9087 85.0766 11.2624V7.99459C85.0766 7.34385 84.9869 6.86995 84.8062 6.57289C84.6255 6.2758 84.3118 6.12727 83.8639 6.12727V5.68166C84.3118 5.7241 84.7591 5.74532 85.207 5.74532C86.7088 5.74532 87.9647 5.64629 88.9754 5.44824V19.7077ZM54.2899 21.193C53.8568 21.6174 53.3802 21.9145 52.8603 22.0843C52.3405 22.254 51.7341 22.3389 51.0409 22.3389C50.0445 22.3389 49.272 22.1656 48.7233 21.819C48.1746 21.4725 47.8352 20.8819 47.7052 20.0472L47.3803 17.9252C47.2359 16.935 47.0374 16.1853 46.7847 15.676C46.532 15.1667 46.1529 14.9121 45.6475 14.9121H44.6728V19.7926C44.6728 20.3301 44.7125 20.7191 44.7919 20.9596C44.8714 21.2001 45.0121 21.3628 45.2143 21.4477C45.4165 21.5325 45.7486 21.5892 46.2107 21.6174V22.0418L45.7612 22.0223C45.121 21.9988 44.3172 21.9847 43.3497 21.98L41.5338 21.9811C40.3166 21.9882 39.3846 22.0085 38.7379 22.0418V21.6174C39.1999 21.5892 39.5357 21.5325 39.7451 21.4477C39.9545 21.3628 40.0952 21.2001 40.1675 20.9596C40.2306 20.7492 40.2662 20.4251 40.2741 19.9872L40.2758 9.26777C40.2758 8.73017 40.2361 8.34116 40.1566 8.10068C40.0772 7.86019 39.9364 7.69748 39.7343 7.61265C39.5321 7.52776 39.1999 7.47119 38.7379 7.44287V7.01848L39.3747 7.04444C40.1564 7.06958 41.1861 7.08211 42.4634 7.08211L44.9544 7.06092C45.2432 7.04679 45.5753 7.03973 45.9507 7.03973C48.1456 7.03973 49.781 7.34385 50.8568 7.95215C51.9326 8.56045 52.4705 9.48699 52.4705 10.7318C52.4705 11.7929 52.0662 12.6982 51.2575 13.448C50.4488 14.1977 49.0915 14.6575 47.1854 14.8272C48.6583 14.9263 49.7702 15.1986 50.5211 15.6442C51.272 16.0898 51.734 16.744 51.9073 17.607L52.3622 19.8138C52.4633 20.3372 52.586 20.6979 52.7304 20.896C52.8748 21.094 53.077 21.193 53.3369 21.193C53.5968 21.193 53.8206 21.1011 54.0084 20.9172L54.2899 21.193ZM45.8424 7.44287C45.5103 7.44287 45.2613 7.49238 45.0952 7.59139C44.9291 7.69041 44.8172 7.86726 44.7595 8.12187C44.7099 8.34014 44.6816 8.65196 44.6745 9.05726L44.6728 14.4877H45.2576C46.2829 14.4877 46.9832 14.1801 47.3586 13.5647C47.7341 12.9493 47.9218 12.0829 47.9218 10.9653C47.9218 9.8053 47.7594 8.9282 47.4345 8.3341C47.1096 7.73992 46.5789 7.44287 45.8424 7.44287ZM74.498 11.5806C74.0217 11.0148 73.2059 10.7318 72.0507 10.7318C70.4043 10.7318 69.2562 11.2624 68.6063 12.3233V10.7955C67.5956 10.9936 66.3396 11.0926 64.8378 11.0926C64.4044 11.0926 63.9567 11.0714 63.4946 11.029V11.4746C63.9423 11.4746 64.2563 11.6231 64.4368 11.9202C64.6171 12.2173 64.7075 12.6912 64.7075 13.3419V20.0684C64.7075 20.6484 64.6171 21.0481 64.4368 21.2673C64.2563 21.4866 63.9423 21.5962 63.4946 21.5962V22.0418C64.8559 21.9959 65.8259 21.9686 66.4048 21.9599L66.9547 21.9585C67.1922 21.9614 67.5078 21.969 67.9021 21.9811L69.6027 22.0418V21.5962C69.2271 21.5962 68.9677 21.4866 68.8231 21.2673C68.6785 21.0481 68.6063 20.6484 68.6063 20.0684V13.3631C68.6063 12.9246 68.7618 12.5603 69.0722 12.2703C69.3827 11.9803 69.7473 11.8353 70.1662 11.8353C70.5411 11.8353 70.8122 11.945 70.9781 12.1642C71.1446 12.3835 71.2272 12.7194 71.2272 13.1721V20.0684C71.2272 20.6484 71.1549 21.0481 71.011 21.2673C70.8664 21.4866 70.6063 21.5962 70.2307 21.5962V22.0418C71.3743 22.0003 72.2308 21.974 72.8 21.963L73.4067 21.9573C73.6564 21.9591 74.0256 21.967 74.5142 21.9811L76.3393 22.0418V21.5962C75.8914 21.5962 75.5778 21.4866 75.397 21.2673C75.2163 21.0481 75.126 20.6484 75.126 20.0684V14.318C75.126 13.6106 75.0756 13.0413 74.9743 12.6098C74.8736 12.1783 74.7149 11.8353 74.498 11.5806ZM82.4557 20.1851C82.7158 20.8854 83.0695 21.2355 83.5174 21.2355C83.9362 21.2355 84.3008 21.0905 84.6113 20.8005C84.9217 20.5105 85.0766 20.1462 85.0766 19.7077V11.708C84.7591 11.5241 84.4196 11.4321 84.0588 11.4321C83.3799 11.4321 82.8784 11.853 82.5531 12.6947C82.2285 13.5364 82.0659 14.813 82.0659 16.5248C82.0659 18.2648 82.1962 19.4849 82.4557 20.1851Z" fill="white"/>
<path d="M61.6532 24.1633H62.7616L53.8602 4.71265H52.8522L61.6532 24.1633Z" fill="white"/>
</svg>
