<svg width="100" height="23" viewBox="0 0 100 23" fill="none" xmlns="http://www.w3.org/2000/svg">
<g clip-path="url(#clip0)">
<path fill-rule="evenodd" clip-rule="evenodd" d="M28.8761 11.3197C28.8666 7.49721 31.715 4.5613 35.4435 4.55033C39.2559 4.53919 42.1478 7.42049 42.1597 11.2418C42.1716 15.1042 39.3249 18.0351 35.5575 18.0391C31.7501 18.0433 28.8856 15.1625 28.8761 11.3197ZM30.5922 11.2593C30.5837 14.959 33.7674 17.3476 37.1815 16.2025C39.7116 15.3542 41.0773 12.3848 40.2233 9.58853C39.5165 7.27373 37.2298 5.80385 34.8658 6.14473C32.2871 6.51671 30.5986 8.53746 30.5922 11.2593Z" fill="white"/>
<path fill-rule="evenodd" clip-rule="evenodd" d="M71.8969 17.7576H70.2204V16.9754C70.2204 15.4052 70.2337 13.8348 70.2156 12.2647C70.2016 11.0526 69.8247 10.4893 68.9359 10.2512C67.9263 9.98094 66.9528 10.3484 66.4558 11.333C66.1916 11.8563 66.0469 12.4871 66.0245 13.0759C65.9661 14.6173 66.0048 16.1621 66.0048 17.7408H64.3676V8.90299H65.9206V10.1116C66.7813 9.17319 67.6749 8.57818 68.8545 8.61167C70.0341 8.64515 70.9328 9.17072 71.5454 10.2565C72.2996 9.23416 73.2328 8.62268 74.4877 8.60964C76.3989 8.58968 77.6699 9.69115 77.741 11.599C77.8165 13.6229 77.7579 15.652 77.7579 17.7277H76.1127V17.0542C76.1127 15.5275 76.1222 14.0009 76.1099 12.4744C76.0978 10.959 75.6342 10.3094 74.5162 10.1889C73.3044 10.0584 72.2699 10.8566 71.997 12.1599C71.9308 12.5016 71.8987 12.8491 71.9013 13.1972C71.891 14.6981 71.8969 16.1989 71.8969 17.7576Z" fill="white"/>
<path fill-rule="evenodd" clip-rule="evenodd" d="M43.8452 8.89176H45.3861V10.1508C46.1931 9.17515 47.0851 8.68719 48.1707 8.61646C49.9297 8.50148 51.1971 9.33709 52.0349 10.8039C52.9267 12.3651 52.9686 14.0244 52.1576 15.627C50.6753 18.5562 47.2772 18.7658 45.4671 16.6037V21.6633H43.8452V8.89176ZM51.0347 13.356C51.0418 11.8839 50.2579 10.6875 49.0379 10.3083C47.5335 9.84068 46.0277 10.6596 45.5522 12.2037C45.0048 13.9823 45.7958 15.8348 47.3136 16.3285C49.2343 16.9529 51.0242 15.5231 51.0347 13.356Z" fill="white"/>
<path fill-rule="evenodd" clip-rule="evenodd" d="M99.9877 13.5862H93.1079C93.0925 14.8502 93.8321 15.927 94.9378 16.3097C96.2511 16.7643 97.2903 16.3605 98.4447 14.9196C98.8981 15.1385 99.3624 15.363 99.8252 15.5865C99.2172 17.1966 97.2095 18.261 95.2605 18.0241C93.2501 17.7796 91.7136 16.2371 91.407 14.1557C91.0773 11.9164 92.0815 9.81489 93.8968 8.99641C96.4303 7.85425 100.226 9.06231 99.9877 13.5862ZM93.2619 12.2446H98.1848C98.1495 11.112 97.2785 10.2853 96.0504 10.1871C94.5989 10.0712 93.5045 10.8712 93.2619 12.2448V12.2446Z" fill="white"/>
<path fill-rule="evenodd" clip-rule="evenodd" d="M83.3241 17.7293C83.2299 16.8928 83.2764 16.1912 83.9186 15.5093C85.307 14.0351 86.588 12.4596 87.9117 10.9246C88.0187 10.8004 88.1163 10.6681 88.2848 10.4558H83.4639V8.90674H90.3104C90.3783 9.67384 90.4637 10.3637 89.8259 11.0506C88.3175 12.6751 86.9098 14.393 85.3653 16.1844H90.4278V17.7293H83.3241Z" fill="white"/>
<path fill-rule="evenodd" clip-rule="evenodd" d="M56.4917 8.87782H58.655V10.4464H56.566C56.566 12.1355 56.5144 13.785 56.5888 15.4287C56.6236 16.1967 57.2774 16.443 58.3782 16.2281C58.5413 16.6788 58.7077 17.1394 58.8729 17.596C57.3172 18.3769 54.7893 17.8202 54.8389 15.252C54.8694 13.6831 54.8445 12.1133 54.8445 10.4632H53.323V8.88899H54.8297V6.16895H56.4919L56.4917 8.87782Z" fill="white"/>
<path fill-rule="evenodd" clip-rule="evenodd" d="M62.1189 17.759H60.5342V8.91309H62.1189V17.759Z" fill="white"/>
<path fill-rule="evenodd" clip-rule="evenodd" d="M79.929 8.88989H81.513V17.7358H79.929V8.88989Z" fill="white"/>
<path fill-rule="evenodd" clip-rule="evenodd" d="M61.3098 7.03964C61.0033 7.03204 60.7115 6.90713 60.4944 6.69067C60.2774 6.47421 60.1516 6.18271 60.1432 5.87628C60.1332 5.22173 60.6842 4.67304 61.3427 4.68174C61.6493 4.68913 61.9413 4.81392 62.1586 5.03034C62.3758 5.24677 62.5017 5.53833 62.5102 5.84486C62.5207 6.49662 61.9658 7.04916 61.3098 7.03964Z" fill="white"/>
<path fill-rule="evenodd" clip-rule="evenodd" d="M80.7211 4.6814C81.3754 4.67974 81.9342 5.24313 81.9169 5.88687C81.9002 6.51058 81.3623 7.03486 80.734 7.04012C80.4225 7.03988 80.1237 6.9164 79.9029 6.69663C79.6821 6.47687 79.5573 6.17868 79.5556 5.86716C79.5539 5.55564 79.6755 5.2561 79.8939 5.03394C80.1122 4.81178 80.4096 4.68504 80.7211 4.6814Z" fill="white"/>
<path d="M14.2445 11.104C14.2258 10.2921 13.8877 9.52033 13.3035 8.95618C12.7194 8.39203 11.9364 8.08098 11.1243 8.09055H3.07898V14.1168H8.28982V19.1847C8.26826 19.5725 8.32328 19.9606 8.45174 20.3271C8.5802 20.6936 8.77959 21.0312 9.03852 21.3206C9.29744 21.61 9.61084 21.8456 9.96081 22.0138C10.3108 22.1821 10.6905 22.2798 11.0782 22.3014C11.1135 22.3032 11.1496 22.3054 11.1849 22.3054C11.5907 22.3014 11.9917 22.2175 12.365 22.0584C12.7383 21.8994 13.0766 21.6684 13.3606 21.3786C13.6446 21.0888 13.8688 20.7459 14.0203 20.3695C14.1717 19.993 14.2476 19.5905 14.2435 19.1847L14.2444 11.104H14.2445Z" fill="white"/>
<path d="M3.04417 8.09595C3.64625 8.09594 4.23481 8.27447 4.73542 8.60895C5.23604 8.94344 5.62623 9.41886 5.85665 9.9751C6.08708 10.5313 6.14738 11.1434 6.02994 11.7339C5.91251 12.3244 5.6226 12.8669 5.19689 13.2926C4.77117 13.7184 4.22877 14.0083 3.63827 14.1258C3.04776 14.2433 2.43568 14.1831 1.87942 13.9527C1.32315 13.7223 0.847695 13.3322 0.513162 12.8316C0.17863 12.331 4.80421e-05 11.7425 0 11.1404C-3.49795e-09 10.333 0.320714 9.55868 0.891598 8.98774C1.46248 8.41681 2.23678 8.09602 3.04417 8.09595Z" fill="white"/>
<path d="M21.6721 3.02903C21.6642 2.22297 21.3385 1.4526 20.7657 0.885399C20.193 0.318194 19.4195 4.22182e-06 18.6134 0H10.3846C9.63008 0.0758598 8.93059 0.429284 8.42187 0.991712C7.91315 1.55414 7.63147 2.28548 7.63147 3.04384C7.63147 3.80221 7.91315 4.53354 8.42187 5.09597C8.93059 5.6584 9.63008 6.01183 10.3846 6.08769H15.6561V11.1503C15.6394 11.546 15.7008 11.9411 15.8369 12.3131C15.9731 12.685 16.1812 13.0265 16.4494 13.3179C16.7176 13.6094 17.0406 13.8451 17.4 14.0116C17.7594 14.1781 18.148 14.2721 18.5438 14.2882C18.9395 14.3044 19.3346 14.2424 19.7063 14.1057C20.0781 13.9691 20.4192 13.7605 20.7103 13.4919C21.0013 13.2232 21.2366 12.8999 21.4026 12.5403C21.5686 12.1807 21.662 11.7918 21.6776 11.3961C21.6813 11.3151 21.6813 11.2324 21.6776 11.1511L21.6721 3.02903Z" fill="white"/>
</g>
<defs>
<clipPath id="clip0">
<rect width="100" height="22.3052" fill="white"/>
</clipPath>
</defs>
</svg>
