<svg width="126" height="22" viewBox="0 0 126 22" fill="none" xmlns="http://www.w3.org/2000/svg">
<path d="M72.6572 12.7935C72.6782 12.7515 72.7412 12.7095 72.7622 12.6675L72.6572 12.7935Z" fill="white"/>
<path d="M57.5983 9.45519C57.786 9.83065 57.8903 10.2895 57.8695 10.7484C57.8486 11.2282 57.7443 11.6871 57.5566 12.0626C57.0768 13.1472 56.0547 13.8147 54.8032 13.8147C52.613 13.8147 51.7578 11.9374 51.737 10.7484C51.737 8.97544 53.0302 7.64047 54.7615 7.64047C56.0756 7.64047 57.1394 8.30795 57.5983 9.45519ZM57.8486 7.57789C57.348 6.76439 56.2633 5.90918 54.5738 5.90918C51.9247 5.90918 49.9014 7.97421 49.9014 10.7276C49.9014 13.1264 51.5075 15.546 54.5738 15.546C55.9922 15.546 57.2228 14.9411 57.8486 13.8981V15.2957H59.6842V6.15949H57.8486V7.57789Z" fill="white"/>
<path d="M71.1117 5.90918C70.173 5.90918 69.3178 6.24292 68.692 6.86869C68.4 7.16072 68.2331 7.45274 68.0871 7.68219L68.0663 7.66133C67.9411 7.45274 67.7325 7.09814 67.5656 6.91041C66.8356 6.09691 65.8761 5.93004 65.1877 5.93004C63.9362 5.93004 62.9767 6.59752 62.5178 7.28587V6.15949H60.7865V15.2748H62.6221V10.2895C62.6221 9.53863 62.789 8.93373 63.1018 8.49569C63.4147 7.97422 64.0196 7.64047 64.7497 7.64047C65.5006 7.66133 66.0429 7.93249 66.3975 8.51654C66.6687 8.95458 66.773 9.4552 66.7521 10.2478V15.2748H68.6086V10.2478C68.6086 9.4552 68.6712 8.9963 69.0049 8.47483C69.3178 7.95336 69.9436 7.64047 70.6945 7.64047C71.4245 7.64047 71.9043 7.86992 72.2589 8.37053C72.5926 8.78771 72.7387 9.41348 72.7387 10.3313V15.2748H74.5742V10.2478C74.5742 8.43311 74.3239 7.59875 73.573 6.80612C72.7804 6.01348 71.6957 5.90918 71.1117 5.90918Z" fill="white"/>
<path d="M80.2086 7.49446H80.2711C81.8356 7.49446 82.9828 8.70427 83.108 9.87237H77.3092C77.4135 8.68341 78.519 7.49446 80.2086 7.49446ZM80.2086 5.90918C77.5178 5.90918 75.411 8.03679 75.411 10.7484C75.411 13.1055 77.2049 15.5669 80.2294 15.5669C81.1889 15.5669 82.0859 15.2957 82.8368 14.7951C83.6294 14.2736 84.2552 13.5227 84.6724 12.5423L84.7141 12.4589H82.7742L82.7534 12.4797C82.2527 13.4392 81.3558 13.9607 80.2086 13.9607C78.8527 13.9607 77.3718 13.0429 77.2675 11.3534H84.9435V11.2908C85.0896 9.72636 84.6098 8.32882 83.5669 7.24415C82.6908 6.36808 81.5018 5.90918 80.2086 5.90918Z" fill="white"/>
<path d="M87.5296 7.30673V6.15949H85.7775V15.2748H87.6339V10.3521C87.6339 8.62084 88.4265 7.74477 90.0327 7.74477H90.1995V5.90918H90.137C88.9272 5.90918 88.0511 6.38894 87.5296 7.30673Z" fill="white"/>
<path d="M93.1411 5.95093H91.3055V7.8908H93.1411V5.95093Z" fill="white"/>
<path d="M93.1411 9.05908H91.3055V15.275H93.1411V9.05908Z" fill="white"/>
<path d="M120.15 5.90918H120.109C118.774 5.90918 117.731 6.43065 117.188 7.3693V6.15949H115.436V15.2748H117.272V10.2061C117.272 8.55826 118.127 7.66133 119.712 7.64047C121.235 7.64047 121.986 8.5374 121.986 10.3313V15.2748H123.842V9.95581C123.842 8.45397 123.363 5.93004 120.15 5.90918Z" fill="white"/>
<path d="M112.164 12.0624C111.684 13.1471 110.662 13.8146 109.431 13.8146C107.22 13.8146 106.365 11.9373 106.365 10.7483C106.365 8.9753 107.679 7.64033 109.41 7.64033C110.704 7.64033 111.768 8.30781 112.226 9.45505C112.414 9.85137 112.498 10.2894 112.477 10.7483C112.456 11.2281 112.352 11.687 112.164 12.0624ZM112.456 6.15935V7.5569C111.955 6.7434 110.871 5.88818 109.181 5.88818C107.7 5.88818 106.407 6.53481 105.572 7.57775L101.818 11.979L101.255 12.6256C101.213 12.6673 101.192 12.7091 101.15 12.7716C100.671 13.3348 99.9197 13.7937 98.8559 13.7937C97.1454 13.7937 95.8522 12.4587 95.8522 10.7066C95.8522 9.85137 96.1651 9.01702 96.7074 8.47469C97.3332 7.89064 97.9798 7.61947 98.7933 7.61947H98.8559C100.107 7.61947 101.171 8.30781 101.588 9.45505L101.609 9.49677H101.63L102.882 8.03665C102.026 6.70168 100.525 5.88818 98.7933 5.88818C96.1025 5.88818 94.0166 8.01579 94.0166 10.7066C94.0166 13.0428 95.727 15.525 98.8767 15.525C100.087 15.525 101.192 15.1078 102.047 14.3569C102.277 14.1692 102.464 13.9606 102.652 13.7311L104.279 11.8747L104.613 11.4992C104.926 13.606 106.49 15.525 109.223 15.525C110.641 15.525 111.851 14.8992 112.498 13.8771V15.2747H114.354V6.15935H112.456Z" fill="white"/>
<path d="M23.6808 6.05518H23.6183C22.325 6.05518 21.2821 6.57665 20.7397 7.49444V6.32634H19.0293V15.2957H20.844V10.3104C20.844 8.70426 21.6784 7.80733 23.2428 7.78647C24.7446 7.78647 25.4956 8.68341 25.4956 10.4564V15.3166H27.3311V10.0601C27.3311 8.55825 26.8514 6.07603 23.6808 6.05518Z" fill="#C6C6C6"/>
<path d="M32.754 7.61959H32.8166C34.3602 7.61959 35.5074 8.80856 35.6117 9.9558H29.8963C30.0215 8.80856 31.1062 7.61959 32.754 7.61959ZM32.754 6.05518C30.1049 6.05518 28.019 8.14106 28.019 10.811C28.019 13.1263 29.7921 15.546 32.754 15.546C33.6927 15.546 34.5687 15.2748 35.3197 14.7951C36.0914 14.2944 36.7172 13.5227 37.1344 12.584L37.1761 12.5006H35.2779V12.5214C34.7773 13.4601 33.9013 13.9816 32.7749 13.9816C31.4399 13.9816 29.9798 13.0846 29.8755 11.4159H37.4264V11.3533C37.5724 9.80978 37.1135 8.43309 36.0706 7.39015C35.2154 6.51407 34.0264 6.05518 32.754 6.05518Z" fill="#C6C6C6"/>
<path d="M36.9264 6.32634H38.6994L40.7644 11.4785L43.6847 6.05518H43.7681L46.5632 11.5202L48.6074 6.32634H50.3804L46.8969 15.2539H46.7718L43.7055 9.14229L40.5558 15.2539H40.4515L36.9264 6.32634Z" fill="#C6C6C6"/>
<path d="M12.2283 6.22217L10.7473 6.55591L7.40993 0.840576L6.74244 7.41113L0.276184 8.82953L5.36575 11.0614L6.32526 11.4786H6.34612C8.1817 10.3105 10.351 8.45407 12.2283 6.22217Z" fill="#C6C6C6"/>
<path d="M13.3145 5.97181C10.5194 10.3522 5.99306 14.0233 5.99306 14.0233L5.68018 18.0699L10.0814 13.1264L16.1513 15.7963L12.8139 10.081L17.2151 5.13745L13.3145 5.97181Z" fill="white"/>
<path d="M80.2289 18.7376V19.7388H81.7099V19.9891H80.2289V21.4492H79.9578V18.4873H81.8768V18.7376H80.2289Z" fill="#C6C6C6"/>
<path d="M88.9063 20.4479C88.9063 20.7191 88.8646 20.9694 88.6768 21.1988C88.5517 21.3448 88.3014 21.5326 87.8216 21.5326C87.7173 21.5326 87.3627 21.5326 87.0707 21.3031C87.029 21.2614 86.9247 21.178 86.8621 21.0528C86.7161 20.7816 86.7161 20.4688 86.7161 19.8639V18.4872H86.9872V20.4062C86.9872 20.5731 87.0081 20.7399 87.0707 20.8859C87.1541 21.0319 87.2793 21.1154 87.321 21.1362C87.467 21.2197 87.6339 21.2405 87.8007 21.2405C87.8842 21.2405 88.2388 21.2405 88.4474 20.9902C88.6142 20.7816 88.6142 20.5313 88.6142 20.281V18.4663H88.8854V19.8221C88.9063 20.0516 88.9063 20.2393 88.9063 20.4479Z" fill="#C6C6C6"/>
<path d="M95.9978 21.4492L94.2665 18.9045V21.4492H93.9954V18.4873H94.2665L96.0187 21.0321L95.9978 18.4873H96.2898V21.4492H95.9978Z" fill="#C6C6C6"/>
<path d="M103.109 19.0295C103.067 18.9878 102.963 18.8627 102.796 18.8001C102.629 18.7375 102.483 18.7375 102.149 18.7375H101.628V21.1989H102.066C102.462 21.1989 102.692 21.178 102.859 21.1154C103.026 21.032 103.13 20.886 103.151 20.8442C103.255 20.6982 103.38 20.4062 103.38 19.989C103.401 19.8639 103.401 19.3633 103.109 19.0295ZM103.297 21.1154C103.255 21.1571 103.109 21.3031 102.921 21.3866C102.734 21.47 102.525 21.47 102.129 21.47H101.357V18.5081H102.149C102.254 18.5081 102.358 18.5081 102.462 18.5081C102.796 18.5289 103.046 18.5706 103.297 18.8418C103.464 19.0087 103.693 19.3841 103.693 19.989C103.693 20.135 103.672 20.6982 103.297 21.1154Z" fill="#C6C6C6"/>
<path d="M108.91 18.4873H108.639V21.4492H108.91V18.4873Z" fill="#C6C6C6"/>
<path d="M116.022 21.4492L114.291 18.9045V21.4492H114.02V18.4873H114.291L116.043 21.0321L116.022 18.4873H116.293V21.4492H116.022Z" fill="#C6C6C6"/>
<path d="M122.551 19.8431V20.1142H123.407V20.9694C123.177 21.1572 122.927 21.2615 122.614 21.2615C121.947 21.2615 121.383 20.6774 121.383 19.9474C121.383 19.259 121.905 18.675 122.656 18.675C122.948 18.675 123.24 18.8418 123.448 19.0087L123.615 18.8001C123.386 18.5707 122.969 18.4038 122.656 18.4038C121.696 18.4038 121.091 19.1339 121.091 19.9474C121.091 20.8652 121.759 21.5326 122.593 21.5326C122.969 21.5326 123.344 21.3866 123.678 21.1363V19.8639H122.551V19.8431Z" fill="#C6C6C6"/>
<path d="M125.43 5.53356C125.43 4.97037 124.971 4.51147 124.387 4.51147C123.803 4.51147 123.344 4.97037 123.344 5.55442C123.344 6.13846 123.803 6.59736 124.387 6.59736C124.992 6.5765 125.43 6.13846 125.43 5.53356ZM125.325 5.57528C125.325 6.07589 124.908 6.49306 124.387 6.49306C123.865 6.49306 123.448 6.07589 123.448 5.55442C123.448 5.03295 123.865 4.61577 124.387 4.61577C124.929 4.61577 125.325 5.03295 125.325 5.57528ZM124.846 6.20104L124.554 5.63785C124.741 5.59613 124.825 5.47098 124.825 5.26239C124.825 4.99123 124.679 4.88693 124.366 4.88693H123.99V6.20104H124.199V5.65871H124.366L124.637 6.20104H124.846ZM124.616 5.26239C124.616 5.40841 124.533 5.47098 124.345 5.47098H124.178V5.07466H124.324C124.533 5.07466 124.616 5.13724 124.616 5.26239Z" fill="#C6C6C6"/>
</svg>
