<svg width="100" height="20" viewBox="0 0 100 20" fill="none" xmlns="http://www.w3.org/2000/svg">
<g clip-path="url(#clip0)">
<path d="M95.8403 14.2994C97.2703 14.2994 98.7187 13.8159 99.7775 12.9806C99.7959 12.9621 99.7959 12.9434 99.7775 12.9434L98.737 11.6808C98.7186 11.6621 98.6999 11.6621 98.6999 11.6808C97.8271 12.2934 96.8801 12.6094 95.8772 12.6094C94.3731 12.6094 93.4632 11.9035 93.2406 10.5849L93.2219 10.4365H99.9999V9.97229C99.9999 7.48397 97.9943 5.44102 95.5433 5.42261H95.4875C94.1504 5.42261 92.9617 5.86844 92.1262 6.70386C91.3277 7.50238 90.8818 8.63522 90.8818 9.8607C90.9008 12.5532 92.832 14.2994 95.8403 14.2994ZM93.4078 8.67201C93.7234 7.68809 94.4662 7.14935 95.4876 7.14935C96.5091 7.14935 97.233 7.68809 97.5674 8.67201C97.5849 8.71478 97.5906 8.76142 97.5841 8.80715C97.5776 8.85287 97.559 8.89605 97.5303 8.93225C97.5024 8.97062 97.4661 9.00222 97.4243 9.02473C97.3825 9.04723 97.3362 9.06005 97.2887 9.06225H93.7045C93.6572 9.06001 93.6109 9.04716 93.5692 9.02466C93.5274 9.00216 93.4913 8.97058 93.4633 8.93225C93.4283 8.89997 93.4041 8.8576 93.3942 8.81099C93.3842 8.76437 93.389 8.71582 93.4078 8.67204V8.67201Z" fill="white"/>
<path d="M82.1726 9.898C82.1726 12.4232 84.2157 14.3363 86.9458 14.3363C88.2826 14.3363 89.5083 13.8716 90.3998 13.0177V12.9622L89.1368 11.5879C88.892 11.8947 88.5813 12.1425 88.2277 12.313C87.8741 12.4834 87.4866 12.5721 87.0941 12.5725C86.6876 12.5731 86.2867 12.4775 85.9242 12.2936C85.9055 12.2936 85.8869 12.2748 85.8682 12.2562L85.8497 12.238L85.8124 12.2191C85.2802 11.9477 84.8645 11.4924 84.6425 10.9377C84.5883 10.8052 84.5448 10.6686 84.5125 10.5292C84.4929 10.469 84.4803 10.4068 84.4751 10.3438L84.4569 10.2507C84.4569 10.2138 84.4382 10.1579 84.4382 10.1207V9.65652C84.4725 9.34879 84.554 9.04819 84.6798 8.76528C84.6983 8.72819 84.7167 8.67194 84.7354 8.63504C84.9672 8.17436 85.3373 7.79775 85.794 7.55802C86.1907 7.33509 86.6388 7.21984 87.0939 7.22374C87.4891 7.22382 87.8793 7.31221 88.2359 7.48244C88.5926 7.65267 88.9067 7.90045 89.1553 8.20766L90.4179 6.79636C89.5266 5.94249 88.2823 5.45972 86.9266 5.45972C84.2157 5.45983 82.1726 7.37255 82.1726 9.898Z" fill="white"/>
<path d="M80.9098 13.927V9.60095C80.8354 7.63211 80.2971 5.8125 77.0101 5.8125C76.3231 5.8125 75.7099 5.90533 75.1903 6.10961L75.0043 6.18383V5.84959C75.0044 5.84714 75.0039 5.8447 75.0031 5.84241C75.0022 5.84013 75.0008 5.83805 74.9991 5.8363C74.9974 5.83456 74.9953 5.83318 74.993 5.83225C74.9907 5.83132 74.9883 5.83087 74.9859 5.83091H73.1474C73.145 5.83088 73.1425 5.83134 73.1403 5.83227C73.138 5.8332 73.1359 5.83458 73.1342 5.83633C73.1325 5.83807 73.1312 5.84015 73.1302 5.84243C73.1293 5.8447 73.1289 5.84714 73.129 5.84959V13.927C73.1295 13.9367 73.1335 13.9459 73.1404 13.9528C73.1472 13.9597 73.1564 13.9638 73.1661 13.9644H75.283C75.2927 13.9638 75.3019 13.9597 75.3087 13.9528C75.3156 13.9459 75.3196 13.9367 75.3201 13.927V9.37784C75.3212 9.1335 75.3524 8.89023 75.4129 8.65351C75.6543 8.02232 76.3044 7.57668 77.0284 7.55804C77.734 7.55804 78.4025 8.00364 78.6439 8.63506C78.7182 8.85797 78.7367 9.09923 78.7367 9.35935V13.9088C78.7376 13.9185 78.7417 13.9275 78.7486 13.9344C78.7554 13.9413 78.7644 13.9455 78.7741 13.9464L80.9098 13.927C80.8912 13.9644 80.9098 13.9464 80.9098 13.927Z" fill="white"/>
<path d="M63.5093 5.84963V10.195C63.5837 12.1633 64.1221 13.9835 67.4088 13.9835C70.7515 13.9835 71.2343 11.7548 71.3087 10.1022V5.84963C71.308 5.84001 71.3039 5.83095 71.2971 5.82413C71.2903 5.81731 71.2812 5.81319 71.2716 5.81254H69.1547C69.145 5.81314 69.1359 5.81724 69.1291 5.82407C69.1222 5.8309 69.1181 5.83999 69.1175 5.84963V10.3993C69.1165 10.6437 69.0852 10.8869 69.0244 11.1236C68.7833 11.7548 68.1332 12.2004 67.4088 12.2189C66.7034 12.2189 66.0349 11.7735 65.7933 11.1416C65.7191 10.9189 65.7005 10.6775 65.7005 10.4178V5.84959C65.6998 5.83996 65.6957 5.83087 65.6889 5.82404C65.6821 5.81721 65.673 5.81311 65.6634 5.8125H63.5467C63.537 5.81305 63.5278 5.81713 63.5209 5.82397C63.514 5.83081 63.5099 5.83994 63.5093 5.84963Z" fill="white"/>
<path d="M57.3634 5.42236C54.652 5.42236 52.5907 7.33527 52.5907 9.86045C52.5907 12.3856 54.6334 14.2992 57.3634 14.2992C60.0935 14.2992 62.1545 12.3859 62.1545 9.86045C62.1545 7.31678 60.0929 5.42236 57.3634 5.42236ZM57.3634 12.4601C55.9516 12.4601 54.8748 11.3464 54.8748 9.86045C54.8748 8.39361 55.9704 7.26058 57.3634 7.26058C58.7745 7.26058 59.8702 8.41206 59.8702 9.86045C59.8702 11.3088 58.7561 12.4601 57.3634 12.4601Z" fill="white"/>
<path d="M47.6138 14.1505C49.8607 14.1505 51.5683 12.2932 51.5683 9.84196C51.5683 7.40945 49.8421 5.49655 47.6138 5.49655C46.4255 5.49655 45.3482 5.9797 44.5868 6.87094L44.3452 7.13076V1.70829C44.3445 1.69868 44.3404 1.68965 44.3336 1.68286C44.3268 1.67607 44.3177 1.67199 44.3081 1.67139H42.1914C42.1818 1.67201 42.1727 1.67609 42.1659 1.68288C42.1591 1.68966 42.155 1.69869 42.1543 1.70829V13.9271C42.1549 13.9368 42.1589 13.9459 42.1658 13.9527C42.1726 13.9596 42.1817 13.9637 42.1914 13.9642H44.1783C44.1879 13.9636 44.197 13.9595 44.2038 13.9527C44.2106 13.9459 44.2147 13.9368 44.2152 13.9271V12.4045L44.4569 12.6836C45.2182 13.6302 46.3328 14.1505 47.6138 14.1505ZM47.1493 7.35364C48.5609 7.35364 49.6008 8.39357 49.6008 9.82351C49.6008 11.235 48.5422 12.2932 47.1493 12.2932C45.7565 12.2932 44.661 11.2164 44.661 9.84196C44.661 8.43066 45.738 7.35364 47.1493 7.35364Z" fill="white"/>
<path d="M40.446 13.9644C40.4557 13.9638 40.4648 13.9597 40.4716 13.9529C40.4785 13.946 40.4826 13.9369 40.4832 13.9273V9.60095C40.4089 7.63211 39.8704 5.8125 36.5836 5.8125C35.8964 5.8125 35.2835 5.90533 34.7637 6.10961L34.578 6.18383V5.84959C34.578 5.83091 34.5595 5.83091 34.541 5.83091H32.7026C32.7001 5.83086 32.6977 5.83131 32.6954 5.83223C32.6931 5.83315 32.691 5.83452 32.6893 5.83627C32.6875 5.83801 32.6861 5.84009 32.6852 5.84238C32.6843 5.84467 32.6839 5.84713 32.6839 5.84959V13.9273C32.6845 13.9369 32.6886 13.946 32.6954 13.9528C32.7023 13.9597 32.7114 13.9638 32.721 13.9644H34.8379C34.8476 13.9638 34.8568 13.9597 34.8636 13.9529C34.8705 13.9461 34.8746 13.9369 34.8752 13.9273V9.37784C34.8763 9.1335 34.9074 8.89022 34.968 8.65351C35.2094 8.02232 35.8594 7.57668 36.5837 7.55804C37.2893 7.55804 37.9576 8.00364 38.1992 8.63506C38.2734 8.85797 38.292 9.09923 38.292 9.35935V13.9088C38.2927 13.9185 38.2968 13.9276 38.3036 13.9345C38.3104 13.9414 38.3195 13.9456 38.3292 13.9464H40.446V13.9644Z" fill="white"/>
<path d="M23.2128 5.84963V10.195C23.2868 12.1633 23.8255 13.9835 27.1124 13.9835C30.4549 13.9835 30.938 11.7548 31.0121 10.1024V5.84963C31.0115 5.84002 31.0074 5.83096 31.0006 5.82413C30.9938 5.81731 30.9847 5.81319 30.9751 5.81254H28.858C28.8483 5.81318 28.8393 5.8173 28.8325 5.82412C28.8256 5.83094 28.8215 5.84001 28.8209 5.84963V10.3993C28.8198 10.6436 28.7886 10.8869 28.728 11.1236C28.4865 11.7548 27.8365 12.2004 27.1123 12.2189C26.4066 12.2189 25.7381 11.7735 25.4968 11.1416C25.4223 10.9189 25.4037 10.6778 25.4037 10.4178V5.84959C25.4031 5.83996 25.399 5.83088 25.3922 5.82405C25.3853 5.81723 25.3763 5.81312 25.3666 5.8125H23.2497C23.2128 5.81254 23.2128 5.83095 23.2128 5.84963Z" fill="white"/>
<path d="M9.87925 0C4.41968 0 0 4.41968 0 9.87944C0 15.3392 4.41968 19.7587 9.87925 19.7587C15.3388 19.7587 19.7586 15.3388 19.7586 9.87944C19.7586 4.42007 15.3389 0 9.87925 0ZM9.52652 13.7602L8.80234 15.8962C8.78265 15.9631 8.75121 16.026 8.70951 16.0819C8.62747 16.2158 8.51296 16.3268 8.3766 16.4047C8.24024 16.4825 8.08644 16.5247 7.92944 16.5273C7.82788 16.5267 7.72726 16.5078 7.63241 16.4715C7.22379 16.3228 6.96378 15.9145 7.01955 15.5063C5.66721 14.8086 4.61132 13.6473 4.04515 12.2349C3.47897 10.8224 3.44037 9.25336 3.93641 7.81479C4.43246 6.37623 5.42997 5.16441 6.74637 4.40112C8.06278 3.63783 9.61003 3.37414 11.105 3.65829C11.2168 3.48406 11.3828 3.35147 11.5775 3.281C11.7721 3.21053 11.9846 3.2061 12.182 3.26839C12.3932 3.33926 12.5715 3.48445 12.6837 3.67694C12.7828 3.845 12.8281 4.03937 12.8134 4.23394C12.8118 4.30361 12.7993 4.3726 12.7763 4.4384L12.052 6.57357L9.52652 13.7602ZM10.325 16.1932L11.1978 13.5562C11.9554 13.2855 12.6105 12.7865 13.0727 12.1281C13.535 11.4696 13.7818 10.684 13.7791 9.87952C13.7827 9.10399 13.5494 8.34585 13.1103 7.70656L13.9833 5.06955C14.9411 5.88335 15.6346 6.96421 15.9752 8.17404C16.3157 9.38388 16.2879 10.6678 15.8952 11.8617C15.5025 13.0557 14.7629 14.1054 13.7707 14.877C12.7785 15.6485 11.5788 16.1067 10.325 16.1931V16.1932Z" fill="white"/>
<path d="M5.97968 9.87943C5.97968 11.2536 6.70385 12.4602 7.78111 13.1663L10.2323 5.99846C10.1153 5.98312 9.99733 5.97695 9.87937 5.98001C9.36725 5.97992 8.86013 6.08072 8.38698 6.27664C7.91382 6.47257 7.4839 6.75979 7.12176 7.1219C6.75963 7.48401 6.47238 7.91392 6.27641 8.38706C6.08045 8.8602 5.97962 9.36731 5.97968 9.87943Z" fill="white"/>
</g>
<defs>
<clipPath id="clip0">
<rect width="100" height="19.7587" fill="white"/>
</clipPath>
</defs>
</svg>
