<svg width="100" height="33" viewBox="0 0 100 33" fill="none" xmlns="http://www.w3.org/2000/svg">
<g clip-path="url(#clip0)">
<path d="M22.657 21.4973C22.9004 17.9193 23.0985 14.2503 23.2514 10.4905C23.4043 6.73059 23.4804 3.85722 23.4798 1.87036L23.4648 0.200928L26.024 0.232198C26.1665 0.232198 26.9479 0.221774 28.3682 0.200928C27.9517 5.67214 27.6874 12.7709 27.5754 21.4973L25.3232 21.4661C24.9452 21.4661 24.0564 21.4765 22.657 21.4973Z" fill="white"/>
<path d="M31.813 21.4974C32.1207 18.3983 32.3515 14.836 32.5054 10.8103C32.6592 6.78512 32.7362 3.24869 32.7362 0.20103C33.9612 0.222047 34.9868 0.23247 35.813 0.232299C36.7009 0.232299 37.571 0.216659 38.4234 0.185376C39.2751 0.154337 40.1756 0.138769 41.1251 0.138672C42.3086 0.138672 43.3672 0.206296 44.3011 0.341544C45.2349 0.476793 46.0642 0.788837 46.7888 1.27768C47.5131 1.76661 48.0512 2.35944 48.4033 3.05617C48.7555 3.75326 48.9316 4.56458 48.9316 5.49013C48.9344 6.05009 48.8676 6.60823 48.7327 7.15171C48.6027 7.66973 48.4044 8.16816 48.143 8.63388C47.8941 9.08179 47.5822 9.49164 47.2168 9.8509C46.8978 10.1695 46.5404 10.4473 46.1529 10.6778C45.7714 10.8933 45.3686 11.0685 44.9508 11.2004C44.5012 11.3462 43.899 11.523 43.144 11.7309L44.1851 13.7904C44.5216 14.4457 45.1596 15.6211 46.0988 17.3166L47.6453 20.0778C47.7271 20.2239 47.9721 20.6971 48.3804 21.4974C47.1314 21.477 46.3076 21.4666 45.9089 21.4662C45.4172 21.4662 44.5521 21.4766 43.3135 21.4974L41.6168 17.3478C41.3211 16.7131 40.9645 15.9641 40.547 15.1008L38.697 11.3097C38.5137 10.9562 38.259 10.4257 37.933 9.7183C38.5493 9.83653 39.1749 9.89921 39.8023 9.90556C40.6811 9.90556 41.4829 9.75995 42.2077 9.46873C42.9332 9.1777 43.4902 8.72782 43.8787 8.11908C44.2618 7.52662 44.464 6.83538 44.4605 6.12987C44.4642 5.71078 44.3781 5.29576 44.2079 4.91274C44.0396 4.53826 43.7563 4.22101 43.358 3.96099C42.9601 3.7012 42.4855 3.5348 41.9341 3.4618C41.3859 3.38922 40.8336 3.35273 40.2806 3.35256C39.9741 3.35256 39.5556 3.35778 39.025 3.36821C38.4937 3.37872 37.8403 3.38393 37.065 3.38383L36.7915 9.7962L36.503 21.4974L34.127 21.4662C33.749 21.4662 32.9776 21.4766 31.813 21.4974Z" fill="white"/>
<path d="M51.2444 21.4973L51.6435 17.9716L52.6574 5.58365L53.0103 0.200928C54.4684 0.221945 55.5338 0.232368 56.2066 0.232198C56.747 0.232198 57.7309 0.221774 59.1585 0.200928C59.3219 1.04346 59.4446 1.64155 59.5263 1.99522C59.608 2.34888 59.7667 2.91566 60.0023 3.69555C60.2374 4.47571 60.5393 5.42227 60.9082 6.53522C61.4502 8.22008 61.9361 9.88424 62.3657 11.5277L63.5323 15.9899L65.5801 10.264L68.5601 2.82192C68.6623 2.57235 68.7666 2.2837 68.8732 1.95599C68.9803 1.62841 69.1612 1.04338 69.416 0.200928C70.6313 0.221945 71.714 0.232368 72.6641 0.232198C73.297 0.232198 74.3082 0.221774 75.6976 0.200928C75.5545 3.19658 75.4475 6.50676 75.3765 10.1315C75.3055 13.7566 75.27 16.4635 75.2701 18.2522C75.2701 19.116 75.2803 20.1977 75.3007 21.4973C74.2891 21.4769 73.5999 21.4664 73.2331 21.4661C72.7017 21.4661 71.9971 21.4765 71.1192 21.4973C71.18 20.4364 71.2205 19.5627 71.2406 18.8762L71.4985 9.59323C71.5292 8.28281 71.5444 6.99306 71.5442 5.72398L71.5292 4.46026L65.901 19.6407L65.2453 21.4973C64.2506 21.4769 63.5688 21.4664 63.1999 21.4661C62.7383 21.4661 62.0154 21.4765 61.0313 21.4973L58.3963 11.8867C58.3044 11.5435 58.0898 10.8259 57.7526 9.73393L56.8029 6.55095C56.7109 6.24951 56.642 6.00247 56.5961 5.80984C56.5503 5.61721 56.4507 5.18816 56.2974 4.52269L56.0979 6.51986C56.0468 7.15438 55.9702 8.21529 55.8683 9.70258L55.2702 19.3755C55.2498 19.854 55.2345 20.5612 55.2245 21.4972L53.2495 21.466C52.9129 21.4661 52.2445 21.4765 51.2444 21.4973Z" fill="white"/>
<path d="M79.449 21.4973C79.6924 17.9193 79.8906 14.2503 80.0434 10.4905C80.1962 6.73059 80.2724 3.85722 80.2718 1.87036L80.2568 0.200928L82.816 0.232198C82.9585 0.232198 83.7399 0.221774 85.1602 0.200928C84.7436 5.67214 84.4794 12.7709 84.3674 21.4973L82.1152 21.4661C81.7372 21.4661 80.8484 21.4765 79.449 21.4973Z" fill="white"/>
<path fill-rule="evenodd" clip-rule="evenodd" d="M16.6183 10.3103C16.4098 10.1357 16.1985 9.96438 16.0041 9.80449C16.0114 9.76908 16.0219 9.73439 16.0353 9.70082C16.0783 9.63471 16.1231 9.5698 16.1684 9.50547C17.1909 8.05544 17.428 6.50696 16.7244 4.8553C16.4325 4.1698 16.4609 3.51452 16.8056 2.86357C16.9258 2.63698 17.0352 2.40408 17.168 2.1849C17.4439 1.72964 17.7318 1.28182 18.0167 0.828203L17.7955 0.0195936L17.5046 0.11355C17.2341 0.197692 16.9625 0.278658 16.6941 0.36944C16.2099 0.533344 15.7228 0.690096 15.2477 0.876622C14.7908 1.05633 14.3473 1.27033 13.8237 1.50199C12.4089 0.604204 10.7795 0.339885 9.0785 0.344811C7.39557 0.349773 5.78143 0.609749 4.36508 1.48006C3.49291 1.13569 2.67431 0.800435 1.84604 0.490033C1.43642 0.336601 1.01025 0.227502 0.59133 0.0993201L0.355728 0L-0.000976562 0.861479C-0.000976562 0.861479 0.0964096 0.931025 0.119214 0.949853C0.787598 1.67348 1.26858 2.51343 1.59569 3.43607C1.72161 3.79146 1.67597 4.17039 1.5464 4.54005C1.39074 4.98483 1.24318 5.43666 1.14642 5.89707C0.884327 7.14368 1.17466 8.28338 1.88449 9.32606C1.98458 9.47299 2.09306 9.61398 2.21237 9.77774C1.95933 9.99233 1.70355 10.2006 1.45686 10.4194C0.401703 11.3555 0.109618 12.5423 0.2752 13.9025C0.365616 14.6465 0.642158 15.3083 1.00156 15.9478C1.39767 16.6552 1.81776 17.349 2.18804 18.0678C2.87623 19.4045 3.22903 20.82 3.20681 22.3394C3.17434 24.5345 3.19481 26.7301 3.20258 28.9252C3.20744 29.2403 3.23972 29.5545 3.29905 29.864C3.38261 30.325 3.67561 30.6039 4.14261 30.6449C4.73167 30.6953 5.32398 30.7158 5.91512 30.7386C6.22796 30.7513 6.54172 30.741 6.90146 30.741C6.9297 31.4544 7.05682 32.0831 7.82285 32.3019H10.3185C11.1005 32.0855 11.2705 31.4575 11.2927 30.78C11.3488 30.764 11.4061 30.7523 11.464 30.7452C11.8992 30.7422 12.335 30.7525 12.7698 30.7379C13.1639 30.7253 13.5593 30.7048 13.9497 30.655C14.5925 30.5739 14.8909 30.2559 14.9514 29.614C14.9715 29.3982 14.9646 29.1794 14.9652 28.9618C14.9657 26.7265 14.9653 24.4912 14.9639 22.2559C14.9615 21.055 15.1638 19.8902 15.6738 18.8064C16.1522 17.7895 16.6833 16.7953 17.2383 15.8162C17.721 14.9667 17.9587 14.0801 17.9425 13.1037C17.9235 11.9621 17.4869 11.0385 16.6183 10.3103ZM16.8482 1.06461C16.4948 1.77941 16.157 2.46341 15.8006 3.18394L15.3324 2.68551C15.302 2.64785 15.2688 2.61248 15.2332 2.5797C15.015 2.3835 14.8058 2.17672 14.5366 1.92171C15.3342 1.56997 16.0224 1.14787 16.8482 1.06461H16.8482ZM16.1757 5.68292C16.6878 7.74847 15.6185 9.14694 14.185 9.65124C12.1435 10.3695 10.072 8.5393 10.185 6.6909C10.2106 6.2757 10.3464 5.92801 10.6349 5.5435C10.6476 5.7115 10.6713 5.87849 10.7058 6.04338C10.7204 6.12763 10.7405 6.2108 10.7662 6.29234C10.7671 6.29555 10.768 6.29865 10.7687 6.30197C10.7751 6.32518 10.7838 6.34772 10.7945 6.36929C10.8946 6.64204 11.0556 6.88834 11.2653 7.08944C11.475 7.29053 11.7279 7.44112 12.0046 7.52972C12.2813 7.61831 12.5745 7.64259 12.862 7.6007C13.1495 7.55881 13.4237 7.45186 13.6636 7.28799C14.1108 6.99645 14.4284 6.52254 14.4825 5.98847C14.4852 5.96162 14.4855 5.93513 14.4873 5.90856C14.4885 5.89488 14.4885 5.8809 14.4897 5.8674C14.491 5.84288 14.493 5.81825 14.4934 5.79374C14.4946 5.76568 14.4979 5.73787 14.4979 5.7093C14.4978 5.20234 14.2964 4.71616 13.9379 4.35771C13.5794 3.99927 13.0932 3.79792 12.5862 3.79795C12.5148 3.79822 12.4435 3.80243 12.3726 3.81058L12.3723 3.80981C12.3723 3.80981 12.0537 3.79423 11.9918 3.82711C12.4708 3.23965 13.0996 2.8462 13.7736 2.45516C14.8263 3.35762 15.8282 4.28357 16.1757 5.68292ZM7.13169 1.17761C8.42073 0.968906 9.73501 0.969769 11.0238 1.18017C11.7466 1.29755 12.4056 1.60572 13.0652 2.03559C11.3204 3.17536 10.0053 4.63802 9.09353 6.5455C8.15766 4.61908 6.83355 3.16456 5.08615 2.03486C5.74987 1.60525 6.40701 1.29452 7.13169 1.17761ZM1.31189 1.0699C2.15607 1.14426 2.86861 1.58033 3.58446 1.88803C3.14839 2.28487 2.71685 2.67752 2.30965 3.04835C2.01975 2.4729 1.67688 1.79309 1.31204 1.0699H1.31189ZM2.01421 7.64028C1.66922 6.4661 1.95532 5.37237 2.60443 4.36844C3.08049 3.63292 3.71246 3.03714 4.42018 2.44761C5.08316 2.84825 5.68904 3.23998 6.15484 3.8475C6.1308 3.84626 6.10825 3.84689 6.08453 3.84601C5.98445 3.83068 5.82788 3.81456 5.78942 3.81083C5.42038 3.76908 5.04716 3.83576 4.71542 4.00274C4.38368 4.16972 4.10778 4.42975 3.92147 4.75103C3.73515 5.07232 3.6465 5.44093 3.66635 5.8118C3.6862 6.18267 3.81369 6.53971 4.03324 6.83927C4.25278 7.13884 4.55486 7.36793 4.90253 7.49854C5.2502 7.62915 5.6284 7.65562 5.99088 7.57471C6.35335 7.4938 6.68439 7.30901 6.94352 7.04295C7.20265 6.77688 7.37863 6.44108 7.44994 6.07659L7.45085 6.07597C7.45085 6.07597 7.55302 5.73036 7.50766 5.56912C7.91005 5.99573 8.08377 6.48106 8.00831 7.03476C7.79526 8.59586 6.59463 9.66306 5.12238 9.80398C3.85356 9.9253 2.44261 9.0975 2.01435 7.64028H2.01421ZM3.46423 19.8511C3.24695 18.9399 2.86711 18.099 2.41338 17.284C2.01008 16.5597 1.62963 15.8204 1.24315 15.0865C0.270639 13.2392 0.901148 11.2401 2.63844 10.1741C2.74061 10.2111 2.86988 10.2505 2.99277 10.304C3.88355 10.691 4.81578 10.6664 5.73301 10.496C6.84672 10.2893 7.6627 9.62902 8.19342 8.62421C8.2484 8.52022 8.30729 8.41835 8.39567 8.2597C8.66794 8.48913 8.77609 8.72941 8.77554 9.02014C8.77284 10.2077 8.80838 11.3969 8.75088 12.5818C8.71001 13.4155 8.38516 14.1903 7.98573 14.9263C7.52926 15.7665 6.94054 16.5098 6.3016 17.215C5.39882 18.2097 4.41401 19.1781 3.64857 20.403C3.57448 20.2235 3.51293 20.0391 3.46438 19.8511H3.46423ZM14.3724 28.6817C14.3724 28.8794 14.3693 29.0772 14.3592 29.275C14.3276 29.8573 14.2056 30.0455 13.6457 30.0996C13.0955 30.1526 12.5414 30.1506 11.9916 30.0936C11.4338 30.0347 11.2851 29.8279 11.2765 29.2642C11.2638 28.4527 11.2725 27.6407 11.2723 26.8293V25.8946H11.2725V25.043H10.7055V25.4764C10.695 25.5984 10.7001 25.7234 10.7001 25.846C10.6989 27.4695 10.7028 29.0923 10.698 30.7152C10.6953 31.6041 10.5943 31.6985 9.70598 31.7009C9.23113 31.7021 8.75573 31.7111 8.28121 31.6961C8.07173 31.6895 7.86404 31.6317 7.72221 31.6083C7.45684 31.3186 7.47129 31.0379 7.47129 30.7609V25.043H6.91302V25.8947H6.91364C6.90821 26.8462 6.91153 27.7971 6.91061 28.7485C6.91032 28.9264 6.91182 29.105 6.89857 29.2822C6.85413 29.8761 6.74981 30.0389 6.17312 30.093C5.60378 30.1435 5.03095 30.1401 4.46225 30.0828C4.00633 30.039 3.85848 29.8329 3.80678 29.3778C3.78277 29.1625 3.79025 28.9432 3.79025 28.7257C3.78908 26.6472 3.82123 24.5688 3.77642 22.491C3.75391 21.4367 4.09923 20.5526 4.73722 19.7634C5.34609 19.0102 5.97627 18.2722 6.63094 17.5582C7.46399 16.65 8.19991 15.6745 8.81064 14.6049C8.87796 14.4871 8.97955 14.3591 9.05737 14.2437C9.09113 14.2741 9.11868 14.3107 9.13852 14.3516C10.0626 15.9594 11.2909 17.328 12.5339 18.6875C13.0381 19.2385 13.4835 19.85 13.9085 20.4661C14.2624 20.98 14.3857 21.5732 14.3802 22.2096C14.362 24.3667 14.3738 26.5239 14.3725 28.6817H14.3724ZM17.012 14.8191C16.7911 15.2825 16.545 15.7339 16.3064 16.1882C15.9479 16.8723 15.5452 17.5352 15.2368 18.2391C14.9413 18.9153 14.7374 19.6575 14.4927 20.3656C14.4469 20.3304 14.4066 20.2885 14.3734 20.2412C13.6435 19.0991 12.6848 18.1495 11.7791 17.1553C11.2048 16.5252 10.6642 15.8679 10.2394 15.1248C9.6915 14.1651 9.34771 13.1464 9.34833 12.0284C9.34862 11.0977 9.3453 10.167 9.34741 9.23641C9.34833 8.89707 9.36814 8.56036 9.72065 8.25831C10.2499 9.35915 11.0144 10.1557 12.1922 10.4372C13.3134 10.7049 14.4269 10.6853 15.4592 10.1543C17.1731 11.1707 17.8394 13.0833 17.012 14.8191Z" fill="white"/>
<path d="M20.2571 2.25942C20.1061 2.10814 19.9073 2.01392 19.6946 1.9928C19.4819 1.97169 19.2685 2.02499 19.0906 2.14362C18.9128 2.26226 18.7817 2.43889 18.7195 2.6434C18.6573 2.84792 18.668 3.06766 18.7497 3.26519C18.8314 3.46271 18.9791 3.62579 19.1676 3.72663C19.356 3.82747 19.5736 3.85982 19.7833 3.81818C19.9929 3.77655 20.1817 3.66349 20.3173 3.49828C20.453 3.33308 20.5271 3.12595 20.5271 2.91219C20.5274 2.79095 20.5037 2.67084 20.4574 2.5588C20.4111 2.44677 20.343 2.34501 20.2571 2.25942ZM19.604 3.68362C19.4515 3.68359 19.3024 3.63834 19.1755 3.55358C19.0487 3.46882 18.9499 3.34835 18.8915 3.20742C18.8331 3.06648 18.8179 2.91141 18.8476 2.7618C18.8774 2.61218 18.9509 2.47476 19.0587 2.3669C19.1666 2.25903 19.304 2.18557 19.4536 2.15581C19.6032 2.12604 19.7583 2.14131 19.8992 2.19967C20.0402 2.25804 20.1606 2.35688 20.2454 2.48371C20.3301 2.61054 20.3754 2.75965 20.3754 2.91219C20.3752 3.11669 20.2938 3.31274 20.1492 3.45735C20.0046 3.60197 19.8086 3.68334 19.6041 3.68362H19.604Z" fill="white"/>
<path d="M19.8152 2.93592C19.9354 2.88426 19.9954 2.79976 19.9952 2.68244C19.996 2.64033 19.9858 2.59874 19.9655 2.5618C19.9453 2.52487 19.9157 2.49387 19.8798 2.4719C19.7861 2.41589 19.6778 2.38896 19.5688 2.39451C19.469 2.39567 19.3695 2.40508 19.2712 2.42265V3.4276H19.4164V2.9831H19.6009C19.75 2.9831 19.8452 3.13127 19.8867 3.4276H20.0317C20.0176 3.31287 19.9895 3.20032 19.9478 3.09249C19.9201 3.02833 19.8739 2.97384 19.8152 2.93592ZM19.5937 2.87149H19.4164V2.51927C19.467 2.51457 19.5179 2.51247 19.5688 2.51295C19.759 2.51295 19.8546 2.57232 19.8546 2.69116C19.8546 2.81126 19.7677 2.87136 19.5939 2.87149H19.5937Z" fill="white"/>
<path d="M88.7715 1.45815C88.6205 1.30687 88.4217 1.21265 88.209 1.19153C87.9963 1.17042 87.7828 1.22372 87.605 1.34236C87.4272 1.461 87.2961 1.63763 87.2339 1.84214C87.1717 2.04666 87.1824 2.26641 87.2641 2.46393C87.3458 2.66146 87.4935 2.82453 87.682 2.92537C87.8704 3.0262 88.0881 3.05856 88.2977 3.01691C88.5074 2.97527 88.6961 2.8622 88.8317 2.69699C88.9674 2.53178 89.0415 2.32464 89.0415 2.11088C89.0418 1.98965 89.0181 1.86955 88.9718 1.75752C88.9254 1.64549 88.8574 1.54375 88.7715 1.45815ZM88.1184 2.88231C87.9659 2.88227 87.8168 2.83701 87.69 2.75225C87.5632 2.66748 87.4644 2.54702 87.406 2.40609C87.3476 2.26517 87.3324 2.1101 87.3622 1.9605C87.3919 1.81091 87.4654 1.67349 87.5732 1.56564C87.6811 1.45779 87.8185 1.38434 87.9681 1.35457C88.1177 1.32481 88.2727 1.34008 88.4137 1.39844C88.5546 1.45679 88.675 1.55563 88.7598 1.68244C88.8446 1.80926 88.8898 1.95835 88.8898 2.11088C88.8896 2.31541 88.8082 2.51148 88.6636 2.6561C88.519 2.80072 88.3229 2.88207 88.1184 2.88231Z" fill="white"/>
<path d="M88.3296 2.13465C88.4498 2.08296 88.5098 1.99847 88.5096 1.88117C88.5104 1.83906 88.5002 1.79746 88.48 1.76053C88.4597 1.72359 88.4302 1.6926 88.3942 1.67064C88.3005 1.61461 88.1922 1.58768 88.0832 1.59325C87.9834 1.59441 87.8839 1.60381 87.7856 1.62134V2.62633H87.9308V2.18183H88.1153C88.2644 2.18183 88.3597 2.33 88.4011 2.62633H88.5463C88.5322 2.5116 88.504 2.39905 88.4624 2.29123C88.4346 2.22704 88.3884 2.17255 88.3296 2.13465ZM88.1081 2.07022H87.9308V1.71782C87.9814 1.71314 88.0323 1.71104 88.0832 1.7115C88.2734 1.7115 88.369 1.77083 88.369 1.88971C88.3691 2.00995 88.2821 2.07007 88.1082 2.07007L88.1081 2.07022Z" fill="white"/>
<path d="M98.3896 20.77C100.522 18.5209 99.9225 15.9074 99.9225 15.9074H99.9222C99.8489 15.4757 99.7233 15.0546 99.5481 14.6533H99.5484C99.5463 14.6478 99.5433 14.6424 99.5411 14.6366C99.5354 14.6236 99.5301 14.6105 99.524 14.5974C97.5344 9.53012 88.8424 7.64687 87.3574 7.35986C87.5083 7.39653 87.7049 7.45498 87.933 7.52982C87.673 7.45874 87.4075 7.38842 87.1366 7.31885C87.1366 7.31885 114.987 19.013 74.2116 27.6297C74.2116 27.6297 42.7679 34.7076 20.819 24.5523C20.9644 24.5523 33.6012 35.0039 70.6413 30.9072C72.1461 30.7298 77.5417 30.0543 81.2119 29.1083C85.1311 28.0204 91.2488 26.0201 95.3207 23.3893C95.58 23.245 95.9139 23.019 96.3449 22.6825C96.3638 22.6674 96.3814 22.653 96.3998 22.6387C97.1926 22.043 97.8705 21.4192 98.3896 20.77Z" fill="white"/>
<path d="M87.137 7.31909C87.137 7.31909 87.2178 7.33292 87.3578 7.3601C87.2854 7.34053 87.2116 7.32682 87.137 7.31909Z" fill="white"/>
</g>
<defs>
<clipPath id="clip0">
<rect width="100" height="32.3018" fill="white"/>
</clipPath>
</defs>
</svg>
