<svg width="100" height="24" viewBox="0 0 100 24" fill="none" xmlns="http://www.w3.org/2000/svg">
<g clip-path="url(#clip0)">
<path d="M11.1677 18.8174H13.4215V23.2566H9.90398C8.56024 23.2566 7.39351 22.9947 6.40381 22.471C5.43122 21.9656 4.63817 21.1726 4.13277 20.2C3.60882 19.2094 3.34684 18.0313 3.34684 16.6656V8.81095H0V7.75211L7.30869 0H8.23083V4.81531H13.319V8.81106H8.33282V16.016C8.33282 16.9045 8.57766 17.5933 9.06733 18.0822C9.55679 18.5722 10.2569 18.8172 11.1677 18.8174Z" fill="white"/>
<path d="M34.5605 13.9674C34.5596 14.4585 34.5254 14.949 34.4581 15.4355H20.5244C20.7293 16.6885 21.2245 17.6506 22.0099 18.3218C22.7954 18.9938 23.8029 19.3295 25.0324 19.3292C25.8745 19.3292 26.6373 19.1413 27.3208 18.7654C27.9885 18.405 28.5439 17.8674 28.9257 17.2116H34.1848C33.5017 19.2155 32.3406 20.8093 30.7015 21.9928C29.0621 23.177 27.1724 23.769 25.0323 23.7689C22.3003 23.7689 20.0237 22.8354 18.2023 20.9686C16.3809 19.1017 15.4702 16.7907 15.4702 14.0356C15.466 12.9713 15.6213 11.9124 15.931 10.8941C16.2215 9.92687 16.6717 9.01504 17.263 8.19634C17.8334 7.40994 18.5183 6.71344 19.2951 6.13005C20.0911 5.53826 20.9796 5.08244 21.9246 4.78108C22.9288 4.45855 23.9777 4.29724 25.0323 4.30313C26.8766 4.30313 28.5331 4.73569 30.0016 5.6008C31.4698 6.46639 32.5967 7.6389 33.3824 9.1183C34.168 10.5986 34.5607 12.215 34.5605 13.9674ZM25.0323 8.53771C23.9169 8.53771 22.9777 8.84509 22.2148 9.45985C21.4518 10.0746 20.934 10.9283 20.6613 12.021H29.5744C29.3467 11.2698 29.0167 10.6381 28.5844 10.1259C28.1615 9.62131 27.6302 9.21855 27.0301 8.94764C26.4265 8.67433 25.7606 8.53768 25.0323 8.53771Z" fill="white"/>
<path d="M44.6695 23.7688C43.1437 23.7688 41.7947 23.4955 40.6223 22.949C39.45 22.4025 38.5394 21.6285 37.8905 20.627C37.2416 19.6253 36.9172 18.4754 36.9172 17.1774H41.7662C41.7887 17.7244 41.9312 18.1855 42.1934 18.5609C42.455 18.9361 42.8135 19.2094 43.2691 19.3806C43.7243 19.5514 44.248 19.6367 44.8402 19.6365C45.2811 19.6425 45.7199 19.5732 46.1376 19.4316C46.5058 19.3076 46.8354 19.0899 47.0939 18.7999C47.3414 18.5233 47.4755 18.1637 47.4697 17.7926C47.4697 17.2236 47.1737 16.8022 46.5816 16.5284C45.9893 16.2551 45.1014 16.0162 43.918 15.8116C43.1666 15.6979 42.5462 15.5841 42.0568 15.4701C41.5669 15.3564 40.9863 15.1571 40.3149 14.8721C39.6435 14.5881 39.1085 14.2637 38.71 13.8989C38.3114 13.5349 37.9641 13.034 37.6681 12.3961C37.3718 11.7595 37.2239 11.0198 37.2245 10.1769C37.2245 8.44695 37.9074 7.03537 39.2733 5.94223C40.6392 4.84908 42.4321 4.30266 44.652 4.30298C46.872 4.30298 48.6593 4.86647 50.0139 5.99346C51.3685 7.12044 52.0458 8.60608 52.0457 10.4504L47.2989 10.4501C47.2989 8.99329 46.3769 8.26484 44.5328 8.26472C43.7585 8.26472 43.1551 8.42402 42.7227 8.74263C42.2898 9.0617 42.0735 9.49433 42.0737 10.0405C42.0727 10.265 42.1381 10.4848 42.2618 10.6722C42.3763 10.8549 42.5273 11.012 42.7054 11.1336C42.8761 11.2475 43.1437 11.3555 43.5082 11.4578C43.8722 11.5603 44.1796 11.6342 44.4304 11.6796C44.6807 11.7256 45.0564 11.794 45.5575 11.8847C45.9894 11.9759 46.2966 12.0386 46.4793 12.0726C46.6612 12.1069 46.9686 12.1694 47.4014 12.2602C47.8338 12.3514 48.1582 12.4369 48.3747 12.5166C48.5911 12.5963 48.8871 12.7044 49.2627 12.8408C49.6384 12.9775 49.923 13.1199 50.1165 13.268C50.3101 13.4162 50.5489 13.5924 50.8331 13.7967C51.0968 13.9797 51.3229 14.2116 51.4993 14.4798C51.6585 14.731 51.8179 15.0043 51.9775 15.2995C52.144 15.6197 52.2539 15.9664 52.3022 16.3241C52.3605 16.7313 52.389 17.1423 52.3874 17.5537C52.3874 19.4434 51.6816 20.9517 50.27 22.0785C48.8584 23.2056 46.9915 23.769 44.6695 23.7688Z" fill="white"/>
<path d="M64.8855 18.8174H67.1405V23.2566H63.6222C62.2794 23.2566 61.1125 22.9947 60.1216 22.471C59.1497 21.9652 58.3571 21.1724 57.8515 20.2004C57.3274 19.2099 57.0657 18.0316 57.0664 16.6656V8.81113H53.7192V7.75233L61.0274 0H61.9492V4.81531H67.0378V8.81106H62.0521V16.0166C62.0521 16.9046 62.2966 17.5932 62.7857 18.0823C63.275 18.5726 63.975 18.8176 64.8855 18.8174Z" fill="white"/>
<path d="M75.541 4.81543H70.5555V23.2567H75.541V4.81543Z" fill="white"/>
<path d="M78.9182 4.82206V23.2542H83.7766V12.4271C83.7766 12.4271 84.0339 9.75973 87.5898 9.68019C87.5795 9.67038 84.7282 4.82202 84.7282 4.82202L78.9182 4.82206Z" fill="white"/>
<path d="M95.2354 23.2542H99.9768V7.25122L95.2382 14.4221L95.2354 23.2542Z" fill="white"/>
<path d="M94.2766 4.82202L89.4519 12.8004C89.3792 12.4715 89.238 12.1616 89.0375 11.891C88.837 11.6203 88.5817 11.395 88.2883 11.2297C87.9948 11.0643 87.6698 10.9628 87.3344 10.9315C86.999 10.9003 86.6608 10.9401 86.3419 11.0484C86.0229 11.1567 85.7304 11.3311 85.4834 11.56C85.2363 11.789 85.0404 12.0675 84.9082 12.3773C84.7761 12.6872 84.7108 13.0214 84.7165 13.3582C84.7223 13.695 84.799 14.0267 84.9416 14.3319L84.9865 14.424C85.0699 14.5865 85.1723 14.7385 85.2916 14.8769C85.292 14.877 85.2925 14.8772 85.2928 14.8775C85.2932 14.8779 85.2934 14.8783 85.2934 14.8788L87.3736 17.9537L87.3755 17.9565L87.3865 17.9729C87.4547 18.0957 87.5333 18.2124 87.6215 18.3218L87.6299 18.3334L87.6318 18.3353L87.7413 18.457L87.7422 18.456C87.9958 18.725 88.3083 18.9314 88.6552 19.0592C89.002 19.187 89.3738 19.2326 89.7412 19.1924C90.1087 19.1522 90.4618 19.0274 90.7729 18.8277C91.0839 18.628 91.3444 18.3589 91.5339 18.0415L99.9997 4.82202H94.2766Z" fill="white"/>
</g>
<defs>
<clipPath id="clip0">
<rect width="100" height="23.769" fill="white"/>
</clipPath>
</defs>
</svg>
