<svg width="100" height="89" viewBox="0 0 100 89" fill="none" xmlns="http://www.w3.org/2000/svg">
<g clip-path="url(#clip0)">
<path d="M56.1764 87.5219C55.7193 86.6934 55.5479 81.6654 55.6908 73.2092C55.8051 66.0385 55.7765 60.182 55.6622 60.182C55.2622 60.182 47.5488 66.2384 42.2065 70.7522C39.2354 73.2663 34.4359 77.7801 31.522 80.8083C25.9226 86.6648 24.4941 87.2648 22.6658 84.5222C21.7802 83.2081 21.923 82.9224 25.1228 79.4942C29.3508 75.009 38.007 67.6669 47.5773 60.4676C54.9194 54.954 57.8905 51.84 54.7766 52.9256C53.9481 53.2113 52.1483 53.4398 50.777 53.4684C47.2345 53.497 46.4346 51.84 46.9203 45.3834C47.3774 39.4126 48.0059 37.5843 50.6056 34.8988C54.0909 31.2706 57.3192 32.8419 54.3766 36.7272C52.8053 38.7841 52.3483 40.2126 52.0054 43.955C51.6626 47.8688 52.2911 49.1545 54.0909 48.1831C55.5765 47.3832 56.0336 45.4978 56.5479 37.9842C56.9478 32.2705 57.862 30.2993 60.0904 30.2993C60.7475 30.2993 61.4331 30.6992 61.6045 31.1564C61.7759 31.642 61.7187 36.213 61.4331 41.3267C61.1475 46.4404 61.0902 50.64 61.2903 50.64C61.4903 50.64 63.6329 49.383 66.0612 47.8689C68.4895 46.3547 73.6889 43.2979 77.6028 41.0981C83.2878 37.8985 84.602 36.9272 84.0307 36.2416C83.5451 35.6702 83.4593 33.5275 83.7734 29.6708C84.259 23.3286 83.7449 22.5573 81.0023 25.4712C79.8309 26.6998 79.4881 27.9853 79.2025 32.1848C78.9452 35.9273 78.5169 37.7842 77.6312 38.927C76.3456 40.5553 74.3458 40.9839 73.6031 39.8126C73.3745 39.4412 73.3745 35.9558 73.6317 32.0706C74.0316 25.8712 74.2601 24.8427 75.5741 23.5286C76.5208 22.5802 77.805 22.046 79.1451 22.0431C80.5164 22.0431 81.5163 21.6145 82.0019 20.8432C82.4019 20.1861 83.6304 19.3291 84.7159 18.9577C86.4015 18.3863 86.8872 18.4435 87.9442 19.5291C89.0012 20.5861 89.2012 21.6717 89.2012 27.0995C89.2012 30.5848 89.4868 33.5845 89.8011 33.7845C90.144 33.9844 91.7725 33.4702 93.4578 32.6418C95.1432 31.8134 97.0575 31.2134 97.7145 31.299C98.8858 31.4704 99.9714 32.6132 100 33.6988C100.029 34.9558 96.0576 37.6983 92.6294 38.784C90.5725 39.441 86.1729 41.4122 82.859 43.1834C79.5451 44.9547 76.1169 46.7831 75.2312 47.2401C74.3456 47.6972 70.7746 49.8684 67.2892 52.0682L60.9473 56.0681L60.8616 67.4955C60.8045 73.7805 61.0901 80.6939 61.4615 82.8653C62.0043 85.9506 61.9757 87.0076 61.3187 87.779C60.1188 89.2646 57.0049 89.0931 56.1764 87.5219ZM13.981 79.3799C13.5239 78.637 11.3527 66.2956 9.78146 55.5539C8.12453 44.2408 7.78152 43.6409 6.01043 48.926C5.23908 51.2115 4.12497 53.5541 3.46788 54.1255C2.26799 55.2111 0.52524 54.954 0.0111126 53.6113C-0.246187 52.9542 4.18208 39.07 6.29614 33.8419C7.23887 31.5279 9.0387 30.9851 10.5814 32.5278C11.067 33.0134 11.8099 35.6703 12.2383 38.4129C12.6667 41.1554 13.4382 45.5264 14.0096 48.1547C15.0952 53.2399 15.2381 54.2112 15.4666 57.6965L15.6094 59.9249L16.1238 57.3821C16.4095 55.9823 17.095 52.1255 17.6951 48.8115C19.0949 40.8695 22.7517 26.6139 24.7799 21.1288C25.6655 18.7005 27.4081 14.0153 28.608 10.7013C31.3506 3.1309 32.6076 0.988102 34.6931 0.245339C35.9501 -0.183228 36.7786 -0.0688928 38.007 0.730947C40.464 2.33077 40.1782 4.81625 37.1499 8.47299C34.4074 11.7869 30.4364 20.8145 28.2366 28.7852C27.4653 31.5849 26.294 35.2987 25.6369 37.0414C24.4084 40.3553 23.3229 44.7263 22.8372 48.4973C22.6944 49.7258 22.4087 50.9544 22.2659 51.2113C22.0944 51.4684 21.8088 53.4111 21.6088 55.4966C21.4088 57.5821 21.0946 60.0104 20.9231 60.8673C20.7232 61.7529 20.1518 65.7524 19.609 69.752C18.4377 78.6368 17.952 79.9224 15.8952 79.9224C15.0095 79.9227 14.1524 79.6657 13.981 79.3799ZM26.094 62.9246C25.4941 61.9533 26.7511 47.7833 27.551 46.2406C29.1794 43.2124 31.6934 42.7267 32.1791 45.355C32.6361 47.7262 30.922 61.4676 30.065 62.5246C29.2936 63.4388 26.6082 63.7245 26.094 62.9246ZM35.493 57.6108C34.7788 56.4395 35.8643 42.8695 36.8071 41.384C37.55 40.2413 42.7494 37.9557 44.6634 37.9557C45.0062 37.9557 45.4919 38.5556 45.7204 39.2984C46.0347 40.2983 45.5776 41.2126 43.778 43.0409C41.5497 45.3263 41.4068 45.7262 41.0068 50.84C40.7783 53.8397 40.207 56.668 39.7212 57.2679C38.7498 58.4393 36.15 58.6678 35.493 57.6108ZM65.1469 44.0694C64.747 43.6123 64.5755 42.2411 64.7184 41.0697C64.8898 39.8984 65.204 36.6703 65.4326 33.8991C65.7754 29.7567 66.1182 28.6139 67.4038 27.3284C68.6893 26.0428 69.1179 25.8999 69.9178 26.5855C70.5749 27.1282 70.7748 28.0139 70.5463 29.328C70.3463 30.385 70.1464 33.5561 70.0892 36.3558C69.9464 42.498 69.8319 42.8408 67.6037 43.9835C66.1468 44.7837 65.7182 44.7837 65.1469 44.0694ZM29.7508 37.6986C28.6651 36.8986 28.6651 36.7558 29.665 35.2132C31.1792 32.8705 32.9504 32.0422 33.8931 33.1848C34.893 34.3846 34.2074 36.3557 32.379 37.5557C31.1505 38.3843 30.7221 38.4129 29.7508 37.6987V37.6986ZM67.6323 20.5006C67.6323 18.7007 70.232 16.6438 71.7462 17.2152C74.0602 18.1008 71.8318 22.0718 69.0036 22.0718C67.9751 22.0718 67.6323 21.7004 67.6323 20.5006Z" fill="white"/>
</g>
<defs>
<clipPath id="clip0">
<rect width="100" height="88.8023" fill="white"/>
</clipPath>
</defs>
</svg>
